<svg height="100%" width="100%" id="Layer_1" data-name="Layer 1" xmlns="http://www.w3.org/2000/svg" viewBox="0 0 640.05 211.41">
  <title>apple-pay</title>
  <path 
    fill="#fff"
    d="M116.9,33.8c-7.5,8.9-19.5,15.9-31.5,14.9-1.5-12,4.4-24.8,11.3-32.6C104.2,7,117.3.5,128,0c1.2,12.4-3.7,24.7-11.1,33.8M127.8,51c-17.4-1-32.3,9.9-40.5,9.9-8.4,0-21-9.4-34.8-9.1C34.6,52.1,18,62.2,8.9,78.3c-18.8,32.3-4.9,80,13.3,106.3,8.9,13,19.5,27.3,33.5,26.8,13.3-.5,18.5-8.6,34.5-8.6s20.8,8.6,34.8,8.4c14.5-.3,23.6-13,32.5-26A113,113,0,0,0,172,155.3c-.3-.3-28-10.9-28.3-42.9-.3-26.8,21.9-39.5,22.9-40.3-12.5-18.6-32-20.6-38.8-21.1M640,68.3"
    transform="translate(0.05)" />
</svg>