<?xml version="1.0" encoding="UTF-8"?>
<svg width="64px" height="25px" viewBox="0 0 64 25" version="1.1" xmlns="http://www.w3.org/2000/svg" xmlns:xlink="http://www.w3.org/1999/xlink">
    <!-- Generator: Sketch 61.1 (89650) - https://sketch.com -->
    <title>Group 4</title>
    <desc>Created with Sketch.</desc>
    <g id="Mocks" stroke="none" stroke-width="1" fill="none" fill-rule="evenodd">
        <g id="Premium-NPA-–-Payment-Form-Safari" transform="translate(-154.000000, -1055.000000)">
            <path d="M28,1044.00212 C28,1040.68724 30.6841797,1038 33.9955389,1038 L338.004461,1038 C341.315706,1038 344,1040.68114 344,1044.00212 L344,1089.99788 C344,1093.31276 341.31582,1096 338.004461,1096 L33.9955389,1096 C30.6842942,1096 28,1093.31886 28,1089.99788 L28,1044.00212 Z" id="Rectangle-Copy-21" fill="#000000"></path>
            <g id="Group-4" transform="translate(154.000000, 1051.000000)" fill="#FFFFFF">
                <text id="Pay" font-family="Helvetica" font-size="20" font-weight="normal" line-spacing="32">
                    <tspan x="30" y="19">Pay</tspan>
                </text>
                <g id="apple-seeklogo.com" transform="translate(0.000000, 4.000000)" fill-rule="nonzero">
                    <path d="M17.2860816,13.2817143 C17.3205977,17.0650057 20.5469478,18.3239897 20.5826914,18.3400591 C20.5554111,18.4288496 20.0671745,20.1342346 18.8828969,21.8957756 C17.859141,23.418717 16.7966174,24.9360796 15.1228288,24.9675054 C13.4781641,24.9983497 12.9493127,23.9748441 11.0689953,23.9748441 C9.18924594,23.9748441 8.60166789,24.936077 7.04480958,24.9983497 C5.42917896,25.0605767 4.19889321,23.3514902 3.16662953,21.8341277 C1.05732369,18.7303114 -0.55462241,13.0634721 1.60981375,9.23826314 C2.68505946,7.33864882 4.60660482,6.13573372 6.69227051,6.10488721 C8.27877848,6.07408538 9.77625344,7.1912475 10.7461059,7.1912475 C11.7153434,7.1912475 13.5350941,5.84776216 15.448131,6.04506996 C16.2489936,6.07899631 18.4970281,6.37433505 19.9405527,8.52491427 C19.8242402,8.59830354 17.2581875,10.1187441 17.2860816,13.2817178 M14.1951244,3.99162467 C15.0528735,2.93486075 15.6301881,1.46374764 15.4726905,0 C14.2363095,0.0505764811 12.7412472,0.838564273 11.8544187,1.89474679 C11.05965,2.8300456 10.3636113,4.32705101 10.5514146,5.76182791 C11.9295063,5.87034805 13.3373331,5.04906063 14.1951244,3.99162639" id="Shape"></path>
                </g>
            </g>
        </g>
    </g>
</svg>