<?xml version="1.0" encoding="UTF-8"?>
<svg width="43px" height="30px" viewBox="0 0 43 30" version="1.1" xmlns="http://www.w3.org/2000/svg" xmlns:xlink="http://www.w3.org/1999/xlink">
    <!-- Generator: Sketch 56.3 (81716) - https://sketch.com -->
    <desc>Created with Sketch.</desc>
    <defs>
        <polygon id="path-1" points="0.340909091 0 29.8863636 0 29.8863636 29.9998154 0.340909091 29.9998154"></polygon>
    </defs>
    <g id="Premium-Sign-Up-Flow" stroke="none" stroke-width="1" fill="none" fill-rule="evenodd">
        <g id="NPA-modal-mobile-comp-Copy-17" transform="translate(-83.000000, -499.000000)">
            <g id="instant-icon" transform="translate(83.000000, 499.000000)">
                <g id="Group-3" transform="translate(13.000000, 0.000000)">
                    <mask id="mask-2" fill="white">
                        <use xlink:href="#path-1"></use>
                    </mask>
                    <g id="Clip-2"></g>
                    <path d="M15.1136364,26.8927385 C8.73409091,26.8927385 3.54454545,21.6228923 3.54454545,15.1456615 C3.54454545,10.9682769 5.55681818,7.31104615 9.07363636,5.22073846 L7.82681818,3.10735385 L11.8268182,4.55243077 L10.4036364,8.61396923 L9.66636364,6.52412308 C6.92454545,8.24427692 5.28909091,11.1228923 5.04954545,14.3956615 L5.83,14.3956615 C6.23818182,14.3956615 6.56863636,14.7312 6.56863636,15.1456615 C6.56863636,15.5596615 6.23818182,15.8956615 5.83,15.8956615 L5.05909091,15.8956615 C5.42227273,20.9476615 9.40045455,24.9884308 14.375,25.3572 L14.375,24.5725846 C14.375,24.1581231 14.7059091,23.8225846 15.1136364,23.8225846 C15.5213636,23.8225846 15.8522727,24.1581231 15.8522727,24.5725846 L15.8522727,25.3567385 C20.8263636,24.9879692 24.8045455,20.9467385 25.1677273,15.8952 L24.3972727,15.8952 C23.9895455,15.8952 23.6586364,15.5592 23.6586364,15.1452 C23.6586364,14.7307385 23.9895455,14.3952 24.3972727,14.3952 L25.1709091,14.3952 C25.0054545,12.0852 24.0859091,9.90489231 22.5268182,8.19166154 C22.25,7.88750769 22.2681818,7.41304615 22.5677273,7.13243077 C22.8677273,6.85181538 23.335,6.86981538 23.6118182,7.17396923 C25.5922727,9.3492 26.6831818,12.1812 26.6831818,15.1456615 C26.6827273,21.6228923 21.4931818,26.8927385 15.1136364,26.8927385 L15.1136364,26.8927385 Z M15.0086364,13.5852 C15.0440909,13.5833538 15.0777273,13.5750462 15.1136364,13.5750462 C15.265,13.5750462 15.4086364,13.6041231 15.5472727,13.6447385 L20.0068182,9.11658462 C20.2954545,8.82396923 20.7627273,8.82396923 21.0513636,9.11658462 C21.34,9.40966154 21.34,9.88458462 21.0513636,10.1772 L16.5913636,14.7058154 C16.6322727,14.8465846 16.6604545,14.9919692 16.6604545,15.1456615 C16.6604545,16.0138154 15.9681818,16.7172 15.1136364,16.7172 C14.2590909,16.7172 13.5668182,16.0138154 13.5668182,15.1456615 C13.5668182,14.8844308 13.6354545,14.6425846 13.7468182,14.4252 L11.0363636,11.6730462 C10.7477273,11.3808923 10.7477273,10.9050462 11.0363636,10.6128923 C11.325,10.3193538 11.7922727,10.3193538 12.0809091,10.6128923 L15.0086364,13.5852 Z M15.1136364,-0.000184615385 C6.955,-0.000184615385 0.340909091,6.71566154 0.340909091,14.9998154 C0.340909091,23.2844308 6.955,29.9998154 15.1136364,29.9998154 C23.2722727,29.9998154 29.8863636,23.2844308 29.8863636,14.9998154 C29.8863636,6.71566154 23.2722727,-0.000184615385 15.1136364,-0.000184615385 L15.1136364,-0.000184615385 Z" id="Fill-1" fill="#00A8DE" mask="url(#mask-2)"></path>
                </g>
                <path d="M3.16666667,11 C2.5236,11 2,10.3268 2,9.5 C2,8.6732 2.5236,8 3.16666667,8 L7.83333333,8 C8.4764,8 9,8.6732 9,9.5 C9,10.3268 8.4764,11 7.83333333,11 L3.16666667,11 Z" id="Fill-4" fill="#00A8DE"></path>
                <path d="M1.11111111,17 C0.498666667,17 0,16.3268 0,15.5 C0,14.6732 0.498666667,14 1.11111111,14 L8.88888889,14 C9.50133333,14 10,14.6732 10,15.5 C10,16.3268 9.50133333,17 8.88888889,17 L1.11111111,17 Z" id="Fill-6" fill="#00A8DE"></path>
                <path d="M3.16666667,24 C2.5236,24 2,23.3274 2,22.5 C2,21.6732 2.5236,21 3.16666667,21 L7.83333333,21 C8.4764,21 9,21.6732 9,22.5 C9,23.3274 8.4764,24 7.83333333,24 L3.16666667,24 Z" id="Fill-8" fill="#00A8DE"></path>
            </g>
        </g>
    </g>
</svg>