<?xml version="1.0" encoding="UTF-8"?>
<svg width="22px" height="21px" viewBox="0 0 22 21" version="1.1" xmlns="http://www.w3.org/2000/svg" xmlns:xlink="http://www.w3.org/1999/xlink">
  <path d="M21,12.8669845 L21,8.13301551 L18.6291209,7.87345363 C18.4877708,7.4361159 18.3115986,7.01458556 18.1051862,6.61115354 L19.5984116,4.74908908 L16.25114,1.40158838 L14.3899919,2.89550106 C13.9856435,2.68817228 13.5634259,2.51177099 13.1249427,2.37019178 L12.8669845,0 L8.13301551,0 L7.87620274,2.36996269 C7.43680318,2.51177099 7.0134401,2.68863046 6.60817533,2.89641743 L4.74908908,1.40181747 L1.40158838,4.74908908 L2.89664652,6.60748805 C2.68885956,7.01275282 2.51177099,7.43588681 2.36996269,7.87551546 L0,8.13301551 L0,12.8669845 L2.36996269,13.1235682 C2.5115419,13.5629677 2.68863046,13.9865599 2.89641743,14.3915956 L1.40181747,16.2509109 L4.74908908,19.5984116 L6.60748805,18.1033535 C7.01183645,18.3106823 7.43405407,18.4873126 7.87253725,18.6288918 L8.13301551,21 L12.8669845,21 L13.1265464,18.6291209 C13.5641132,18.4877708 13.9856435,18.3115986 14.3890756,18.1049571 L16.25114,19.5984116 L19.5984116,16.2509109 L18.1044989,14.3897628 C18.3113695,13.9863308 18.4875417,13.5650296 18.6286628,13.1274627 L21,12.8669845 Z M10.5,16.5136801 C7.17884494,16.5136801 4.4863199,13.8213842 4.4863199,10.5 C4.4863199,7.17861584 7.17884494,4.4863199 10.5,4.4863199 C13.8211551,4.4863199 16.5136801,7.17861584 16.5136801,10.5 C16.5136801,13.8213842 13.8211551,16.5136801 10.5,16.5136801 Z"></path>
</svg>
