<svg width="168" height="168" viewBox="0 0 168 168" fill="none" xmlns="http://www.w3.org/2000/svg">
<path d="M84 168C130.392 168 168 130.392 168 84C168 37.6081 130.392 0 84 0C37.6081 0 0 37.6081 0 84C0 130.392 37.6081 168 84 168Z" fill="#00BFDA"/>
<path d="M77.44 117.04L73.48 121C73 121.48 72.24 121.48 71.76 121L48 97.24C46.68 95.92 46 94.16 46 92.4C46 90.68 46.68 88.92 48 87.6L87.6 48C88.92 46.68 90.68 46 92.4 46C94.16 46 95.92 46.68 97.24 48L121 71.76C121.48 72.24 121.48 73 121 73.48L117.04 77.44C116.56 77.92 115.8 77.92 115.32 77.44L101.12 63.24C100.72 62.84 100.16 62.64 99.6 62.64C99.08 62.64 98.52 62.84 98.08 63.24C97.68 63.68 97.48 64.2 97.48 64.76C97.48 65.28 97.68 65.84 98.04 66.24L112.28 80.48C112.76 80.92 112.76 81.72 112.28 82.2L108.32 86.16C107.84 86.6 107.08 86.6 106.6 86.16L92.44 71.96C92 71.56 91.44 71.32 90.92 71.32C90.36 71.32 89.84 71.52 89.44 71.92L89.4 71.96C88.96 72.36 88.76 72.92 88.76 73.48C88.76 74.04 88.96 74.56 89.4 75L103.56 89.16C104.04 89.64 104.04 90.44 103.56 90.88L99.6 94.84C99.12 95.32 98.36 95.32 97.88 94.84L83.72 80.68C83.28 80.24 82.76 80.04 82.2 80.04C81.64 80.04 81.12 80.24 80.72 80.64L80.68 80.68C80.24 81.08 80.04 81.64 80.04 82.2C80.04 82.76 80.24 83.28 80.68 83.72L94.84 97.88C95.32 98.36 95.32 99.12 94.84 99.6L90.88 103.56C90.44 104.04 89.64 104.04 89.16 103.56L75 89.4C74.6 88.96 74.04 88.76 73.48 88.76C72.96 88.76 72.4 88.96 72 89.32L71.96 89.4C71.56 89.8 71.32 90.36 71.32 90.92C71.32 91.44 71.52 91.96 71.92 92.36L86.16 106.6C86.6 107.08 86.6 107.84 86.16 108.32L82.2 112.28C81.72 112.76 80.96 112.76 80.48 112.28L66.28 98.08C65.88 97.68 65.32 97.48 64.76 97.48C64.2 97.48 63.68 97.68 63.24 98.08C62.84 98.52 62.64 99.08 62.64 99.6C62.64 100.16 62.84 100.72 63.24 101.12L77.44 115.32C77.92 115.8 77.92 116.56 77.44 117.04Z" fill="white"/>
</svg>
