<svg width="38" height="30" viewBox="0 0 38 30" fill="none" xmlns="http://www.w3.org/2000/svg">
<path d="M19 29.0218C17.2 29.0218 14.9 28.0218 13.4 24.6218" stroke="#A8B81A" stroke-width="0.5933" stroke-linecap="round" stroke-linejoin="round"/>
<path d="M19 29.0218C20.8 29.0218 22.9 28.0218 24.6 24.6218" stroke="#A8B81A" stroke-width="0.5933" stroke-linecap="round" stroke-linejoin="round"/>
<path d="M18.2 9.62188C18.2 10.8219 17.6 11.8219 16.9 11.8219C16.2 11.8219 15.6 10.8219 15.6 9.62188C15.6 8.42188 16.2 7.42188 16.9 7.42188C17.6 7.52188 18.2 8.42188 18.2 9.62188Z" fill="#4D4D4D"/>
<path d="M21.1 11.8219C21.818 11.8219 22.4 10.8369 22.4 9.62188C22.4 8.40685 21.818 7.42188 21.1 7.42188C20.382 7.42188 19.8 8.40685 19.8 9.62188C19.8 10.8369 20.382 11.8219 21.1 11.8219Z" fill="#4D4D4D"/>
<path d="M19 29.0218C17.2 29.0218 14.9 28.0218 13.4 24.6218" stroke="#4D4D4D" stroke-width="1.5" stroke-linecap="round"/>
<path d="M19 29.0218C20.8 29.0218 22.9 28.0218 24.6 24.6218" stroke="#4D4D4D" stroke-width="1.5" stroke-linecap="round"/>
<path fill-rule="evenodd" clip-rule="evenodd" d="M19 20.7218L19.4 24.7218C22.8 25.7218 25.6 24.7218 27 21.4218C29.6 15.0218 25.2 6.82184 25.2 6.82184C26.4 8.92184 27.4 11.1218 28.2 13.4218C28.7 14.9218 29.7 15.8218 31 15.6218C36 14.9218 35.1 6.52184 29.4 2.22184C27.6 1.02184 24.8 -0.178157 22.6 2.52184C21.2 1.92184 21.1 1.32184 19 1.32184C16.9 1.32184 16.7 1.82184 15.4 2.42184C13.2 -0.178157 10.4 0.921843 8.59999 2.12184C2.99999 6.52184 1.99999 14.9218 7.09999 15.7218C8.29999 15.9218 9.29999 15.0218 9.89999 13.5218C10.7 11.2218 11.7 9.02184 12.9 6.92184C12.9 6.92184 8.49999 15.2218 11.1 21.5218C12.4 24.7218 15.2 25.8218 18.7 24.8218L19 20.7218Z" stroke="#4D4D4D" stroke-width="1.5" stroke-linecap="round" stroke-linejoin="round"/>
<path d="M19 21.8218C21.3196 21.8218 23.2 20.8816 23.2 19.7218C23.2 18.562 21.3196 17.6218 19 17.6218C16.6804 17.6218 14.8 18.562 14.8 19.7218C14.8 20.8816 16.6804 21.8218 19 21.8218Z" fill="#4D4D4D"/>
<path d="M19 27.4219C20.5 27.4219 21.9 26.4219 22.3 24.9219C21.2 25.0219 20 24.8219 19 24.4219C17.9 24.8219 16.8 25.0219 15.7 24.9219C16.1 26.4219 17.5 27.3219 19 27.4219Z" fill="#4D4D4D"/>
</svg>
