<svg width="38" height="30" viewBox="0 0 38 30" fill="none" xmlns="http://www.w3.org/2000/svg">
<path fill-rule="evenodd" clip-rule="evenodd" d="M19.1 28.1219C22.6 28.2219 26 27.2219 28.8 25.1219C34.5 20.0219 30.3 11.5219 30.3 11.5219C30.3 11.5219 32.2 2.4219 31 1.7219C29.8 1.0219 23.4 5.1219 23.4 5.1219C22.1 4.3219 20.6 3.9219 19.1 3.9219C17.6 3.9219 16.1 4.3219 14.8 5.2219C14.8 5.2219 8.29999 1.2219 7.19999 1.8219C6.09999 2.4219 7.89999 11.6219 7.89999 11.6219C7.89999 11.6219 3.69999 20.0219 9.39999 25.2219C12.3 27.1219 15.7 28.1219 19.1 28.1219Z" stroke="#4D4D4D" stroke-width="1.5" stroke-linecap="round" stroke-linejoin="round"/>
<path d="M19 17.7219L17.7 16.2219H20.3L19 17.7219Z" stroke="#4D4D4D" stroke-width="1.5" stroke-linecap="round" stroke-linejoin="round"/>
<path d="M19 16.9219V24.1219" stroke="#4D4D4D" stroke-width="1.5" stroke-linecap="round" stroke-linejoin="round"/>
<path d="M19 21.5219C20.3 24.3219 25.6 24.6219 26.7 21.2219" stroke="#4D4D4D" stroke-width="1.5" stroke-linecap="round" stroke-linejoin="round"/>
<path d="M19 21.5219C17.7 24.3219 12.3 24.6219 11.3 21.2219" stroke="#4D4D4D" stroke-width="1.5" stroke-linecap="round" stroke-linejoin="round"/>
<path d="M19 21.6219C19.7 22.7219 20.9 23.5219 22.2 23.7219C21.7 25.1219 20.5 26.1219 19 26.3219C17.5 26.2219 16.2 25.2219 15.7 23.7219C17.1 23.5219 18.2 22.7219 19 21.6219Z" fill="#4D4D4D"/>
<path d="M16.9 12.0219C16.9 13.2219 16.3 14.2219 15.5 14.2219C14.7 14.2219 14.1 13.2219 14.1 12.0219C14.1 10.8219 14.7 9.8219 15.5 9.8219C16.3 9.8219 16.9 10.7219 16.9 12.0219Z" fill="#4D4D4D"/>
<path d="M21 12.0219C21 13.2219 21.6 14.2219 22.4 14.2219C23.2 14.2219 23.8 13.2219 23.8 12.0219C23.8 10.8219 23.2 9.8219 22.4 9.8219C21.6 9.8219 21 10.7219 21 12.0219Z" fill="#4D4D4D"/>
<path d="M16 16.1218C11.2 14.9218 6.09998 15.3218 1.59998 17.4218" stroke="#4D4D4D" stroke-width="1.5" stroke-linecap="round" stroke-linejoin="round"/>
<path d="M16.3 18.4219C16.3 18.4219 8.7 17.3219 4 22.2219" stroke="#4D4D4D" stroke-width="1.5" stroke-linecap="round" stroke-linejoin="round"/>
<path d="M22 16.1218C26.8 14.9218 31.9 15.3218 36.4 17.4218" stroke="#4D4D4D" stroke-width="1.5" stroke-linecap="round" stroke-linejoin="round"/>
<path d="M21.7 18.4219C21.7 18.4219 29.3 17.3219 34 22.2219" stroke="#4D4D4D" stroke-width="1.5" stroke-linecap="round" stroke-linejoin="round"/>
</svg>
