<svg width="38" height="30" viewBox="0 0 38 30" fill="none" xmlns="http://www.w3.org/2000/svg">
<path d="M19.6 22.7L19 22H20.2L19.6 22.7Z" stroke="#4D4D4D" stroke-width="1.4832" stroke-linecap="round" stroke-linejoin="round"/>
<path d="M19.6 22.4V24.3" stroke="#4D4D4D" stroke-width="1.5" stroke-linecap="round" stroke-linejoin="round"/>
<path d="M19.6 24.4C20.2 25.7 22.6 25.8 23.1 24.3" stroke="#4D4D4D" stroke-width="1.5" stroke-linecap="round" stroke-linejoin="round"/>
<path d="M19.6 24.4C19 25.7 16.6 25.8 16.1 24.3" stroke="#4D4D4D" stroke-width="1.5" stroke-linecap="round" stroke-linejoin="round"/>
<path d="M12.4 20.8C12.4 20.8 7.99998 18.6 4.09998 20.7" stroke="#4D4D4D" stroke-width="1.5" stroke-linecap="round" stroke-linejoin="round"/>
<path d="M12.1 21.7C12.1 21.7 8.3 21.5 6 23.1" stroke="#4D4D4D" stroke-width="1.5" stroke-linecap="round" stroke-linejoin="round"/>
<path d="M35 20.7C31.2 18.6 26.7 20.8 26.7 20.8" stroke="#4D4D4D" stroke-width="1.5" stroke-linecap="round" stroke-linejoin="round"/>
<path d="M33.0999 23.1C30.7999 21.4 26.9999 21.7 26.9999 21.7" stroke="#4D4D4D" stroke-width="1.5" stroke-linecap="round" stroke-linejoin="round"/>
<path fill-rule="evenodd" clip-rule="evenodd" d="M33.1 2.90001C30.3 -1.29999 26 2.00001 23.7 4.70001C21.6 7.10001 20.8 10.2 20.7 13.5C20.5 13.5 18.3 13.5 18 13.6C16.7 10.8 13 1.30001 8.69997 2.00001C7.39997 2.10001 4.79997 4.60001 3.69997 6.90001C3.09997 8.10001 2.39997 10.6 3.59997 11.6C4.19997 12 4.99997 12 5.59997 11.8C6.39997 11.5 7.09997 10.9 7.79997 10.4C9.19997 9.50001 10.4 8.80001 11.5 9.20001C12.7 9.60001 13.8 11.5 14.9 14.7C12.9 16.6 12.9 18.9 12.8 20.3C12.8 20.6 12.8 21 12.8 21.1C11.5 22.2 11.1 23.8 11.6 25.3C12.5 27.7 15.5 29.1 19.7 29.1C25.6 29.1 27.1 26.5 27.5 25.3C28 23.8 27.5 22 26.2 21C26.2 20.9 26.2 20.9 26.2 20.8C26.1 19.7 25.9 17.3 23.8 14.6C24.3 12.1 25.1 9.00001 26.6 8.50001C27.5 8.20001 28.9 8.90001 30.6 10.5C31.9 11.7 32.8 11.1 33.2 10.8C34.9 9.60001 34.7 5.30001 33.1 2.90001Z" stroke="#4D4D4D" stroke-width="1.5" stroke-linecap="round" stroke-linejoin="round"/>
<path d="M18.4 19.5C18.4 20.4 17.9 21.2 17.3 21.2C16.7 21.2 16.2 20.4 16.2 19.5C16.2 18.6 16.7 17.8 17.3 17.8C17.9 17.8 18.4 18.5 18.4 19.5Z" fill="#4D4D4D"/>
<path d="M20.7999 19.5C20.7999 20.4 21.2999 21.2 21.8999 21.2C22.4999 21.2 22.9999 20.4 22.9999 19.5C22.9999 18.6 22.4999 17.8 21.8999 17.8C21.2999 17.8 20.7999 18.5 20.7999 19.5Z" fill="#4D4D4D"/>
</svg>
