<svg width="70" height="70" viewBox="0 0 70 70" fill="none" xmlns="http://www.w3.org/2000/svg">
<path fill-rule="evenodd" clip-rule="evenodd" d="M35 70C54.33 70 70 54.33 70 35C70 15.67 54.33 0 35 0C15.67 0 0 15.67 0 35C0 54.33 15.67 70 35 70Z" fill="#00BFDA"/>
<path fill-rule="evenodd" clip-rule="evenodd" d="M51.4258 47.7273H20.1705L31.3027 36.7884L35.7954 40.1649L40.2912 36.786L51.4258 47.7273ZM52.4999 46.673V27.6105L41.5078 35.8717L52.4999 46.673ZM19.0908 46.6784V27.6105L30.0861 35.8741L19.0908 46.6784ZM52.4999 25.7338V23.8636H19.0908V25.7338L35.7954 38.3122L52.4999 25.7338Z" fill="white"/>
</svg>
