<svg width="16" height="15" viewBox="0 0 16 15" fill="none" xmlns="http://www.w3.org/2000/svg">
<path fill-rule="evenodd" clip-rule="evenodd" d="M5.71438 8.707L5.28937 0.738252C5.26797 0.336621 5.6095 0 6.03844 0H8.96156C9.3905 0 9.73203 0.336621 9.71062 0.738252L9.28562 8.707C9.26566 9.08121 8.93622 9.375 8.53656 9.375H6.46344C6.06378 9.375 5.73434 9.08121 5.71438 8.707ZM7.5 15C8.8785 15 10 13.9486 10 12.6562C10 11.3639 8.8785 10.3125 7.5 10.3125C6.1215 10.3125 5 11.3639 5 12.6562C5 13.9486 6.1215 15 7.5 15Z" fill="#F9665E"/>
</svg>
