<svg width="26px" height="15px" viewBox="0 0 26 15" version="1.1" xmlns="http://www.w3.org/2000/svg" xmlns:xlink="http://www.w3.org/1999/xlink">
  <g stroke="none" stroke-width="1" fill="none" fill-rule="evenodd">
    <path
      d="M12.6569293,0 C7.8272192,0 3.41870471,2.61111111 0.189538043,6.88888889 C-0.0631793478,7.25 -0.0631793478,7.72222222 0.189538043,8.08333333 C3.41870471,12.3333333 7.8272192,14.9444444 12.6569293,14.9444444 C17.4866395,14.9444444 21.895154,12.3333333 25.1243207,8.05555556 C25.377038,7.69444444 25.377038,7.22222222 25.1243207,6.86111111 C21.895154,2.61111111 17.4866395,0 12.6569293,0 Z M12.9938859,12.7222222 C9.79279891,12.9166667 7.12522645,10.3055556 7.32178442,7.11111111 C7.49026268,4.5 9.65240036,2.36111111 12.2918931,2.19444444 C15.4929801,2 18.1605525,4.61111111 17.9639946,7.80555556 C17.7955163,10.4444444 15.6614583,12.5555556 12.9938859,12.7222222 Z M12.8534873,10.3055556 C11.1125453,10.4166667 9.70855978,9 9.79279891,7.27777778 C9.87703804,5.86111111 11.0283062,4.72222222 12.4603714,4.63888889 C14.2013134,4.52777778 15.6052989,5.94444444 15.5210598,7.66666667 C15.4368207,9.05555556 14.2574728,10.2222222 12.8534873,10.3055556 Z"
      fill="#4D4D4D"
      fill-rule="nonzero"></path>
  </g>
</svg>