<svg viewBox="0 0 17 23" id="aap-icon-favorite-ribbon" xmlns="http://www.w3.org/2000/svg">
  <path d="M8.127 15.159c-2.921-2.764-5.843-5.527-5.843-8.29 0-1.526 1.311-2.763 2.922-2.763 1.465 0 2.193.69 2.92 2.072.73-1.382 1.466-2.072 2.922-2.072 1.61 0 2.922 1.237 2.922 2.763 0 2.763-2.922 5.526-5.843 8.29M14.316 0H1.789C.805 0 0 .796 0 1.77v19.934c0 .62.716.973 1.253.53l6.71-4.309c.09-.088.18-.088.269 0l6.71 4.31c.447.442 1.253.088 1.253-.531V1.769C16.105.796 15.3 0 14.315 0" fill-rule="evenodd"></path>
</svg>