<svg width="57" height="58" viewBox="0 0 57 58" fill="none" xmlns="http://www.w3.org/2000/svg">
<path fill-rule="evenodd" clip-rule="evenodd" d="M28.5 57.5527C44.2401 57.5527 57 44.7929 57 29.0527C57 13.3126 44.2401 0.552734 28.5 0.552734C12.7599 0.552734 0 13.3126 0 29.0527C0 44.7929 12.7599 57.5527 28.5 57.5527Z" fill="#F9665E"/>
<path d="M14.2816 44.2658H43.1333V27.4465L48.7365 27.0292L38.8722 20.2277V12.5527H35.1618V17.6416L28.0673 12.7364L8.24997 26.7823H14.2816V44.2658Z" fill="white" stroke="white" stroke-width="0.5"/>
<path fill-rule="evenodd" clip-rule="evenodd" d="M38.132 30.4882C37.7687 30.2119 37.3514 30.011 36.9075 29.8874C36.9488 28.1919 36.2726 26.7272 34.9873 25.7477C33.5713 24.6759 31.5653 24.3411 29.8773 24.8987C28.74 25.2743 27.8016 25.9855 27.1952 26.8607C26.5959 25.9855 25.658 25.2794 24.5178 24.8987C22.8251 24.3406 20.8196 24.6702 19.4107 25.7477C18.0841 26.7558 17.4024 28.2818 17.4946 30.0593C17.6941 32.9282 21.7584 36.5974 25.5559 39.8128C26.1234 40.2956 27.0374 41.108 27.353 41.3941C27.5473 41.2172 28.0043 40.821 28.415 40.4649C28.5785 40.3231 28.7347 40.1877 28.864 40.075C29.3632 39.6409 29.8656 39.1994 30.3652 38.7461C30.833 39.1605 31.3078 39.5702 31.7812 39.9654C32.1103 40.2448 32.6134 40.6921 32.8834 40.9322C32.9257 40.9698 32.9623 41.0024 32.9916 41.0284C33.1155 40.9122 33.4062 40.6611 33.6747 40.429C33.7948 40.3252 33.9105 40.2253 34.0049 40.1429C36.5536 37.9164 39.2839 35.3776 39.4225 33.3791C39.4852 32.1935 39.0221 31.1653 38.132 30.4882ZM34.554 31.4327C34.6973 31.384 34.8453 31.3498 34.9979 31.3353C35.4877 31.2745 36.0074 31.3742 36.4364 31.6125C36.5361 31.6659 36.626 31.7216 36.7136 31.79C37.0938 32.0761 37.533 32.6141 37.4843 33.538C37.3845 35.0199 34.5498 37.4932 33.1867 38.6788C33.132 38.7291 33.077 38.7773 33.0241 38.8237C32.9721 38.8694 32.9221 38.9133 32.8763 38.9555C32.8094 38.899 32.7391 38.8387 32.6654 38.7754C32.5714 38.6948 32.4718 38.6095 32.3668 38.521C32.1004 38.2977 31.7754 38.0214 31.4285 37.7161C31.089 37.4253 30.728 37.0975 30.3712 36.7534C29.2216 35.6572 28.1255 34.4206 28.0646 33.5422C28.0159 32.6141 28.4551 32.0756 28.8358 31.7895C29.4324 31.3353 30.2789 31.1925 30.9939 31.4327C31.7282 31.6757 32.7719 33.0135 32.7719 33.0135C32.7719 33.0135 33.8193 31.6757 34.554 31.4327Z" fill="#F9665E"/>
</svg>
