<svg width="168" height="168" viewBox="0 0 168 168" fill="none" xmlns="http://www.w3.org/2000/svg">
<path d="M84 168C130.392 168 168 130.392 168 84C168 37.6081 130.392 0 84 0C37.6081 0 0 37.6081 0 84C0 130.392 37.6081 168 84 168Z" fill="#00BFDA"/>
<path d="M125.132 60.1893L121.774 67.691C120.861 69.4345 119.248 70.4264 116.937 70.6688H115.675C114.131 70.5738 112.45 70.5422 110.632 70.5738C108.436 70.931 106.482 71.3985 104.77 71.9763C103.403 72.4284 102.033 72.4972 100.655 72.1816C100.099 72.0242 99.3108 71.7186 98.2917 71.2674C97.9137 71.0784 96.9471 70.4255 95.3918 69.3124C93.774 68.1459 92.2404 67.2064 90.79 66.492C89.5195 65.7975 87.0816 64.6419 83.4773 63.0242C81.4183 62.0259 80.0836 61.128 79.475 60.3304C78.8755 59.5211 78.7969 58.5436 79.2381 57.3988C79.4796 56.7477 79.9688 56.264 80.7039 55.9484C81.733 55.423 82.9628 55.4646 84.3924 56.075C86.1141 56.8526 87.3077 57.3889 87.9696 57.6827C89.1361 58.2081 90.969 58.8809 93.4693 59.6992C94.3211 59.9624 95.172 60.1414 96.022 60.2355H97.1098L96.1332 59.7942C90.3858 57.1574 86.6087 55.4547 84.802 54.6879C83.0369 53.9527 81.5078 53.8369 80.2156 54.3424C78.965 54.8678 78.1042 55.6238 77.6313 56.6112C77.379 57.1682 77.2054 57.9197 77.1113 58.8646C76.4386 58.823 75.0677 58.7642 72.9979 58.691C68.6583 60.7825 66.3055 61.8957 65.9374 62.0322C65.0865 62.3162 64.2139 62.4735 63.3214 62.5051C62.3439 62.4834 61.625 62.3098 61.1621 61.9843C60.6159 61.7537 60.2271 61.175 59.9956 60.2508C59.8373 59.3041 60.662 58.2805 62.4696 57.1773L72.0511 50.9677C76.6637 50.4225 81.166 49.681 85.558 48.746C86.5237 48.5254 87.4596 48.6149 88.363 49.0137C91.1797 50.4641 94.3844 51.9344 97.977 53.4264C99.7647 54.1616 101.492 54.8506 103.162 55.4917C106.125 56.4475 108.609 56.9991 110.617 57.1465H110.633C112.838 57.1673 117.672 56.2956 125.132 54.5296C127.548 53.9961 127.548 55.8824 125.132 60.1893Z" fill="white"/>
<path d="M61.6495 65.028C64.7284 69.5665 67.3445 74.1529 69.4984 78.7863C72.902 86.1722 74.4628 92.3926 74.1788 97.4465C74.1264 97.7196 73.9898 97.9926 73.7692 98.2657C73.4545 98.613 73.223 98.8173 73.0756 98.8806C69.209 100.12 65.3795 100.446 61.5862 99.8581C55.8812 98.8282 50.9693 95.6814 46.8513 90.4186C47.5973 83.568 48.9736 78.2247 50.9801 74.3898L53.6586 70.6706C56.0765 68.0329 58.7396 66.1529 61.6495 65.028Z" fill="white"/>
<path fill-rule="evenodd" clip-rule="evenodd" d="M107.449 78.4879C108.394 78.6651 109.188 79.1706 109.829 79.9998C110.49 80.7983 110.78 81.66 110.694 82.5842C110.294 89.8869 107.149 95.4933 101.254 99.4006C97.3558 102.007 92.7115 103.677 87.3231 104.412C86.408 104.549 85.5932 104.97 84.8798 105.673C84.5543 105.989 84.2812 106.331 84.0605 106.698C83.9665 106.865 83.6826 107.564 83.2096 108.794C83.1255 108.983 82.1372 112.403 80.2464 119.054C68.0245 118.455 55.4454 114.407 42.5091 106.91C43.8157 105.054 45.0944 101.038 46.3468 94.8621C51.8528 99.3906 56.9745 101.855 61.7128 102.254C66.4402 102.643 70.1648 102.38 72.8866 101.467C73.7584 101.193 74.5044 100.636 75.1247 99.7948C75.8282 98.9647 76.1799 98.0876 76.1799 97.1635C76.5272 92.0987 75.1138 86.005 71.9408 78.8812C70.229 74.8772 68.0643 70.7909 65.4482 66.6195C71.3847 63.9827 76.8744 63.3841 81.9174 64.8237C86.9605 66.2732 90.5694 69.6198 92.745 74.8627C93.8925 77.4923 98.7936 78.7004 107.449 78.4879ZM84.2341 82.7731C85.1068 82.7731 85.8519 82.4693 86.4722 81.8598C87.0816 81.2504 87.3864 80.498 87.3873 79.6064C87.3873 78.723 87.0826 77.977 86.4722 77.3684C85.8519 76.758 85.1068 76.4533 84.2341 76.4533C83.3398 76.4533 82.5893 76.7589 81.9798 77.3684C81.3604 77.977 81.0503 78.723 81.0503 79.6064C81.0503 80.4989 81.3604 81.2504 81.9798 81.8598C82.5902 82.4693 83.3407 82.7731 84.2341 82.7731Z" fill="white"/>
</svg>
