<svg id="Layer_1" data-name="Layer 1" xmlns="http://www.w3.org/2000/svg" viewBox="0 0 106.08 109.8"><defs><style>.cls-1{fill:#4285f4;}.cls-1,.cls-2,.cls-3,.cls-4{fill-rule:evenodd;}.cls-2{fill:#34a853;}.cls-3{fill:#fbbc04;}.cls-4{fill:#ea4335;}</style></defs><title>google-pay-mark</title><g id="Page-1"><g id="GooglePay_mark_800_gray" data-name="GooglePay mark 800 gray"><g id="GPay-logo"><g id="Super-G"><path id="Path" class="cls-1" d="M106.08,53.12a69,69,0,0,0-.9-11.13h-51V63.11H83.38a25.43,25.43,0,0,1-10.82,16.7V93.53H90C100.22,84,106.08,69.9,106.08,53.12Z" transform="translate(0 3)"/><path id="Path-2" data-name="Path" class="cls-2" d="M54.14,106.8c14.58,0,26.91-4.88,35.85-13.27L72.56,79.81a32.16,32.16,0,0,1-18.42,5.26c-14.13,0-26.08-9.68-30.37-22.65h-18V76.61A54,54,0,0,0,54.14,106.8Z" transform="translate(0 3)"/><path id="Path-3" data-name="Path" class="cls-3" d="M23.77,62.42a33.63,33.63,0,0,1,0-21V27.27h-18a55.09,55.09,0,0,0,0,49.26Z" transform="translate(0 3)"/><path id="Path-4" data-name="Path" class="cls-4" d="M54.14,18.73A29,29,0,0,1,74.89,27L90.37,11.26A51.87,51.87,0,0,0,54.14-3,54.06,54.06,0,0,0,5.81,27.27l18,14.19C28.06,28.42,40,18.73,54.14,18.73Z" transform="translate(0 3)"/></g></g></g></g></svg>