<svg width="45" height="44" viewBox="0 0 45 44" fill="none" xmlns="http://www.w3.org/2000/svg">
<g opacity="0.7" filter="url(#filter0_d)">
<path fill-rule="evenodd" clip-rule="evenodd" d="M22.5 36.4783C13.75 28.108 5 19.7378 5 11.3702C5 6.74839 8.92611 3 13.75 3C18.1397 3 20.3212 5.09256 22.5 9.27768C24.6815 5.09256 26.8897 3 31.25 3C36.0739 3 40 6.74839 40 11.3702C40 19.7378 31.25 28.108 22.5 36.4783Z" fill="white" fill-opacity="0.7"/>
<path fill-rule="evenodd" clip-rule="evenodd" d="M22.5 36.4783C13.75 28.108 5 19.7378 5 11.3702C5 6.74839 8.92611 3 13.75 3C18.1397 3 20.3212 5.09256 22.5 9.27768C24.6815 5.09256 26.8897 3 31.25 3C36.0739 3 40 6.74839 40 11.3702C40 19.7378 31.25 28.108 22.5 36.4783Z" stroke="#4D4D4D" stroke-width="2" stroke-linecap="round" stroke-linejoin="round"/>
</g>
<defs>
<filter id="filter0_d" x="0" y="0" width="45" height="43.4783" filterUnits="userSpaceOnUse" color-interpolation-filters="sRGB">
<feFlood flood-opacity="0" result="BackgroundImageFix"/>
<feColorMatrix in="SourceAlpha" type="matrix" values="0 0 0 0 0 0 0 0 0 0 0 0 0 0 0 0 0 0 127 0"/>
<feOffset dy="2"/>
<feGaussianBlur stdDeviation="2"/>
<feColorMatrix type="matrix" values="0 0 0 0 0 0 0 0 0 0 0 0 0 0 0 0 0 0 0.12 0"/>
<feBlend mode="normal" in2="BackgroundImageFix" result="effect1_dropShadow"/>
<feBlend mode="normal" in="SourceGraphic" in2="effect1_dropShadow" result="shape"/>
</filter>
</defs>
</svg>
