<svg width="168" height="168" viewBox="0 0 168 168" fill="none" xmlns="http://www.w3.org/2000/svg">
<path d="M84 168C130.392 168 168 130.392 168 84C168 37.6081 130.392 0 84 0C37.6081 0 0 37.6081 0 84C0 130.392 37.6081 168 84 168Z" fill="#00BFDA"/>
<rect x="74" y="59" width="50" height="15" fill="white"/>
<rect x="74" y="94" width="50" height="15" fill="white"/>
<path d="M53.1779 56.3109L47.4367 61.563L44 57.4454L53.3396 49.2521H59V79H53.1779V56.3109Z" fill="white"/>
<path d="M44 112.375L55.1336 102.083C55.7004 101.556 56.2672 100.958 56.834 100.292C57.4008 99.625 57.6842 98.8472 57.6842 97.9583C57.6842 96.9583 57.3333 96.1736 56.6316 95.6042C55.9298 95.0347 55.1066 94.75 54.1619 94.75C53.0283 94.75 52.1444 95.1111 51.5101 95.8333C50.8758 96.5556 50.5182 97.4444 50.4372 98.5L44.3644 98.0417C44.4453 96.5139 44.7557 95.1875 45.2955 94.0625C45.8354 92.9375 46.5506 92 47.4413 91.25C48.332 90.5 49.3779 89.9375 50.5789 89.5625C51.78 89.1875 53.0823 89 54.4858 89C55.7814 89 56.9959 89.1875 58.1296 89.5625C59.2632 89.9375 60.2483 90.4931 61.085 91.2292C61.9217 91.9653 62.5762 92.8889 63.0486 94C63.5209 95.1111 63.7571 96.4028 63.7571 97.875C63.7571 98.8194 63.6626 99.6736 63.4737 100.438C63.2847 101.201 63.0216 101.896 62.6842 102.521C62.3468 103.146 61.9487 103.722 61.4899 104.25C61.031 104.778 60.5317 105.292 59.9919 105.792L51.2874 113.5H64V119H44V112.375Z" fill="white"/>
</svg>
