<svg width="70" height="70" viewBox="0 0 70 70" fill="none" xmlns="http://www.w3.org/2000/svg">
<path fill-rule="evenodd" clip-rule="evenodd" d="M35 70C54.33 70 70 54.33 70 35C70 15.67 54.33 0 35 0C15.67 0 0 15.67 0 35C0 54.33 15.67 70 35 70Z" fill="#00BFDA"/>
<path fill-rule="evenodd" clip-rule="evenodd" d="M34.8109 37.8503C30.2283 37.8503 26.5131 34.1351 26.5131 29.5525C26.5131 24.97 30.2283 21.2547 34.8109 21.2547C39.3934 21.2547 43.1087 24.97 43.1087 29.5525C43.1087 34.1351 39.3934 37.8503 34.8109 37.8503ZM48.8533 29.1532C48.8533 29.1532 48.8457 29.1771 48.8337 29.213C48.4496 21.8013 42.3184 15.9091 34.8109 15.9091C27.3034 15.9091 21.1722 21.8013 20.788 29.213C20.776 29.1771 20.7685 29.1532 20.7685 29.1532C20.7685 29.1532 18.7738 37.7298 33.9332 55.1632C33.9332 55.1632 34.4518 55.6818 34.8109 55.6818C35.1699 55.6818 35.6885 55.1632 35.6885 55.1632C50.8479 37.7298 48.8533 29.1532 48.8533 29.1532Z" fill="white"/>
</svg>
