<?xml version="1.0" encoding="UTF-8"?>
<svg width="22px" height="21px" viewBox="0 0 22 21" version="1.1" xmlns="http://www.w3.org/2000/svg" xmlns:xlink="http://www.w3.org/1999/xlink">
  <path d="M16.693719,6.40919557 L16.4550026,6.63199758 C16.0512519,7.00883154 16.0294316,7.64162042 16.4062656,8.0453711 C16.4209965,8.06115422 16.4362347,8.07645616 16.4519561,8.09125284 L16.6525,8.28 C16.8665955,8.48150165 16.8768048,8.81840972 16.6753032,9.03250522 C16.5747028,9.13939311 16.4344327,9.2 16.287649,9.2 L9.2,9.2 C8.64771525,9.2 8.2,9.64771525 8.2,10.2 L8.2,10.5 C8.2,11.0522847 8.64771525,11.5 9.2,11.5 L17.63,11.5 L16.4519561,12.6087472 C16.0497824,12.9872636 16.0306044,13.6201381 16.4091209,14.0223119 C16.4239175,14.0380333 16.4392195,14.0532715 16.4550026,14.0680024 L16.693719,14.2908044 C17.0876637,14.6584861 17.7021045,14.6478955 18.0831441,14.2668559 L21.2928932,11.0571068 C21.6834175,10.6665825 21.6834175,10.0334175 21.2928932,9.64289322 L18.0831441,6.43314406 C17.7021045,6.05210453 17.0876637,6.04151387 16.693719,6.40919557 Z" id="Shape"></path>
  <path d="M4.715,15.985 C3.105,14.49 2.3,12.535 2.3,10.35 C2.3,8.165 3.105,6.21 4.715,4.715 C7.82,1.61 12.995,1.61 16.1,4.715 L17.71,3.105 C13.685,-0.92 7.13,-0.92 3.105,3.105 C1.035,4.945 0,7.59 0,10.35 C0,13.11 1.035,15.755 2.99,17.71 C5.06,19.665 7.705,20.7 10.35,20.7 C12.995,20.7 15.64,19.665 17.71,17.71 L16.1,15.985 C12.88,19.205 7.82,19.205 4.715,15.985 Z" id="Shape"></path>
</svg>
