<svg width="23" height="21" viewBox="0 0 23 21" fill="none" xmlns="http://www.w3.org/2000/svg">
<path d="M19.0832 6.4332C18.7021 6.05217 18.0877 6.04158 17.6937 6.40926L17.2586 6.81542C16.9426 7.11034 16.9415 7.6109 17.2563 7.90714C17.7496 8.37147 17.421 9.20006 16.7435 9.20006H10.2C9.64773 9.20006 9.20001 9.64778 9.20001 10.2001V10.5001C9.20001 11.0523 9.64773 11.5001 10.2 11.5001H18.63L17.452 12.6088C17.0313 13.0048 17.0326 13.6739 17.455 14.0681L17.6937 14.2909C18.0877 14.6585 18.7021 14.648 19.0832 14.2669L22.2929 11.0572C22.6834 10.6666 22.6834 10.0335 22.2929 9.64295L19.0832 6.4332Z" fill="#00BFDA"/>
<path d="M5.715 15.9851C4.105 14.4901 3.3 12.5351 3.3 10.3501C3.3 8.16505 4.105 6.21005 5.715 4.71505C8.82 1.61005 13.995 1.61005 17.1 4.71505L18.71 3.10505C14.685 -0.919946 8.13 -0.919946 4.105 3.10505C2.035 4.94505 1 7.59005 1 10.3501C1 13.1101 2.035 15.7551 3.99 17.7101C6.06 19.6651 8.705 20.7001 11.35 20.7001C13.995 20.7001 16.64 19.6651 18.71 17.7101L17.1 15.9851C13.88 19.2051 8.82 19.2051 5.715 15.9851Z" fill="#00BFDA"/>
</svg>
