<svg width="168" height="168" viewBox="0 0 168 168" fill="none" xmlns="http://www.w3.org/2000/svg">
<path d="M84 168C130.392 168 168 130.392 168 84C168 37.6081 130.392 0 84 0C37.6081 0 0 37.6081 0 84C0 130.392 37.6081 168 84 168Z" fill="#00BFDA"/>
<path fill-rule="evenodd" clip-rule="evenodd" d="M96.8542 71.1458H116.603C120.529 71.1458 123.714 74.3294 123.714 78.2555V89.7445C123.714 93.6705 120.528 96.8542 116.603 96.8542H96.8542V116.603C96.8542 120.529 93.6697 123.714 89.7445 123.714H78.2546C74.3277 123.714 71.1449 120.528 71.1449 116.603V96.8542H51.3961C47.4692 96.8542 44.2864 93.6697 44.2864 89.7445V78.2546C44.2864 74.3286 47.4692 71.1449 51.3961 71.1449H71.1458V51.3961C71.1458 47.4701 74.3286 44.2864 78.2555 44.2864H89.7445C93.6705 44.2864 96.8542 47.4701 96.8542 51.3961V71.1458ZM92.1841 86.2649L92.2159 86.2331V86.2322H92.2142C93.0443 85.354 93.5578 84.1729 93.5578 82.8697C93.5578 80.1651 91.3651 77.9716 88.6606 77.9716C86.4826 77.9716 84.6383 79.3944 84.0017 81.3617C83.3651 79.3944 81.5208 77.9716 79.3428 77.9716C76.6374 77.9716 74.4447 80.1651 74.4447 82.8697C74.4447 84.1729 74.9574 85.354 75.7884 86.2322H75.7781L83.9974 94.4507L92.0533 86.3922C92.0963 86.3518 92.1402 86.3097 92.1841 86.2649Z" fill="white"/>
</svg>
