<svg width="23" height="19" viewBox="0 0 23 19" fill="none" xmlns="http://www.w3.org/2000/svg">
<path fill-rule="evenodd" clip-rule="evenodd" d="M9.40909 19C4.70455 14.4996 0 9.99928 0 5.50036C0 3.01537 2.11092 1 4.70455 1C7.06474 1 8.23764 2.12509 9.40909 4.37527C10.582 2.12509 11.7693 1 14.1136 1C16.7073 1 18.8182 3.01537 18.8182 5.50036C18.8182 9.99928 14.1136 14.4996 9.40909 19" fill="#242424"/>
<path fill-rule="evenodd" clip-rule="evenodd" d="M19 8C21.2091 8 23 6.20914 23 4C23 1.79086 21.2091 0 19 0C16.7909 0 15 1.79086 15 4C15 6.20914 16.7909 8 19 8Z" fill="#00BFDA"/>
</svg>
