<svg viewBox="0 0 250 250" version="1.1" xmlns="http://www.w3.org/2000/svg" xmlns:xlink="http://www.w3.org/1999/xlink">
    <g stroke="none" stroke-width="1" fill="none" fill-rule="evenodd">
        <g >
            <rect fill="#DFDFDF" fill-rule="nonzero" opacity="0.4" x="0" y="0" width="250" height="250" rx="8"></rect>
            <g opacity="0.6" transform="translate(214.000000, 29.000000)" fill="#FFFFFF" fill-rule="nonzero">
                <path d="M5.55,19 C6.54654765,22.012452 9.37717858,24.0343313 12.55,24 C15.7679384,23.8502052 18.5820936,21.7849148 19.69,18.76 C20.695418,15.7986279 19.6971245,12.5259963 17.21,10.63 C15.3898165,9.40114379 13.1551922,8.94774175 11,9.37 C6.73,9.93 4.31,15.13 5.55,19 L5.55,19 Z M0.71,5.76 C1.16517598,7.47726493 2.6583764,8.71758463 4.43,8.85 C8.43,9.09 10.28,3.41 6.58,1.53 C4,0.22 0,2.73 0.71,5.76 L0.71,5.76 Z M11.55,2 C11.150922,3.05619977 11.353617,4.24559904 12.08,5.11 C14.17,7.27 18.14,6.59 18.14,3.21 C18.14,-0.17 12.58,-1.22 11.55,2 L11.55,2 Z M20.89,9.65 C22.0455464,9.93028388 23.2488288,9.42457085 23.8572119,8.40294643 C24.465595,7.38132201 24.3369572,6.08244298 23.54,5.2 C22.7517687,4.41543094 21.5597651,4.2016199 20.5479891,4.66331959 C19.5362131,5.12501928 18.9165865,6.16552429 18.9926838,7.27505863 C19.0687811,8.38459297 19.8246633,9.33075886 20.89,9.65 L20.89,9.65 Z M22.39,14.8 C22.557316,15.2718392 22.8869486,15.6688161 23.32,15.92 C24.0811068,16.3252084 24.9833923,16.3694043 25.7804567,16.0405185 C26.577521,15.7116327 27.1860999,15.0440219 27.44,14.22 C28.01,11.89 25.57,10.54 23.61,11.45 C22.4226439,12.1043127 21.901483,13.5353693 22.39,14.8 L22.39,14.8 Z" ></path>
            </g>
            <g opacity="0.6" transform="translate(181.000000, 85.000000)" fill="#FFFFFF" fill-rule="nonzero">
                <path d="M5.35,19.16 C6.34654765,22.172452 9.17717858,24.1943313 12.35,24.16 C15.5679384,24.0102052 18.3820936,21.9449148 19.49,18.92 C20.495418,15.9586279 19.4971245,12.6859963 17.01,10.79 C15.1900654,9.5515422 12.9510638,9.09078301 10.79,9.51 C6.53,10.11 4.11,15.31 5.35,19.16 L5.35,19.16 Z M0.51,5.94 C0.977173726,7.64872232 2.47292406,8.875799 4.24,9 C8.24,9.24 10.09,3.56 6.39,1.68 C3.81,0.4 -0.16,2.91 0.51,5.94 L0.51,5.94 Z M11.35,2.13 C10.950922,3.18619977 11.153617,4.37559904 11.88,5.24 C13.97,7.4 17.94,6.72 17.94,3.34 C17.94,-0.04 12.39,-1 11.35,2.13 L11.35,2.13 Z M20.69,9.82 C21.8455464,10.1002839 23.0488288,9.59457085 23.6572119,8.57294643 C24.265595,7.55132201 24.1369572,6.25244298 23.34,5.37 C22.5517687,4.58543094 21.3597651,4.3716199 20.3479891,4.83331959 C19.3362131,5.29501928 18.7165865,6.33552429 18.7926838,7.44505863 C18.8687811,8.55459297 19.6246633,9.50075886 20.69,9.82 L20.69,9.82 Z M22.19,15 C22.357316,15.4718392 22.6869486,15.8688161 23.12,16.12 C23.8811068,16.5252084 24.7833923,16.5694043 25.5804567,16.2405185 C26.377521,15.9116327 26.9860999,15.2440219 27.24,14.42 C27.81,12.09 25.37,10.74 23.41,11.65 C22.2226439,12.3043127 21.701483,13.7353693 22.19,15 L22.19,15 Z" ></path>
            </g>
            <g opacity="0.6" transform="translate(214.000000, 141.000000)" fill="#FFFFFF" fill-rule="nonzero">
                <path d="M5.55,19.34 C6.54654765,22.352452 9.37717858,24.3743313 12.55,24.34 C15.7679384,24.1902052 18.5820936,22.1249148 19.69,19.1 C20.695418,16.1386279 19.6971245,12.8659963 17.21,10.97 C15.3900654,9.7315422 13.1510638,9.27078301 10.99,9.69 C6.73,10.29 4.31,15.49 5.55,19.34 L5.55,19.34 Z M0.71,6.12 C1.16517598,7.83726493 2.6583764,9.07758463 4.43,9.21 C8.43,9.45 10.28,3.77 6.58,1.89 C4,0.57 0,3.09 0.71,6.12 L0.71,6.12 Z M11.55,2.31 C11.150922,3.36619977 11.353617,4.55559904 12.08,5.42 C14.17,7.58 18.14,6.9 18.14,3.52 C18.14,0.14 12.58,-0.86 11.55,2.31 L11.55,2.31 Z M20.89,10 C22.0455464,10.2802839 23.2488288,9.77457085 23.8572119,8.75294643 C24.465595,7.73132201 24.3369572,6.43244298 23.54,5.55 C22.7517687,4.76543094 21.5597651,4.5516199 20.5479891,5.01331959 C19.5362131,5.47501928 18.9165865,6.51552429 18.9926838,7.62505863 C19.0687811,8.73459297 19.8246633,9.68075886 20.89,10 L20.89,10 Z M22.39,15.16 C22.557316,15.6318392 22.8869486,16.0288161 23.32,16.28 C24.0811068,16.6852084 24.9833923,16.7294043 25.7804567,16.4005185 C26.577521,16.0716327 27.1860999,15.4040219 27.44,14.58 C28.01,12.25 25.57,10.9 23.61,11.81 C22.4226439,12.4643127 21.901483,13.8953693 22.39,15.16 L22.39,15.16 Z" ></path>
            </g>
            <g opacity="0.6" transform="translate(181.000000, 197.000000)" fill="#FFFFFF" fill-rule="nonzero">
                <path d="M5.35,19.52 C6.34654765,22.532452 9.17717858,24.5543313 12.35,24.52 C15.5679384,24.3702052 18.3820936,22.3049148 19.49,19.28 C20.495418,16.3186279 19.4971245,13.0459963 17.01,11.15 C15.1900654,9.9115422 12.9510638,9.45078301 10.79,9.87 C6.53,10.47 4.11,15.67 5.35,19.52 L5.35,19.52 Z M0.51,6.3 C0.965175985,8.01726493 2.4583764,9.25758463 4.23,9.39 C8.23,9.63 10.08,3.95 6.38,2.07 C3.81,0.75 -0.16,3.27 0.51,6.3 Z M11.35,2.49 C10.950922,3.54619977 11.153617,4.73559904 11.88,5.6 C13.97,7.76 17.94,7.08 17.94,3.7 C17.94,0.32 12.39,-0.68 11.35,2.49 L11.35,2.49 Z M20.69,10.18 C21.8455464,10.4602839 23.0488288,9.95457085 23.6572119,8.93294643 C24.265595,7.91132201 24.1369572,6.61244298 23.34,5.73 C22.5517687,4.94543094 21.3597651,4.7316199 20.3479891,5.19331959 C19.3362131,5.65501928 18.7165865,6.69552429 18.7926838,7.80505863 C18.8687811,8.91459297 19.6246633,9.86075886 20.69,10.18 Z M22.19,15.34 C22.357316,15.8118392 22.6869486,16.2088161 23.12,16.46 C23.8811068,16.8652084 24.7833923,16.9094043 25.5804567,16.5805185 C26.377521,16.2516327 26.9860999,15.5840219 27.24,14.76 C27.81,12.43 25.37,11.08 23.41,11.99 C22.2226439,12.6443127 21.701483,14.0753693 22.19,15.34 L22.19,15.34 Z" ></path>
            </g>
            <g opacity="0.6" transform="translate(146.000000, 29.000000)" fill="#FFFFFF" fill-rule="nonzero">
                <path d="M5.24,19 C6.23654765,22.012452 9.06717858,24.0343313 12.24,24 C15.4579384,23.8502052 18.2720936,21.7849148 19.38,18.76 C20.385418,15.7986279 19.3871245,12.5259963 16.9,10.63 C15.0800654,9.3915422 12.8410638,8.93078301 10.68,9.35 C6.42,9.93 4,15.13 5.24,19 L5.24,19 Z M0.4,5.76 C0.855175985,7.47726493 2.3483764,8.71758463 4.12,8.85 C8.12,9.09 9.97,3.41 6.27,1.53 C3.7,0.22 -0.27,2.73 0.4,5.76 L0.4,5.76 Z M11.24,2 C10.840922,3.05619977 11.043617,4.24559904 11.77,5.11 C13.86,7.27 17.83,6.59 17.83,3.21 C17.83,-0.17 12.28,-1.22 11.24,2 L11.24,2 Z M20.58,9.65 C21.7355464,9.93028388 22.9388288,9.42457085 23.5472119,8.40294643 C24.155595,7.38132201 24.0269572,6.08244298 23.23,5.2 C22.4417687,4.41543094 21.2497651,4.2016199 20.2379891,4.66331959 C19.2262131,5.12501928 18.6065865,6.16552429 18.6826838,7.27505863 C18.7587811,8.38459297 19.5146633,9.33075886 20.58,9.65 L20.58,9.65 Z M22.08,14.8 C22.247316,15.2718392 22.5769486,15.6688161 23.01,15.92 C23.7711068,16.3252084 24.6733923,16.3694043 25.4704567,16.0405185 C26.267521,15.7116327 26.8760999,15.0440219 27.13,14.22 C27.7,11.89 25.26,10.54 23.3,11.45 C22.1126439,12.1043127 21.591483,13.5353693 22.08,14.8 L22.08,14.8 Z" ></path>
            </g>
            <g opacity="0.6" transform="translate(113.000000, 85.000000)" fill="#FFFFFF" fill-rule="nonzero">
                <path d="M5,19.16 C5.99654765,22.172452 8.82717858,24.1943313 12,24.16 C15.2179384,24.0102052 18.0320936,21.9449148 19.14,18.92 C20.145418,15.9586279 19.1471245,12.6859963 16.66,10.79 C14.8400654,9.5515422 12.6010638,9.09078301 10.44,9.51 C6.22,10.11 3.81,15.31 5,19.16 L5,19.16 Z M0.21,5.94 C0.675947704,7.64545373 2.16670095,8.8717185 3.93,9 C7.93,9.24 9.78,3.56 6.08,1.68 C3.5,0.4 -0.47,2.91 0.21,5.94 L0.21,5.94 Z M11,2.13 C10.600922,3.18619977 10.803617,4.37559904 11.53,5.24 C13.62,7.4 17.59,6.72 17.59,3.34 C17.59,-0.04 12.08,-1 11,2.13 Z M20.38,9.82 C21.5302725,10.0815056 22.7175777,9.56889452 23.3160699,8.5523715 C23.9145621,7.53584847 23.7867479,6.24894238 23,5.37 C22.2117687,4.58543094 21.0197651,4.3716199 20.0079891,4.83331959 C18.9962131,5.29501928 18.3765865,6.33552429 18.4526838,7.44505863 C18.5287811,8.55459297 19.2846633,9.50075886 20.35,9.82 L20.38,9.82 Z M21.89,15 C22.057316,15.4718392 22.3869486,15.8688161 22.82,16.12 C23.5811068,16.5252084 24.4833923,16.5694043 25.2804567,16.2405185 C26.077521,15.9116327 26.6860999,15.2440219 26.94,14.42 C27.51,12.09 25.07,10.74 23.11,11.65 C21.9226439,12.3043127 21.401483,13.7353693 21.89,15 L21.89,15 Z" ></path>
            </g>
            <g opacity="0.6" transform="translate(146.000000, 141.000000)" fill="#FFFFFF" fill-rule="nonzero">
                <path d="M5.24,19.34 C6.23654765,22.352452 9.06717858,24.3743313 12.24,24.34 C15.4579384,24.1902052 18.2720936,22.1249148 19.38,19.1 C20.385418,16.1386279 19.3871245,12.8659963 16.9,10.97 C15.0800654,9.7315422 12.8410638,9.27078301 10.68,9.69 C6.42,10.29 4,15.49 5.24,19.34 L5.24,19.34 Z M0.4,6.12 C0.855175985,7.83726493 2.3483764,9.07758463 4.12,9.21 C8.12,9.45 9.97,3.77 6.27,1.89 C3.7,0.57 -0.27,3.09 0.4,6.12 L0.4,6.12 Z M11.24,2.31 C10.840922,3.36619977 11.043617,4.55559904 11.77,5.42 C13.86,7.58 17.83,6.9 17.83,3.52 C17.83,0.14 12.28,-0.86 11.24,2.31 Z M20.58,10 C21.7355464,10.2802839 22.9388288,9.77457085 23.5472119,8.75294643 C24.155595,7.73132201 24.0269572,6.43244298 23.23,5.55 C22.4417687,4.76543094 21.2497651,4.5516199 20.2379891,5.01331959 C19.2262131,5.47501928 18.6065865,6.51552429 18.6826838,7.62505863 C18.7587811,8.73459297 19.5146633,9.68075886 20.58,10 Z M22.08,15.16 C22.247316,15.6318392 22.5769486,16.0288161 23.01,16.28 C23.7711068,16.6852084 24.6733923,16.7294043 25.4704567,16.4005185 C26.267521,16.0716327 26.8760999,15.4040219 27.13,14.58 C27.7,12.25 25.26,10.9 23.3,11.81 C22.1126439,12.4643127 21.591483,13.8953693 22.08,15.16 L22.08,15.16 Z" ></path>
            </g>
            <g opacity="0.6" transform="translate(113.000000, 197.000000)" fill="#FFFFFF" fill-rule="nonzero">
                <path d="M5,19.52 C5.99654765,22.532452 8.82717858,24.5543313 12,24.52 C15.2179384,24.3702052 18.0320936,22.3049148 19.14,19.28 C20.145418,16.3186279 19.1471245,13.0459963 16.66,11.15 C14.8400654,9.9115422 12.6010638,9.45078301 10.44,9.87 C6.22,10.47 3.81,15.67 5,19.52 L5,19.52 Z M0.21,6.3 C0.665175985,8.01726493 2.1583764,9.25758463 3.93,9.39 C7.93,9.63 9.78,3.95 6.08,2.07 C3.5,0.75 -0.47,3.27 0.21,6.3 Z M11,2.49 C10.600922,3.54619977 10.803617,4.73559904 11.53,5.6 C13.62,7.76 17.59,7.08 17.59,3.7 C17.59,0.32 12.08,-0.68 11,2.49 L11,2.49 Z M20.38,10.18 C21.5355464,10.4602839 22.7388288,9.95457085 23.3472119,8.93294643 C23.955595,7.91132201 23.8269572,6.61244298 23.03,5.73 C22.2417687,4.94543094 21.0497651,4.7316199 20.0379891,5.19331959 C19.0262131,5.65501928 18.4065865,6.69552429 18.4826838,7.80505863 C18.5587811,8.91459297 19.3146633,9.86075886 20.38,10.18 Z M21.89,15.34 C22.057316,15.8118392 22.3869486,16.2088161 22.82,16.46 C23.5811068,16.8652084 24.4833923,16.9094043 25.2804567,16.5805185 C26.077521,16.2516327 26.6860999,15.5840219 26.94,14.76 C27.51,12.43 25.07,11.08 23.11,11.99 C21.9226439,12.6443127 21.401483,14.0753693 21.89,15.34 L21.89,15.34 Z" ></path>
            </g>
            <g opacity="0.6" transform="translate(79.000000, 29.000000)" fill="#FFFFFF" fill-rule="nonzero">
                <path d="M5.21,19 C6.20654765,22.012452 9.03717858,24.0343313 12.21,24 C15.4279384,23.8502052 18.2420936,21.7849148 19.35,18.76 C20.355418,15.7986279 19.3571245,12.5259963 16.87,10.63 C15.0500654,9.3915422 12.8110638,8.93078301 10.65,9.35 C6.39,9.93 4,15.13 5.21,19 L5.21,19 Z M0.37,5.76 C0.825175985,7.47726493 2.3183764,8.71758463 4.09,8.85 C8.09,9.09 9.94,3.41 6.24,1.53 C3.67,0.22 -0.31,2.73 0.37,5.76 L0.37,5.76 Z M11.21,2 C10.810922,3.05619977 11.013617,4.24559904 11.74,5.11 C13.83,7.27 17.8,6.59 17.8,3.21 C17.8,-0.17 12.24,-1.22 11.21,2 Z M20.55,9.65 C21.7055464,9.93028388 22.9088288,9.42457085 23.5172119,8.40294643 C24.125595,7.38132201 23.9969572,6.08244298 23.2,5.2 C22.4117687,4.41543094 21.2197651,4.2016199 20.2079891,4.66331959 C19.1962131,5.12501928 18.5765865,6.16552429 18.6526838,7.27505863 C18.7287811,8.38459297 19.4846633,9.33075886 20.55,9.65 L20.55,9.65 Z M22.05,14.8 C22.217316,15.2718392 22.5469486,15.6688161 22.98,15.92 C23.7411068,16.3252084 24.6433923,16.3694043 25.4404567,16.0405185 C26.237521,15.7116327 26.8460999,15.0440219 27.1,14.22 C27.67,11.89 25.23,10.54 23.27,11.45 C22.0826439,12.1043127 21.561483,13.5353693 22.05,14.8 L22.05,14.8 Z" ></path>
            </g>
            <g opacity="0.6" transform="translate(46.000000, 85.000000)" fill="#FFFFFF" fill-rule="nonzero">
                <path d="M5,19.16 C5.99654765,22.172452 8.82717858,24.1943313 12,24.16 C15.2164456,24.0429494 18.0495351,22.0097447 19.19,19 C20.195418,16.0386279 19.1971245,12.7659963 16.71,10.87 C14.8900654,9.6315422 12.6510638,9.17078301 10.49,9.59 C6.19,10.11 3.77,15.31 5,19.16 L5,19.16 Z M0.17,5.94 C0.637173726,7.64872232 2.13292406,8.875799 3.9,9 C7.9,9.24 9.75,3.56 6.05,1.68 C3.47,0.4 -0.5,2.91 0.17,5.94 L0.17,5.94 Z M11,2.13 C10.600922,3.18619977 10.803617,4.37559904 11.53,5.24 C13.62,7.4 17.59,6.72 17.59,3.34 C17.59,-0.04 12,-1 11,2.13 Z M20.35,9.82 C21.5055464,10.1002839 22.7088288,9.59457085 23.3172119,8.57294643 C23.925595,7.55132201 23.7969572,6.25244298 23,5.37 C22.2117687,4.58543094 21.0197651,4.3716199 20.0079891,4.83331959 C18.9962131,5.29501928 18.3765865,6.33552429 18.4526838,7.44505863 C18.5287811,8.55459297 19.2846633,9.50075886 20.35,9.82 L20.35,9.82 Z M21.85,15 C22.017316,15.4718392 22.3469486,15.8688161 22.78,16.12 C23.5411068,16.5252084 24.4433923,16.5694043 25.2404567,16.2405185 C26.037521,15.9116327 26.6460999,15.2440219 26.9,14.42 C27.47,12.09 25.03,10.74 23.07,11.65 C21.8826439,12.3043127 21.361483,13.7353693 21.85,15 L21.85,15 Z" ></path>
            </g>
            <g opacity="0.6" transform="translate(79.000000, 141.000000)" fill="#FFFFFF" fill-rule="nonzero">
                <path d="M5.21,19.34 C6.20654765,22.352452 9.03717858,24.3743313 12.21,24.34 C15.4279384,24.1902052 18.2420936,22.1249148 19.35,19.1 C20.3497961,16.1559785 19.3695677,12.9019415 16.91,11 C15.0900654,9.7615422 12.8510638,9.30078301 10.69,9.72 C6.39,10.29 4,15.49 5.21,19.34 L5.21,19.34 Z M0.37,6.12 C0.825175985,7.83726493 2.3183764,9.07758463 4.09,9.21 C8.09,9.45 9.94,3.77 6.24,1.89 C3.67,0.57 -0.31,3.09 0.37,6.12 L0.37,6.12 Z M11.21,2.31 C10.810922,3.36619977 11.013617,4.55559904 11.74,5.42 C13.83,7.58 17.8,6.9 17.8,3.52 C17.8,0.14 12.24,-0.86 11.21,2.31 Z M20.55,10 C21.7055464,10.2802839 22.9088288,9.77457085 23.5172119,8.75294643 C24.125595,7.73132201 23.9969572,6.43244298 23.2,5.55 C22.4117687,4.76543094 21.2197651,4.5516199 20.2079891,5.01331959 C19.1962131,5.47501928 18.5765865,6.51552429 18.6526838,7.62505863 C18.7287811,8.73459297 19.4846633,9.68075886 20.55,10 L20.55,10 Z M22.05,15.16 C22.217316,15.6318392 22.5469486,16.0288161 22.98,16.28 C23.7411068,16.6852084 24.6433923,16.7294043 25.4404567,16.4005185 C26.237521,16.0716327 26.8460999,15.4040219 27.1,14.58 C27.67,12.25 25.23,10.9 23.27,11.81 C22.0826439,12.4643127 21.561483,13.8953693 22.05,15.16 L22.05,15.16 Z" ></path>
            </g>
            <g opacity="0.6" transform="translate(46.000000, 197.000000)" fill="#FFFFFF" fill-rule="nonzero">
                <path d="M5,19.52 C5.99654765,22.532452 8.82717858,24.5543313 12,24.52 C15.2179384,24.3702052 18.0320936,22.3049148 19.14,19.28 C20.145418,16.3186279 19.1471245,13.0459963 16.66,11.15 C14.8400654,9.9115422 12.6010638,9.45078301 10.44,9.87 C6.19,10.47 3.77,15.67 5,19.52 L5,19.52 Z M0.17,6.3 C0.625175985,8.01726493 2.1183764,9.25758463 3.89,9.39 C7.89,9.63 9.74,3.95 6.04,2.07 C3.47,0.75 -0.5,3.27 0.17,6.3 Z M11,2.49 C10.600922,3.54619977 10.803617,4.73559904 11.53,5.6 C13.62,7.76 17.59,7.08 17.59,3.7 C17.59,0.32 12,-0.68 11,2.49 Z M20.35,10.18 C21.5055464,10.4602839 22.7088288,9.95457085 23.3172119,8.93294643 C23.925595,7.91132201 23.7969572,6.61244298 23,5.73 C22.2117687,4.94543094 21.0197651,4.7316199 20.0079891,5.19331959 C18.9962131,5.65501928 18.3765865,6.69552429 18.4526838,7.80505863 C18.5287811,8.91459297 19.2846633,9.86075886 20.35,10.18 L20.35,10.18 Z M21.85,15.34 C22.017316,15.8118392 22.3469486,16.2088161 22.78,16.46 C23.5411068,16.8652084 24.4433923,16.9094043 25.2404567,16.5805185 C26.037521,16.2516327 26.6460999,15.5840219 26.9,14.76 C27.47,12.43 25.03,11.08 23.07,11.99 C21.8826439,12.6443127 21.361483,14.0753693 21.85,15.34 L21.85,15.34 Z" ></path>
            </g>
            <g opacity="0.6" transform="translate(10.000000, 29.000000)" fill="#FFFFFF" fill-rule="nonzero">
                <path d="M5.9,19 C6.89654765,22.012452 9.72717858,24.0343313 12.9,24 C16.1179384,23.8502052 18.9320936,21.7849148 20.04,18.76 C21.045418,15.7986279 20.0471245,12.5259963 17.56,10.63 C15.7400654,9.3915422 13.5010638,8.93078301 11.34,9.35 C7.08,9.93 4.66,15.13 5.9,19 L5.9,19 Z M1.06,5.76 C1.51517598,7.47726493 3.0083764,8.71758463 4.78,8.85 C8.78,9.09 10.63,3.41 6.93,1.53 C4.36,0.22 0.39,2.73 1.06,5.76 L1.06,5.76 Z M11.9,2 C11.500922,3.05619977 11.703617,4.24559904 12.43,5.11 C14.52,7.27 18.49,6.59 18.49,3.21 C18.49,-0.17 12.94,-1.22 11.9,2 Z M21.24,9.65 C22.3955464,9.93028388 23.5988288,9.42457085 24.2072119,8.40294643 C24.815595,7.38132201 24.6869572,6.08244298 23.89,5.2 C23.1017687,4.41543094 21.9097651,4.2016199 20.8979891,4.66331959 C19.8862131,5.12501928 19.2665865,6.16552429 19.3426838,7.27505863 C19.4187811,8.38459297 20.1746633,9.33075886 21.24,9.65 L21.24,9.65 Z M22.74,14.8 C22.907316,15.2718392 23.2369486,15.6688161 23.67,15.92 C24.4311068,16.3252084 25.3333923,16.3694043 26.1304567,16.0405185 C26.927521,15.7116327 27.5360999,15.0440219 27.79,14.22 C28.36,11.89 25.92,10.54 23.96,11.45 C22.7726439,12.1043127 22.251483,13.5353693 22.74,14.8 L22.74,14.8 Z" ></path>
            </g>
            <g opacity="0.6" transform="translate(10.000000, 141.000000)" fill="#FFFFFF" fill-rule="nonzero">
                <path d="M5.9,19.34 C6.89654765,22.352452 9.72717858,24.3743313 12.9,24.34 C16.1179384,24.1902052 18.9320936,22.1249148 20.04,19.1 C21.0397961,16.1559785 20.0595677,12.9019415 17.6,11 C15.7800654,9.7615422 13.5410638,9.30078301 11.38,9.72 C7.08,10.29 4.66,15.49 5.9,19.34 L5.9,19.34 Z M1.06,6.12 C1.51517598,7.83726493 3.0083764,9.07758463 4.78,9.21 C8.78,9.45 10.63,3.77 6.93,1.89 C4.36,0.57 0.39,3.09 1.06,6.12 L1.06,6.12 Z M11.9,2.31 C11.500922,3.36619977 11.703617,4.55559904 12.43,5.42 C14.52,7.58 18.49,6.9 18.49,3.52 C18.49,0.14 12.94,-0.86 11.9,2.31 Z M21.24,10 C22.3955464,10.2802839 23.5988288,9.77457085 24.2072119,8.75294643 C24.815595,7.73132201 24.6869572,6.43244298 23.89,5.55 C23.1017687,4.76543094 21.9097651,4.5516199 20.8979891,5.01331959 C19.8862131,5.47501928 19.2665865,6.51552429 19.3426838,7.62505863 C19.4187811,8.73459297 20.1746633,9.68075886 21.24,10 Z M22.74,15.16 C22.907316,15.6318392 23.2369486,16.0288161 23.67,16.28 C24.4311068,16.6852084 25.3333923,16.7294043 26.1304567,16.4005185 C26.927521,16.0716327 27.5360999,15.4040219 27.79,14.58 C28.36,12.25 25.92,10.9 23.96,11.81 C22.7726439,12.4643127 22.251483,13.8953693 22.74,15.16 L22.74,15.16 Z" ></path>
            </g>
            <g transform="translate(60.000000, 86.000000)" stroke="#B3B3B3">
                <g transform="translate(18.000000, 0.000000)" stroke-linecap="round">
                    <path d="M47.48,98 C60.288078,98.3281183 72.857033,94.4928676 83.3,87.07 C104.19,68.01 88.7,36.73 88.7,36.73 C88.7,36.73 95.79,3.1 91.37,0.49 C87.28,-1.93 63.22,13.09 63.22,13.09 C58.81,9.71 52.64,8.26 47.48,8.37 C42.32,8.48 36.15,9.71 31.74,13.09 C31.74,13.09 7.68,-1.91 3.59,0.49 C-0.83,3.1 6.26,36.73 6.26,36.73 C6.26,36.73 -9.23,68 11.67,87.08 C20.88,93.59 32.63,97.8 47.48,98 Z" stroke-width="2.57"></path>
                    <polygon stroke-width="3.11" fill="#70CF36" fill-rule="nonzero" stroke-linejoin="round" points="47.04 59.39 42.34 53.85 51.73 53.85 47.04 59.39"></polygon>
                    <path d="M47.04,56.62 L47.04,72.01 M46.93,73.69 C51.83,84.06 71.43,85.02 75.35,72.47 M46.93,73.69 C42.03,84.06 22.43,85.02 18.51,72.47" stroke-width="2.57" stroke-linejoin="round"></path>
                </g>
                <path d="M65,73.89 C68.1,79.68 74.76,81.06 76.93,81.67 C76.62,84.41 71.51,91 65,91.14 C58.49,91.28 53.25,84.42 52.94,81.67 C55.11,81.06 61.94,79.67 65,73.89 L65,73.89 Z M57.16,38.22 C57.16,42.81 54.83,46.53 51.97,46.53 C49.11,46.53 46.77,42.81 46.77,38.22 C46.77,33.63 49.1,29.91 51.97,29.91 C54.84,29.91 57.16,33.63 57.16,38.22 Z M72.52,38.22 C72.52,42.81 74.85,46.53 77.71,46.53 C80.57,46.53 82.91,42.81 82.91,38.22 C82.91,33.63 80.59,29.91 77.71,29.91 C74.83,29.91 72.52,33.63 72.52,38.22 Z" stroke-width="0.64" fill="#B3B3B3" fill-rule="nonzero"></path>
                <path d="M53.84,52.34 C53.84,52.34 26.97,44.42 0.84,57.05 M55,57 C55,57 27,53.11 9.73,71 M76.16,52.34 C76.16,52.34 103.03,44.42 129.16,57.05 M75,57 C75,57 103,53.11 120.27,71" stroke-width="1.93" stroke-linecap="round" stroke-linejoin="round"></path>
            </g>
            <path d="M73.27,36.56 L81,49 L81.05,49 L81.05,36.56 L84.87,36.56 L84.87,55.12 L80.81,55.12 L73.09,42.69 L73,42.69 L73,55.12 L69.22,55.12 L69.22,36.56 L73.27,36.56 Z M88.06,45.49 C88.6644189,43.8018029 89.9755317,42.461473 91.65,41.82 C92.5622059,41.4695973 93.5329026,41.296501 94.51,41.31 C95.4902542,41.2976621 96.4640092,41.4706987 97.38,41.82 C99.0605428,42.4555785 100.376899,43.7975304 100.98,45.49 C101.317446,46.4259876 101.483433,47.415132 101.47,48.41 C101.484653,49.4017012 101.318611,50.3877831 100.98,51.32 C100.673822,52.1498136 100.196872,52.9061194 99.58,53.54 C98.9616353,54.1809464 98.2108306,54.6792077 97.38,55 C96.4613589,55.337509 95.4885852,55.5035923 94.51,55.49 C93.5345183,55.5055779 92.5646615,55.3394136 91.65,55 C90.8301009,54.6881011 90.0866931,54.203863 89.47,53.58 C88.8521834,52.946864 88.3750994,52.1903451 88.07,51.36 C87.7305186,50.4280125 87.5644502,49.4417693 87.58,48.45 C87.5573833,47.4422641 87.7200834,46.4389467 88.06,45.49 L88.06,45.49 Z M91.42,50 C91.5128629,50.4879525 91.692363,50.9553303 91.95,51.38 C92.1933326,51.7925909 92.5374091,52.1366674 92.95,52.38 C93.4286656,52.6367727 93.9672204,52.7610545 94.51,52.74 C95.0558223,52.7594863 95.5971973,52.6353493 96.08,52.38 C96.4931339,52.137369 96.837369,51.7931339 97.08,51.38 C97.3433057,50.9560469 97.52951,50.4888434 97.63,50 C97.7360031,49.4833802 97.789608,48.9573827 97.79,48.43 C97.7898678,47.8959883 97.7362671,47.3633315 97.63,46.84 C97.5388365,46.3515653 97.3592222,45.8838904 97.1,45.46 C96.8511196,45.0517395 96.5082605,44.7088804 96.1,44.46 C95.6212525,44.1921728 95.0782333,44.0607414 94.53,44.08 C93.494185,44.0288308 92.5128377,44.5463382 91.97,45.43 C91.7091286,45.853076 91.5293931,46.3210664 91.44,46.81 C91.334388,47.3334305 91.2807939,47.8660218 91.28,48.4 C91.2723285,48.9366995 91.3192363,49.4727886 91.42,50 L91.42,50 Z M119.81,36.56 C120.833914,36.5295432 121.85367,36.7029017 122.81,37.07 C123.566678,37.3649563 124.249404,37.8223828 124.81,38.41 C125.315651,38.9554013 125.697676,39.6034796 125.93,40.31 C126.399493,41.742513 126.399493,43.287487 125.93,44.72 C125.699563,45.43034 125.317399,46.0820671 124.81,46.63 C124.249404,47.2176172 123.566678,47.6750437 122.81,47.97 C121.85367,48.3370983 120.833914,48.5104568 119.81,48.48 L115.52,48.48 L115.52,55.14 L111.44,55.14 L111.44,36.56 L119.81,36.56 Z M118.69,45.3 C119.141936,45.3023987 119.59335,45.2689606 120.04,45.2 C120.442249,45.14147 120.829368,45.0056389 121.18,44.8 C121.513644,44.5956004 121.786434,44.3055452 121.97,43.96 C122.369775,43.0485775 122.369775,42.0114225 121.97,41.1 C121.786434,40.7544548 121.513644,40.4643996 121.18,40.26 C120.829368,40.0543611 120.442249,39.91853 120.04,39.86 C119.59335,39.7910394 119.141936,39.7576013 118.69,39.76 L115.52,39.76 L115.52,45.32 L118.69,45.3 Z M131.85,36.56 L131.85,43.56 L131.93,43.56 C132.346748,42.8298248 132.969315,42.2385596 133.72,41.86 C134.380169,41.5228824 135.108827,41.3415731 135.85,41.33 C136.678478,41.3013842 137.504407,41.4373395 138.28,41.73 C138.869784,41.9649432 139.38718,42.3512659 139.78,42.85 C140.162796,43.3655642 140.425842,43.9599809 140.55,44.59 C140.703725,45.3400862 140.77747,46.1043599 140.77,46.87 L140.77,55.14 L137.08,55.14 L137.08,47.53 C137.135952,46.6713893 136.956139,45.8138174 136.56,45.05 C136.137305,44.4618469 135.429654,44.1481853 134.71,44.23 C133.880187,44.1574681 133.066969,44.4932003 132.53,45.13 C131.993712,46.0336965 131.755782,47.0833888 131.85,48.13 L131.85,55.13 L128.16,55.13 L128.16,36.56 L131.85,36.56 Z M143.57,45.49 C144.174419,43.8018029 145.485532,42.461473 147.16,41.82 C148.072206,41.4695973 149.042903,41.296501 150.02,41.31 C151.000254,41.2976621 151.974009,41.4706987 152.89,41.82 C154.570543,42.4555785 155.886899,43.7975304 156.49,45.49 C156.827872,46.4258761 156.993871,47.4150985 156.98,48.41 C156.9951,49.4017352 156.829045,50.3878975 156.49,51.32 C156.184359,52.1500785 155.707343,52.9064904 155.09,53.54 C154.474736,54.1799885 153.727399,54.6782137 152.9,55 C151.981359,55.337509 151.008585,55.5035923 150.03,55.49 C149.054518,55.5055779 148.084661,55.3394136 147.17,55 C146.350969,54.6780359 145.610864,54.1834957 145,53.55 C144.382657,52.9164904 143.905641,52.1600785 143.6,51.33 C143.260519,50.3980125 143.09445,49.4117693 143.11,48.42 C143.084633,47.4235355 143.240496,46.430751 143.57,45.49 L143.57,45.49 Z M146.92,49.99 C147.013687,50.4777174 147.193133,50.9449531 147.45,51.37 C147.693679,51.7823222 148.037678,52.1263207 148.45,52.37 C148.927788,52.6290996 149.46699,52.7535308 150.01,52.73 C150.555778,52.7490182 151.097034,52.6249086 151.58,52.37 C151.993134,52.127369 152.337369,51.7831339 152.58,51.37 C152.836867,50.9449531 153.016313,50.4777174 153.11,49.99 C153.21547,49.4732986 153.269069,48.947355 153.27,48.42 C153.269206,47.8860218 153.215612,47.3534305 153.11,46.83 C153.019272,46.3414422 152.839628,45.8736902 152.58,45.45 C152.33112,45.0417395 151.98826,44.6988804 151.58,44.45 C151.095338,44.1908032 150.548784,44.0697312 150,44.1 C149.455133,44.082576 148.915816,44.2139481 148.44,44.48 C148.03174,44.7288804 147.68888,45.0717395 147.44,45.48 C147.180372,45.9036902 147.000728,46.3714422 146.91,46.86 C146.804388,47.3834305 146.750794,47.9160218 146.75,48.45 C146.758832,48.9713321 146.819125,49.490518 146.93,50 L146.92,49.99 Z M166.56,41.68 L166.56,44.15 L163.86,44.15 L163.86,50.8 C163.725447,51.2417117 163.845362,51.721624 164.171869,52.0481311 C164.498376,52.3746383 164.978288,52.4945533 165.42,52.36 L166.02,52.36 C166.204702,52.343782 166.388332,52.3170722 166.57,52.28 L166.57,55.14 C166.238869,55.1925521 165.90498,55.225941 165.57,55.2400141 L164.45,55.2400141 C163.907748,55.2408773 163.366205,55.200763 162.83,55.12 C162.355113,55.0527763 161.897132,54.8967236 161.48,54.66 C161.083404,54.4222531 160.76393,54.0749997 160.56,53.66 C160.313284,53.1496933 160.196489,52.5863294 160.22,52.02 L160.22,44.15 L157.98,44.15 L157.98,41.68 L160.22,41.68 L160.22,37.68 L163.91,37.68 L163.91,41.68 L166.56,41.68 Z M168.2,45.49 C168.804419,43.8018029 170.115532,42.461473 171.79,41.82 C172.702206,41.4695973 173.672903,41.296501 174.65,41.31 C175.630254,41.2976621 176.604009,41.4706987 177.52,41.82 C179.200543,42.4555785 180.516899,43.7975304 181.12,45.49 C181.457446,46.4259876 181.623433,47.415132 181.61,48.41 C181.624653,49.4017012 181.458611,50.3877831 181.12,51.32 C180.813822,52.1498136 180.336872,52.9061194 179.72,53.54 C179.097699,54.1665076 178.34719,54.6509271 177.52,54.96 C176.601359,55.297509 175.628585,55.4635923 174.65,55.45 C173.674518,55.4655779 172.704661,55.2994136 171.79,54.96 C170.970101,54.6481011 170.226693,54.163863 169.61,53.54 C168.992183,52.906864 168.515099,52.1503451 168.21,51.32 C167.870519,50.3880125 167.70445,49.4017693 167.72,48.41 C167.702262,47.41566 167.86489,46.4263377 168.2,45.49 L168.2,45.49 Z M171.55,49.99 C171.642863,50.4779525 171.822363,50.9453303 172.08,51.37 C172.323333,51.7825909 172.667409,52.1266674 173.08,52.37 C173.558666,52.6267727 174.09722,52.7510545 174.64,52.73 C175.185822,52.7494863 175.727197,52.6253493 176.21,52.37 C176.623134,52.127369 176.967369,51.7831339 177.21,51.37 C177.466299,50.9446755 177.645705,50.4775436 177.74,49.99 C177.846003,49.4733802 177.899608,48.9473827 177.9,48.42 C177.899868,47.8859883 177.846267,47.3533315 177.74,46.83 C177.648837,46.3415653 177.469222,45.8738904 177.21,45.45 C176.96112,45.0417395 176.61826,44.6988804 176.21,44.45 C175.731252,44.1821728 175.188233,44.0507414 174.64,44.07 C173.604185,44.0188308 172.622838,44.5363382 172.08,45.42 C171.819129,45.843076 171.639393,46.3110664 171.55,46.8 C171.444388,47.3234305 171.390794,47.8560218 171.389958,48.39 C171.388234,48.9307214 171.441847,49.4702023 171.55,50 L171.55,49.99 Z" fill="#B3B3B3" fill-rule="nonzero"></path>
        </g>
    </g>
</svg>
