
<svg viewBox="0 0 250 250" version="1.1" xmlns="http://www.w3.org/2000/svg" xmlns:xlink="http://www.w3.org/1999/xlink">
    <g id="Page-1" stroke="none" stroke-width="1" fill="none" fill-rule="evenodd">
        <g id="no-photo-dog">
            <rect id="Rectangle" fill="#DFDFDF" fill-rule="nonzero" opacity="0.4" x="0" y="0" width="250" height="250" rx="8"></rect>
            <g id="Group" opacity="0.6" transform="translate(214.000000, 29.000000)" fill="#FFFFFF" fill-rule="nonzero">
                <path d="M5.55,19 C6.54654765,22.012452 9.37717858,24.0343313 12.55,24 C15.7679384,23.8502052 18.5820936,21.7849148 19.69,18.76 C20.695418,15.7986279 19.6971245,12.5259963 17.21,10.63 C15.3898165,9.40114379 13.1551922,8.94774175 11,9.37 C6.73,9.93 4.31,15.13 5.55,19 L5.55,19 Z M0.71,5.76 C1.16517598,7.47726493 2.6583764,8.71758463 4.43,8.85 C8.43,9.09 10.28,3.41 6.58,1.53 C4,0.22 0,2.73 0.71,5.76 L0.71,5.76 Z M11.55,2 C11.150922,3.05619977 11.353617,4.24559904 12.08,5.11 C14.17,7.27 18.14,6.59 18.14,3.21 C18.14,-0.17 12.58,-1.22 11.55,2 L11.55,2 Z M20.89,9.65 C22.0455464,9.93028388 23.2488288,9.42457085 23.8572119,8.40294643 C24.465595,7.38132201 24.3369572,6.08244298 23.54,5.2 C22.7517687,4.41543094 21.5597651,4.2016199 20.5479891,4.66331959 C19.5362131,5.12501928 18.9165865,6.16552429 18.9926838,7.27505863 C19.0687811,8.38459297 19.8246633,9.33075886 20.89,9.65 L20.89,9.65 Z M22.39,14.8 C22.557316,15.2718392 22.8869486,15.6688161 23.32,15.92 C24.0811068,16.3252084 24.9833923,16.3694043 25.7804567,16.0405185 C26.577521,15.7116327 27.1860999,15.0440219 27.44,14.22 C28.01,11.89 25.57,10.54 23.61,11.45 C22.4226439,12.1043127 21.901483,13.5353693 22.39,14.8 L22.39,14.8 Z" id="Shape"></path>
            </g>
            <g id="Group" opacity="0.6" transform="translate(181.000000, 85.000000)" fill="#FFFFFF" fill-rule="nonzero">
                <path d="M5.35,19.16 C6.34654765,22.172452 9.17717858,24.1943313 12.35,24.16 C15.5679384,24.0102052 18.3820936,21.9449148 19.49,18.92 C20.495418,15.9586279 19.4971245,12.6859963 17.01,10.79 C15.1900654,9.5515422 12.9510638,9.09078301 10.79,9.51 C6.53,10.11 4.11,15.31 5.35,19.16 L5.35,19.16 Z M0.51,5.94 C0.977173726,7.64872232 2.47292406,8.875799 4.24,9 C8.24,9.24 10.09,3.56 6.39,1.68 C3.81,0.4 -0.16,2.91 0.51,5.94 L0.51,5.94 Z M11.35,2.13 C10.950922,3.18619977 11.153617,4.37559904 11.88,5.24 C13.97,7.4 17.94,6.72 17.94,3.34 C17.94,-0.04 12.39,-1 11.35,2.13 L11.35,2.13 Z M20.69,9.82 C21.8455464,10.1002839 23.0488288,9.59457085 23.6572119,8.57294643 C24.265595,7.55132201 24.1369572,6.25244298 23.34,5.37 C22.5517687,4.58543094 21.3597651,4.3716199 20.3479891,4.83331959 C19.3362131,5.29501928 18.7165865,6.33552429 18.7926838,7.44505863 C18.8687811,8.55459297 19.6246633,9.50075886 20.69,9.82 L20.69,9.82 Z M22.19,15 C22.357316,15.4718392 22.6869486,15.8688161 23.12,16.12 C23.8811068,16.5252084 24.7833923,16.5694043 25.5804567,16.2405185 C26.377521,15.9116327 26.9860999,15.2440219 27.24,14.42 C27.81,12.09 25.37,10.74 23.41,11.65 C22.2226439,12.3043127 21.701483,13.7353693 22.19,15 L22.19,15 Z" id="Shape"></path>
            </g>
            <g id="Group" opacity="0.6" transform="translate(214.000000, 141.000000)" fill="#FFFFFF" fill-rule="nonzero">
                <path d="M5.55,19.34 C6.54654765,22.352452 9.37717858,24.3743313 12.55,24.34 C15.7679384,24.1902052 18.5820936,22.1249148 19.69,19.1 C20.695418,16.1386279 19.6971245,12.8659963 17.21,10.97 C15.3900654,9.7315422 13.1510638,9.27078301 10.99,9.69 C6.73,10.29 4.31,15.49 5.55,19.34 L5.55,19.34 Z M0.71,6.12 C1.16517598,7.83726493 2.6583764,9.07758463 4.43,9.21 C8.43,9.45 10.28,3.77 6.58,1.89 C4,0.57 0,3.09 0.71,6.12 L0.71,6.12 Z M11.55,2.31 C11.150922,3.36619977 11.353617,4.55559904 12.08,5.42 C14.17,7.58 18.14,6.9 18.14,3.52 C18.14,0.14 12.58,-0.86 11.55,2.31 L11.55,2.31 Z M20.89,10 C22.0455464,10.2802839 23.2488288,9.77457085 23.8572119,8.75294643 C24.465595,7.73132201 24.3369572,6.43244298 23.54,5.55 C22.7517687,4.76543094 21.5597651,4.5516199 20.5479891,5.01331959 C19.5362131,5.47501928 18.9165865,6.51552429 18.9926838,7.62505863 C19.0687811,8.73459297 19.8246633,9.68075886 20.89,10 L20.89,10 Z M22.39,15.16 C22.557316,15.6318392 22.8869486,16.0288161 23.32,16.28 C24.0811068,16.6852084 24.9833923,16.7294043 25.7804567,16.4005185 C26.577521,16.0716327 27.1860999,15.4040219 27.44,14.58 C28.01,12.25 25.57,10.9 23.61,11.81 C22.4226439,12.4643127 21.901483,13.8953693 22.39,15.16 L22.39,15.16 Z" id="Shape"></path>
            </g>
            <g id="Group" opacity="0.6" transform="translate(181.000000, 197.000000)" fill="#FFFFFF" fill-rule="nonzero">
                <path d="M5.35,19.52 C6.34654765,22.532452 9.17717858,24.5543313 12.35,24.52 C15.5679384,24.3702052 18.3820936,22.3049148 19.49,19.28 C20.495418,16.3186279 19.4971245,13.0459963 17.01,11.15 C15.1900654,9.9115422 12.9510638,9.45078301 10.79,9.87 C6.53,10.47 4.11,15.67 5.35,19.52 L5.35,19.52 Z M0.51,6.3 C0.965175985,8.01726493 2.4583764,9.25758463 4.23,9.39 C8.23,9.63 10.08,3.95 6.38,2.07 C3.81,0.75 -0.16,3.27 0.51,6.3 Z M11.35,2.49 C10.950922,3.54619977 11.153617,4.73559904 11.88,5.6 C13.97,7.76 17.94,7.08 17.94,3.7 C17.94,0.32 12.39,-0.68 11.35,2.49 L11.35,2.49 Z M20.69,10.18 C21.8455464,10.4602839 23.0488288,9.95457085 23.6572119,8.93294643 C24.265595,7.91132201 24.1369572,6.61244298 23.34,5.73 C22.5517687,4.94543094 21.3597651,4.7316199 20.3479891,5.19331959 C19.3362131,5.65501928 18.7165865,6.69552429 18.7926838,7.80505863 C18.8687811,8.91459297 19.6246633,9.86075886 20.69,10.18 Z M22.19,15.34 C22.357316,15.8118392 22.6869486,16.2088161 23.12,16.46 C23.8811068,16.8652084 24.7833923,16.9094043 25.5804567,16.5805185 C26.377521,16.2516327 26.9860999,15.5840219 27.24,14.76 C27.81,12.43 25.37,11.08 23.41,11.99 C22.2226439,12.6443127 21.701483,14.0753693 22.19,15.34 L22.19,15.34 Z" id="Shape"></path>
            </g>
            <g id="Group" opacity="0.6" transform="translate(146.000000, 29.000000)" fill="#FFFFFF" fill-rule="nonzero">
                <path d="M5.24,19 C6.23654765,22.012452 9.06717858,24.0343313 12.24,24 C15.4579384,23.8502052 18.2720936,21.7849148 19.38,18.76 C20.385418,15.7986279 19.3871245,12.5259963 16.9,10.63 C15.0800654,9.3915422 12.8410638,8.93078301 10.68,9.35 C6.42,9.93 4,15.13 5.24,19 L5.24,19 Z M0.4,5.76 C0.855175985,7.47726493 2.3483764,8.71758463 4.12,8.85 C8.12,9.09 9.97,3.41 6.27,1.53 C3.7,0.22 -0.27,2.73 0.4,5.76 L0.4,5.76 Z M11.24,2 C10.840922,3.05619977 11.043617,4.24559904 11.77,5.11 C13.86,7.27 17.83,6.59 17.83,3.21 C17.83,-0.17 12.28,-1.22 11.24,2 L11.24,2 Z M20.58,9.65 C21.7355464,9.93028388 22.9388288,9.42457085 23.5472119,8.40294643 C24.155595,7.38132201 24.0269572,6.08244298 23.23,5.2 C22.4417687,4.41543094 21.2497651,4.2016199 20.2379891,4.66331959 C19.2262131,5.12501928 18.6065865,6.16552429 18.6826838,7.27505863 C18.7587811,8.38459297 19.5146633,9.33075886 20.58,9.65 L20.58,9.65 Z M22.08,14.8 C22.247316,15.2718392 22.5769486,15.6688161 23.01,15.92 C23.7711068,16.3252084 24.6733923,16.3694043 25.4704567,16.0405185 C26.267521,15.7116327 26.8760999,15.0440219 27.13,14.22 C27.7,11.89 25.26,10.54 23.3,11.45 C22.1126439,12.1043127 21.591483,13.5353693 22.08,14.8 L22.08,14.8 Z" id="Shape"></path>
            </g>
            <g id="Group" opacity="0.6" transform="translate(113.000000, 85.000000)" fill="#FFFFFF" fill-rule="nonzero">
                <path d="M5,19.16 C5.99654765,22.172452 8.82717858,24.1943313 12,24.16 C15.2179384,24.0102052 18.0320936,21.9449148 19.14,18.92 C20.145418,15.9586279 19.1471245,12.6859963 16.66,10.79 C14.8400654,9.5515422 12.6010638,9.09078301 10.44,9.51 C6.22,10.11 3.81,15.31 5,19.16 L5,19.16 Z M0.21,5.94 C0.675947704,7.64545373 2.16670095,8.8717185 3.93,9 C7.93,9.24 9.78,3.56 6.08,1.68 C3.5,0.4 -0.47,2.91 0.21,5.94 L0.21,5.94 Z M11,2.13 C10.600922,3.18619977 10.803617,4.37559904 11.53,5.24 C13.62,7.4 17.59,6.72 17.59,3.34 C17.59,-0.04 12.08,-1 11,2.13 Z M20.38,9.82 C21.5302725,10.0815056 22.7175777,9.56889452 23.3160699,8.5523715 C23.9145621,7.53584847 23.7867479,6.24894238 23,5.37 C22.2117687,4.58543094 21.0197651,4.3716199 20.0079891,4.83331959 C18.9962131,5.29501928 18.3765865,6.33552429 18.4526838,7.44505863 C18.5287811,8.55459297 19.2846633,9.50075886 20.35,9.82 L20.38,9.82 Z M21.89,15 C22.057316,15.4718392 22.3869486,15.8688161 22.82,16.12 C23.5811068,16.5252084 24.4833923,16.5694043 25.2804567,16.2405185 C26.077521,15.9116327 26.6860999,15.2440219 26.94,14.42 C27.51,12.09 25.07,10.74 23.11,11.65 C21.9226439,12.3043127 21.401483,13.7353693 21.89,15 L21.89,15 Z" id="Shape"></path>
            </g>
            <g id="Group" opacity="0.6" transform="translate(146.000000, 141.000000)" fill="#FFFFFF" fill-rule="nonzero">
                <path d="M5.24,19.34 C6.23654765,22.352452 9.06717858,24.3743313 12.24,24.34 C15.4579384,24.1902052 18.2720936,22.1249148 19.38,19.1 C20.385418,16.1386279 19.3871245,12.8659963 16.9,10.97 C15.0800654,9.7315422 12.8410638,9.27078301 10.68,9.69 C6.42,10.29 4,15.49 5.24,19.34 L5.24,19.34 Z M0.4,6.12 C0.855175985,7.83726493 2.3483764,9.07758463 4.12,9.21 C8.12,9.45 9.97,3.77 6.27,1.89 C3.7,0.57 -0.27,3.09 0.4,6.12 L0.4,6.12 Z M11.24,2.31 C10.840922,3.36619977 11.043617,4.55559904 11.77,5.42 C13.86,7.58 17.83,6.9 17.83,3.52 C17.83,0.14 12.28,-0.86 11.24,2.31 Z M20.58,10 C21.7355464,10.2802839 22.9388288,9.77457085 23.5472119,8.75294643 C24.155595,7.73132201 24.0269572,6.43244298 23.23,5.55 C22.4417687,4.76543094 21.2497651,4.5516199 20.2379891,5.01331959 C19.2262131,5.47501928 18.6065865,6.51552429 18.6826838,7.62505863 C18.7587811,8.73459297 19.5146633,9.68075886 20.58,10 Z M22.08,15.16 C22.247316,15.6318392 22.5769486,16.0288161 23.01,16.28 C23.7711068,16.6852084 24.6733923,16.7294043 25.4704567,16.4005185 C26.267521,16.0716327 26.8760999,15.4040219 27.13,14.58 C27.7,12.25 25.26,10.9 23.3,11.81 C22.1126439,12.4643127 21.591483,13.8953693 22.08,15.16 L22.08,15.16 Z" id="Shape"></path>
            </g>
            <g id="Group" opacity="0.6" transform="translate(113.000000, 197.000000)" fill="#FFFFFF" fill-rule="nonzero">
                <path d="M5,19.52 C5.99654765,22.532452 8.82717858,24.5543313 12,24.52 C15.2179384,24.3702052 18.0320936,22.3049148 19.14,19.28 C20.145418,16.3186279 19.1471245,13.0459963 16.66,11.15 C14.8400654,9.9115422 12.6010638,9.45078301 10.44,9.87 C6.22,10.47 3.81,15.67 5,19.52 L5,19.52 Z M0.21,6.3 C0.665175985,8.01726493 2.1583764,9.25758463 3.93,9.39 C7.93,9.63 9.78,3.95 6.08,2.07 C3.5,0.75 -0.47,3.27 0.21,6.3 Z M11,2.49 C10.600922,3.54619977 10.803617,4.73559904 11.53,5.6 C13.62,7.76 17.59,7.08 17.59,3.7 C17.59,0.32 12.08,-0.68 11,2.49 L11,2.49 Z M20.38,10.18 C21.5355464,10.4602839 22.7388288,9.95457085 23.3472119,8.93294643 C23.955595,7.91132201 23.8269572,6.61244298 23.03,5.73 C22.2417687,4.94543094 21.0497651,4.7316199 20.0379891,5.19331959 C19.0262131,5.65501928 18.4065865,6.69552429 18.4826838,7.80505863 C18.5587811,8.91459297 19.3146633,9.86075886 20.38,10.18 Z M21.89,15.34 C22.057316,15.8118392 22.3869486,16.2088161 22.82,16.46 C23.5811068,16.8652084 24.4833923,16.9094043 25.2804567,16.5805185 C26.077521,16.2516327 26.6860999,15.5840219 26.94,14.76 C27.51,12.43 25.07,11.08 23.11,11.99 C21.9226439,12.6443127 21.401483,14.0753693 21.89,15.34 L21.89,15.34 Z" id="Shape"></path>
            </g>
            <g id="Group" opacity="0.6" transform="translate(79.000000, 29.000000)" fill="#FFFFFF" fill-rule="nonzero">
                <path d="M5.21,19 C6.20654765,22.012452 9.03717858,24.0343313 12.21,24 C15.4279384,23.8502052 18.2420936,21.7849148 19.35,18.76 C20.355418,15.7986279 19.3571245,12.5259963 16.87,10.63 C15.0500654,9.3915422 12.8110638,8.93078301 10.65,9.35 C6.39,9.93 4,15.13 5.21,19 L5.21,19 Z M0.37,5.76 C0.825175985,7.47726493 2.3183764,8.71758463 4.09,8.85 C8.09,9.09 9.94,3.41 6.24,1.53 C3.67,0.22 -0.31,2.73 0.37,5.76 L0.37,5.76 Z M11.21,2 C10.810922,3.05619977 11.013617,4.24559904 11.74,5.11 C13.83,7.27 17.8,6.59 17.8,3.21 C17.8,-0.17 12.24,-1.22 11.21,2 Z M20.55,9.65 C21.7055464,9.93028388 22.9088288,9.42457085 23.5172119,8.40294643 C24.125595,7.38132201 23.9969572,6.08244298 23.2,5.2 C22.4117687,4.41543094 21.2197651,4.2016199 20.2079891,4.66331959 C19.1962131,5.12501928 18.5765865,6.16552429 18.6526838,7.27505863 C18.7287811,8.38459297 19.4846633,9.33075886 20.55,9.65 L20.55,9.65 Z M22.05,14.8 C22.217316,15.2718392 22.5469486,15.6688161 22.98,15.92 C23.7411068,16.3252084 24.6433923,16.3694043 25.4404567,16.0405185 C26.237521,15.7116327 26.8460999,15.0440219 27.1,14.22 C27.67,11.89 25.23,10.54 23.27,11.45 C22.0826439,12.1043127 21.561483,13.5353693 22.05,14.8 L22.05,14.8 Z" id="Shape"></path>
            </g>
            <g id="Group" opacity="0.6" transform="translate(46.000000, 85.000000)" fill="#FFFFFF" fill-rule="nonzero">
                <path d="M5,19.16 C5.99654765,22.172452 8.82717858,24.1943313 12,24.16 C15.2164456,24.0429494 18.0495351,22.0097447 19.19,19 C20.195418,16.0386279 19.1971245,12.7659963 16.71,10.87 C14.8900654,9.6315422 12.6510638,9.17078301 10.49,9.59 C6.19,10.11 3.77,15.31 5,19.16 L5,19.16 Z M0.17,5.94 C0.637173726,7.64872232 2.13292406,8.875799 3.9,9 C7.9,9.24 9.75,3.56 6.05,1.68 C3.47,0.4 -0.5,2.91 0.17,5.94 L0.17,5.94 Z M11,2.13 C10.600922,3.18619977 10.803617,4.37559904 11.53,5.24 C13.62,7.4 17.59,6.72 17.59,3.34 C17.59,-0.04 12,-1 11,2.13 Z M20.35,9.82 C21.5055464,10.1002839 22.7088288,9.59457085 23.3172119,8.57294643 C23.925595,7.55132201 23.7969572,6.25244298 23,5.37 C22.2117687,4.58543094 21.0197651,4.3716199 20.0079891,4.83331959 C18.9962131,5.29501928 18.3765865,6.33552429 18.4526838,7.44505863 C18.5287811,8.55459297 19.2846633,9.50075886 20.35,9.82 L20.35,9.82 Z M21.85,15 C22.017316,15.4718392 22.3469486,15.8688161 22.78,16.12 C23.5411068,16.5252084 24.4433923,16.5694043 25.2404567,16.2405185 C26.037521,15.9116327 26.6460999,15.2440219 26.9,14.42 C27.47,12.09 25.03,10.74 23.07,11.65 C21.8826439,12.3043127 21.361483,13.7353693 21.85,15 L21.85,15 Z" id="Shape"></path>
            </g>
            <g id="Group" opacity="0.6" transform="translate(79.000000, 141.000000)" fill="#FFFFFF" fill-rule="nonzero">
                <path d="M5.21,19.34 C6.20654765,22.352452 9.03717858,24.3743313 12.21,24.34 C15.4279384,24.1902052 18.2420936,22.1249148 19.35,19.1 C20.3497961,16.1559785 19.3695677,12.9019415 16.91,11 C15.0900654,9.7615422 12.8510638,9.30078301 10.69,9.72 C6.39,10.29 4,15.49 5.21,19.34 L5.21,19.34 Z M0.37,6.12 C0.825175985,7.83726493 2.3183764,9.07758463 4.09,9.21 C8.09,9.45 9.94,3.77 6.24,1.89 C3.67,0.57 -0.31,3.09 0.37,6.12 L0.37,6.12 Z M11.21,2.31 C10.810922,3.36619977 11.013617,4.55559904 11.74,5.42 C13.83,7.58 17.8,6.9 17.8,3.52 C17.8,0.14 12.24,-0.86 11.21,2.31 Z M20.55,10 C21.7055464,10.2802839 22.9088288,9.77457085 23.5172119,8.75294643 C24.125595,7.73132201 23.9969572,6.43244298 23.2,5.55 C22.4117687,4.76543094 21.2197651,4.5516199 20.2079891,5.01331959 C19.1962131,5.47501928 18.5765865,6.51552429 18.6526838,7.62505863 C18.7287811,8.73459297 19.4846633,9.68075886 20.55,10 L20.55,10 Z M22.05,15.16 C22.217316,15.6318392 22.5469486,16.0288161 22.98,16.28 C23.7411068,16.6852084 24.6433923,16.7294043 25.4404567,16.4005185 C26.237521,16.0716327 26.8460999,15.4040219 27.1,14.58 C27.67,12.25 25.23,10.9 23.27,11.81 C22.0826439,12.4643127 21.561483,13.8953693 22.05,15.16 L22.05,15.16 Z" id="Shape"></path>
            </g>
            <g id="Group" opacity="0.6" transform="translate(46.000000, 197.000000)" fill="#FFFFFF" fill-rule="nonzero">
                <path d="M5,19.52 C5.99654765,22.532452 8.82717858,24.5543313 12,24.52 C15.2179384,24.3702052 18.0320936,22.3049148 19.14,19.28 C20.145418,16.3186279 19.1471245,13.0459963 16.66,11.15 C14.8400654,9.9115422 12.6010638,9.45078301 10.44,9.87 C6.19,10.47 3.77,15.67 5,19.52 L5,19.52 Z M0.17,6.3 C0.625175985,8.01726493 2.1183764,9.25758463 3.89,9.39 C7.89,9.63 9.74,3.95 6.04,2.07 C3.47,0.75 -0.5,3.27 0.17,6.3 Z M11,2.49 C10.600922,3.54619977 10.803617,4.73559904 11.53,5.6 C13.62,7.76 17.59,7.08 17.59,3.7 C17.59,0.32 12,-0.68 11,2.49 Z M20.35,10.18 C21.5055464,10.4602839 22.7088288,9.95457085 23.3172119,8.93294643 C23.925595,7.91132201 23.7969572,6.61244298 23,5.73 C22.2117687,4.94543094 21.0197651,4.7316199 20.0079891,5.19331959 C18.9962131,5.65501928 18.3765865,6.69552429 18.4526838,7.80505863 C18.5287811,8.91459297 19.2846633,9.86075886 20.35,10.18 L20.35,10.18 Z M21.85,15.34 C22.017316,15.8118392 22.3469486,16.2088161 22.78,16.46 C23.5411068,16.8652084 24.4433923,16.9094043 25.2404567,16.5805185 C26.037521,16.2516327 26.6460999,15.5840219 26.9,14.76 C27.47,12.43 25.03,11.08 23.07,11.99 C21.8826439,12.6443127 21.361483,14.0753693 21.85,15.34 L21.85,15.34 Z" id="Shape"></path>
            </g>
            <g id="Group" opacity="0.6" transform="translate(10.000000, 29.000000)" fill="#FFFFFF" fill-rule="nonzero">
                <path d="M5.9,19 C6.89654765,22.012452 9.72717858,24.0343313 12.9,24 C16.1179384,23.8502052 18.9320936,21.7849148 20.04,18.76 C21.045418,15.7986279 20.0471245,12.5259963 17.56,10.63 C15.7400654,9.3915422 13.5010638,8.93078301 11.34,9.35 C7.08,9.93 4.66,15.13 5.9,19 L5.9,19 Z M1.06,5.76 C1.51517598,7.47726493 3.0083764,8.71758463 4.78,8.85 C8.78,9.09 10.63,3.41 6.93,1.53 C4.36,0.22 0.39,2.73 1.06,5.76 L1.06,5.76 Z M11.9,2 C11.500922,3.05619977 11.703617,4.24559904 12.43,5.11 C14.52,7.27 18.49,6.59 18.49,3.21 C18.49,-0.17 12.94,-1.22 11.9,2 Z M21.24,9.65 C22.3955464,9.93028388 23.5988288,9.42457085 24.2072119,8.40294643 C24.815595,7.38132201 24.6869572,6.08244298 23.89,5.2 C23.1017687,4.41543094 21.9097651,4.2016199 20.8979891,4.66331959 C19.8862131,5.12501928 19.2665865,6.16552429 19.3426838,7.27505863 C19.4187811,8.38459297 20.1746633,9.33075886 21.24,9.65 L21.24,9.65 Z M22.74,14.8 C22.907316,15.2718392 23.2369486,15.6688161 23.67,15.92 C24.4311068,16.3252084 25.3333923,16.3694043 26.1304567,16.0405185 C26.927521,15.7116327 27.5360999,15.0440219 27.79,14.22 C28.36,11.89 25.92,10.54 23.96,11.45 C22.7726439,12.1043127 22.251483,13.5353693 22.74,14.8 L22.74,14.8 Z" id="Shape"></path>
            </g>
            <g id="Group" opacity="0.6" transform="translate(10.000000, 141.000000)" fill="#FFFFFF" fill-rule="nonzero">
                <path d="M5.9,19.34 C6.89654765,22.352452 9.72717858,24.3743313 12.9,24.34 C16.1179384,24.1902052 18.9320936,22.1249148 20.04,19.1 C21.0397961,16.1559785 20.0595677,12.9019415 17.6,11 C15.7800654,9.7615422 13.5410638,9.30078301 11.38,9.72 C7.08,10.29 4.66,15.49 5.9,19.34 L5.9,19.34 Z M1.06,6.12 C1.51517598,7.83726493 3.0083764,9.07758463 4.78,9.21 C8.78,9.45 10.63,3.77 6.93,1.89 C4.36,0.57 0.39,3.09 1.06,6.12 L1.06,6.12 Z M11.9,2.31 C11.500922,3.36619977 11.703617,4.55559904 12.43,5.42 C14.52,7.58 18.49,6.9 18.49,3.52 C18.49,0.14 12.94,-0.86 11.9,2.31 Z M21.24,10 C22.3955464,10.2802839 23.5988288,9.77457085 24.2072119,8.75294643 C24.815595,7.73132201 24.6869572,6.43244298 23.89,5.55 C23.1017687,4.76543094 21.9097651,4.5516199 20.8979891,5.01331959 C19.8862131,5.47501928 19.2665865,6.51552429 19.3426838,7.62505863 C19.4187811,8.73459297 20.1746633,9.68075886 21.24,10 Z M22.74,15.16 C22.907316,15.6318392 23.2369486,16.0288161 23.67,16.28 C24.4311068,16.6852084 25.3333923,16.7294043 26.1304567,16.4005185 C26.927521,16.0716327 27.5360999,15.4040219 27.79,14.58 C28.36,12.25 25.92,10.9 23.96,11.81 C22.7726439,12.4643127 22.251483,13.8953693 22.74,15.16 L22.74,15.16 Z" id="Shape"></path>
            </g>
            <path d="M124.9,189.51 C117.9,189.51 109.23,185.87 103.13,172.51 M124.9,189.51 C131.9,189.51 139.99,185.71 146.67,172.51" id="Shape"></path>
            <path d="M124.9,189.51 C117.9,189.51 109.23,185.87 103.13,172.51 M124.9,189.51 C131.9,189.51 139.99,185.71 146.67,172.51" id="Shape" stroke="#B3B3B3" stroke-width="2.41" stroke-linecap="round"></path>
            <path d="M125,157.73 L126.44,173.27 C139.7,177.11 150.5,173.06 155.64,160.53 C165.76,135.89 148.64,104.02 148.64,104.02 C156.64,119.73 157.14,120.69 160.2,129.68 C162.2,135.68 166.2,138.9 170.86,138.19 C190.77,135.14 186.94,102.81 165.14,85.9 C158,81.19 147.59,76.78 139,87.08 C133.73,84.69 133.1,82.75 125,82.75 C116.45,82.75 116.27,84.68 111,87.08 C102.41,76.78 92,81.19 84.81,85.9 C63,102.81 59.18,135.14 79.1,138.19 C83.75,138.9 87.72,135.68 89.76,129.68 C92.82,120.68 93.31,119.68 101.33,104.02 C101.33,104.02 84.23,135.9 94.33,160.53 C99.48,173.06 110.27,177.11 123.53,173.27 L125,157.73 Z" id="Path" stroke="#B3B3B3" stroke-width="2.41" stroke-linecap="round"></path>
            <ellipse id="Oval" fill="#B3B3B3" fill-rule="nonzero" cx="124.97" cy="153.5" rx="16.07" ry="8.22"></ellipse>
            <path d="M121.8,114.78 C121.8,119.37 119.51,123.1 116.69,123.1 C113.87,123.1 111.58,119.38 111.58,114.78 C111.58,110.18 113.86,106.46 116.69,106.46 C119.52,106.46 121.8,110.19 121.8,114.78 Z" id="Path" fill="#B3B3B3" fill-rule="nonzero"></path>
            <ellipse id="Oval" fill="#B3B3B3" fill-rule="nonzero" cx="133.07" cy="114.78" rx="5.11" ry="8.32"></ellipse>
            <path d="M121.8,114.78 C121.8,119.37 119.51,123.1 116.69,123.1 C113.87,123.1 111.58,119.38 111.58,114.78 C111.58,110.18 113.86,106.46 116.69,106.46 C119.52,106.46 121.8,110.19 121.8,114.78 Z" id="Path" fill="#B3B3B3" fill-rule="nonzero" opacity="0.2"></path>
            <ellipse id="Oval" fill="#B3B3B3" fill-rule="nonzero" opacity="0.2" cx="133.07" cy="114.78" rx="5.11" ry="8.32"></ellipse>
            <path d="M124.88,183.350014 C131.75,183.350014 136.54,177.92 137.81,173.75 C135.28,173.93 129.03,174.01 124.88,172.02 C120.72,174.02 114.48,173.94 111.95,173.75 C113.22,177.92 118,183.36 124.88,183.350014 Z M72.86,36.56 L80.6,49 L80.65,49 L80.65,36.56 L84.47,36.56 L84.47,55.12 L80.4,55.12 L72.67,42.69 L72.62,42.69 L72.62,55.12 L68.8,55.12 L68.8,36.56 L72.86,36.56 Z M87.65,45.49 C88.2544189,43.8018029 89.5655317,42.461473 91.24,41.82 C92.1522059,41.4695973 93.1229026,41.296501 94.1,41.31 C95.0802542,41.2976621 96.0540092,41.4706987 96.97,41.82 C98.6505428,42.4555785 99.9668989,43.7975304 100.57,45.49 C100.907872,46.4258761 101.073871,47.4150985 101.06,48.41 C101.0751,49.4017352 100.909045,50.3878975 100.57,51.32 C100.26409,52.1499459 99.7871071,52.9063046 99.17,53.54 C98.5603229,54.1773481 97.8200882,54.6753862 97,55 C96.0813589,55.337509 95.1085852,55.5035923 94.13,55.49 C93.1411132,55.5105893 92.1572253,55.3443462 91.23,55 C90.4102423,54.687823 89.6668903,54.2036212 89.05,53.58 C88.4326572,52.9464904 87.9556407,52.1900785 87.65,51.36 C87.310737,50.4279549 87.1446754,49.4417523 87.16,48.45 C87.1410415,47.4416774 87.3071206,46.4384238 87.65,45.49 L87.65,45.49 Z M91,50 C91.0932771,50.4878344 91.2727498,50.9551407 91.53,51.38 C91.7733326,51.7925909 92.1174091,52.1366674 92.53,52.38 C93.0086656,52.6367727 93.5472204,52.7610545 94.09,52.74 C94.6358223,52.7594863 95.1771973,52.6353493 95.66,52.38 C96.0734083,52.1377239 96.4177239,51.7934083 96.66,51.38 C96.9240673,50.9564318 97.1103275,50.4890879 97.21,50 C97.3157351,49.4833392 97.3693372,48.9573688 97.37,48.43 C97.3694688,47.8960084 97.3158721,47.3633913 97.21,46.84 C97.1206069,46.3510664 96.9408714,45.883076 96.68,45.46 C96.4311196,45.0517395 96.0882605,44.7088804 95.68,44.46 C95.2012525,44.1921728 94.6582333,44.0607414 94.11,44.08 C93.074185,44.0288308 92.0928377,44.5463382 91.55,45.43 C91.279784,45.8576873 91.0931516,46.3327517 91,46.83 C90.8941279,47.3533913 90.8405312,47.8860084 90.84,48.42 C90.84,48.9507108 90.893597,49.480065 91,50 L91,50 Z M119.39,36.56 C120.413896,36.5298095 121.4336,36.7031593 122.39,37.07 C123.146678,37.3649563 123.829404,37.8223828 124.39,38.41 C124.89616,38.9550223 125.278254,39.603218 125.51,40.31 C125.979493,41.742513 125.979493,43.287487 125.51,44.72 C125.280447,45.4307366 124.898177,46.082645 124.39,46.63 C123.829404,47.2176172 123.146678,47.6750437 122.39,47.97 C121.4336,48.3368407 120.413896,48.5101905 119.39,48.48 L115.1,48.48 L115.1,55.14 L111,55.14 L111,36.56 L119.39,36.56 Z M118.27,45.3 C118.721937,45.3024407 119.173355,45.2690024 119.62,45.2 C120.022249,45.14147 120.409368,45.0056389 120.76,44.8 C121.093335,44.5952207 121.366037,44.30526 121.55,43.96 C121.948553,43.0483216 121.948553,42.0116784 121.55,41.1 C121.366434,40.7544548 121.093644,40.4643996 120.76,40.26 C120.409368,40.0543611 120.022249,39.91853 119.62,39.86 C119.173355,39.7909976 118.721937,39.7575593 118.27,39.76 L115.1,39.76 L115.1,45.32 L118.27,45.3 Z M131.43,36.56 L131.43,43.56 L131.51,43.56 C131.926748,42.8298248 132.549315,42.2385596 133.3,41.86 C133.960169,41.5228824 134.688827,41.3415731 135.43,41.33 C136.258478,41.3013842 137.084407,41.4373395 137.86,41.73 C138.449784,41.9649432 138.96718,42.3512659 139.36,42.85 C139.742505,43.3657338 140.005521,43.9600823 140.13,44.59 C140.28328,45.3401529 140.357022,46.1043794 140.35,46.87 L140.35,55.14 L136.66,55.14 L136.66,47.53 C136.716465,46.671353 136.536623,45.8136447 136.14,45.05 C135.717305,44.4618469 135.009654,44.1481853 134.29,44.23 C133.460187,44.1574681 132.646969,44.4932003 132.11,45.13 C131.573712,46.0336965 131.335782,47.0833888 131.43,48.13 L131.43,55.13 L127.74,55.13 L127.74,36.56 L131.43,36.56 Z M143.16,45.49 C143.764419,43.8018029 145.075532,42.461473 146.75,41.82 C147.662206,41.4695973 148.632903,41.296501 149.61,41.31 C150.590254,41.2976621 151.564009,41.4706987 152.48,41.82 C154.160543,42.4555785 155.476899,43.7975304 156.08,45.49 C156.417872,46.4258761 156.583871,47.4150985 156.57,48.41 C156.5851,49.4017352 156.419045,50.3878975 156.08,51.32 C155.77409,52.1499459 155.297107,52.9063046 154.68,53.54 C154.057699,54.1665076 153.30719,54.6509271 152.48,54.96 C151.561359,55.297509 150.588585,55.4635923 149.61,55.45 C148.634518,55.4655779 147.664661,55.2994136 146.75,54.96 C145.930242,54.647823 145.18689,54.1636212 144.57,53.54 C143.952893,52.9063046 143.47591,52.1499459 143.17,51.32 C142.830955,50.3878975 142.6649,49.4017352 142.68,48.41 C142.662923,47.4157082 142.825532,46.4265036 143.16,45.49 L143.16,45.49 Z M146.51,49.99 C146.602863,50.4779525 146.782363,50.9453303 147.04,51.37 C147.283333,51.7825909 147.627409,52.1266674 148.04,52.37 C148.517788,52.6290996 149.05699,52.7535308 149.6,52.73 C150.145822,52.7494863 150.687197,52.6253493 151.17,52.37 C151.583408,52.1277239 151.927724,51.7834083 152.17,51.37 C152.426867,50.9449531 152.606313,50.4777174 152.7,49.99 C152.80547,49.4732986 152.859069,48.947355 152.86,48.42 C152.859206,47.8860218 152.805612,47.3534305 152.7,46.83 C152.609272,46.3414422 152.429628,45.8736902 152.17,45.45 C151.92112,45.0417395 151.57826,44.6988804 151.17,44.45 C150.691252,44.1821728 150.148233,44.0507414 149.6,44.07 C148.543971,44.009933 147.542059,44.5417171 147,45.45 C146.739129,45.873076 146.559393,46.3410664 146.47,46.83 C146.363733,47.3533315 146.310132,47.8859883 146.31,48.42 C146.322862,48.9520901 146.389874,49.4814875 146.51,50 L146.51,49.99 Z M166.14,41.68 L166.14,44.15 L163.44,44.15 L163.44,50.8 C163.305447,51.2417117 163.425362,51.721624 163.751869,52.0481311 C164.078376,52.3746383 164.558288,52.4945533 165,52.36 L165.6,52.36 C165.784709,52.3438467 165.968343,52.3171364 166.15,52.28 L166.15,55.14 C165.818875,55.1925964 165.484983,55.2259855 165.15,55.2400129 L164.03,55.2400129 C163.487749,55.2408392 162.946209,55.2007251 162.41,55.12 C161.935168,55.0525438 161.47723,54.8965056 161.06,54.66 C160.663404,54.4222531 160.34393,54.0749997 160.14,53.66 C159.892888,53.1498277 159.776073,52.5863633 159.8,52.02 L159.8,44.15 L157.56,44.15 L157.56,41.68 L159.8,41.68 L159.8,37.68 L163.49,37.68 L163.49,41.68 L166.14,41.68 Z M167.78,45.49 C168.384419,43.8018029 169.695532,42.461473 171.37,41.82 C172.282206,41.4695973 173.252903,41.296501 174.23,41.31 C175.210235,41.2979024 176.183945,41.4709311 177.1,41.82 C178.780543,42.4555785 180.096899,43.7975304 180.7,45.49 C181.037872,46.4258761 181.203871,47.4150985 181.19,48.41 C181.2051,49.4017352 181.039045,50.3878975 180.7,51.32 C180.39409,52.1499459 179.917107,52.9063046 179.3,53.54 C178.677699,54.1665076 177.92719,54.6509271 177.1,54.96 C176.181359,55.297509 175.208585,55.4635923 174.23,55.45 C173.254518,55.4655779 172.284661,55.2994136 171.37,54.96 C170.550101,54.6481011 169.806693,54.163863 169.19,53.54 C168.572657,52.9064904 168.095641,52.1500785 167.79,51.32 C167.450519,50.3880125 167.28445,49.4017693 167.3,48.41 C167.282262,47.41566 167.44489,46.4263377 167.78,45.49 L167.78,45.49 Z M171.13,49.99 C171.223687,50.4777174 171.403133,50.9449531 171.66,51.37 C171.903333,51.7825909 172.247409,52.1266674 172.66,52.37 C173.138666,52.6267727 173.67722,52.7510545 174.22,52.73 C174.765822,52.7494863 175.307197,52.6253493 175.79,52.37 C176.203134,52.127369 176.547369,51.7831339 176.79,51.37 C177.04725,50.9451407 177.226723,50.4778344 177.32,49.99 C177.426003,49.4733802 177.479608,48.9473827 177.48,48.42 C177.479868,47.8859883 177.426267,47.3533315 177.32,46.83 C177.230607,46.3410664 177.050871,45.873076 176.79,45.45 C176.54112,45.0417395 176.19826,44.6988804 175.79,44.45 C175.311252,44.1821728 174.768233,44.0507414 174.22,44.07 C173.184185,44.0188308 172.202838,44.5363382 171.66,45.42 C171.400372,45.8436902 171.220728,46.3114422 171.13,46.8 C171.024388,47.3234305 170.970794,47.8560218 170.97,48.39 C170.971523,48.9310647 171.028487,49.4705491 171.14,50 L171.13,49.99 Z" id="Shape" fill="#B3B3B3" fill-rule="nonzero"></path>
        </g>
    </g>
</svg>
