<svg id="Layer_1" data-name="Layer 1" xmlns="http://www.w3.org/2000/svg" viewBox="0 0 250 250"><defs><style>.cls-1{fill:#dfdfdf;opacity:.4}.cls-2{opacity:.6}.cls-3{fill:#fff}.cls-4{fill:#b3b3b3}.cls-5{fill:none;stroke:#b3b3b3;stroke-linecap:round;stroke-linejoin:round;stroke-width:2.57px}</style></defs><title>X_NoPhoto_outlined</title><rect class="cls-1" width="250" height="250" rx="8" ry="8"/><g class="cls-2"><path class="cls-3" d="M219.55 48a7.29 7.29 0 0 0 7 5 8 8 0 0 0 7.14-5.24 7.28 7.28 0 0 0-2.48-8.13 8.26 8.26 0 0 0-6.21-1.26c-4.27.56-6.69 5.76-5.45 9.63zM214.71 34.76a4.17 4.17 0 0 0 3.72 3.09c4 .24 5.85-5.44 2.15-7.32-2.58-1.31-6.58 1.2-5.87 4.23zM225.55 31a3.12 3.12 0 0 0 .53 3.11c2.09 2.16 6.06 1.48 6.06-1.9s-5.56-4.43-6.59-1.21zM234.89 38.65a2.71 2.71 0 0 0 2.65-4.45 2.67 2.67 0 1 0-2.65 4.45zM236.39 43.8a2.11 2.11 0 0 0 .93 1.12 2.89 2.89 0 0 0 4.12-1.7c.57-2.33-1.87-3.68-3.83-2.77a2.71 2.71 0 0 0-1.22 3.35z"/></g><g class="cls-2"><path class="cls-3" d="M186.35 104.16a7.29 7.29 0 0 0 7 5 8 8 0 0 0 7.14-5.24 7.28 7.28 0 0 0-2.48-8.13 8.26 8.26 0 0 0-6.22-1.28c-4.26.6-6.68 5.8-5.44 9.65zM181.51 90.94a4.17 4.17 0 0 0 3.73 3.06c4 .24 5.85-5.44 2.15-7.32-2.58-1.28-6.55 1.23-5.88 4.26zM192.35 87.13a3.12 3.12 0 0 0 .53 3.11c2.09 2.16 6.06 1.48 6.06-1.9s-5.55-4.34-6.59-1.21zM201.69 94.82a2.71 2.71 0 0 0 2.65-4.45 2.67 2.67 0 1 0-2.65 4.45zM203.19 100a2.11 2.11 0 0 0 .93 1.12 2.89 2.89 0 0 0 4.12-1.7c.57-2.33-1.87-3.68-3.83-2.77a2.71 2.71 0 0 0-1.22 3.35z"/></g><g class="cls-2"><path class="cls-3" d="M219.55 160.34a7.29 7.29 0 0 0 7 5 8 8 0 0 0 7.14-5.24 7.28 7.28 0 0 0-2.48-8.13 8.26 8.26 0 0 0-6.22-1.28c-4.26.6-6.68 5.8-5.44 9.65zM214.71 147.12a4.17 4.17 0 0 0 3.72 3.09c4 .24 5.85-5.44 2.15-7.32-2.58-1.32-6.58 1.2-5.87 4.23zM225.55 143.31a3.12 3.12 0 0 0 .53 3.11c2.09 2.16 6.06 1.48 6.06-1.9s-5.56-4.38-6.59-1.21zM234.89 151a2.71 2.71 0 0 0 2.65-4.45 2.67 2.67 0 1 0-2.65 4.45zM236.39 156.16a2.11 2.11 0 0 0 .93 1.12 2.89 2.89 0 0 0 4.12-1.7c.57-2.33-1.87-3.68-3.83-2.77a2.71 2.71 0 0 0-1.22 3.35z"/></g><g class="cls-2"><path class="cls-3" d="M186.35 216.52a7.29 7.29 0 0 0 7 5 8 8 0 0 0 7.14-5.24 7.28 7.28 0 0 0-2.48-8.13 8.26 8.26 0 0 0-6.22-1.28c-4.26.6-6.68 5.8-5.44 9.65zM181.51 203.3a4.17 4.17 0 0 0 3.72 3.09c4 .24 5.85-5.44 2.15-7.32-2.57-1.32-6.54 1.2-5.87 4.23zM192.35 199.49a3.12 3.12 0 0 0 .53 3.11c2.09 2.16 6.06 1.48 6.06-1.9s-5.55-4.38-6.59-1.21zM201.69 207.18a2.71 2.71 0 0 0 2.65-4.45 2.67 2.67 0 1 0-2.65 4.45zM203.19 212.34a2.11 2.11 0 0 0 .93 1.12 2.89 2.89 0 0 0 4.12-1.7c.57-2.33-1.87-3.68-3.83-2.77a2.71 2.71 0 0 0-1.22 3.35z"/></g><g class="cls-2"><path class="cls-3" d="M151.24 48a7.29 7.29 0 0 0 7 5 8 8 0 0 0 7.14-5.24 7.28 7.28 0 0 0-2.48-8.13 8.26 8.26 0 0 0-6.22-1.28c-4.26.58-6.68 5.78-5.44 9.65zM146.4 34.76a4.17 4.17 0 0 0 3.72 3.09c4 .24 5.85-5.44 2.15-7.32-2.57-1.31-6.54 1.2-5.87 4.23zM157.24 31a3.12 3.12 0 0 0 .53 3.11c2.09 2.16 6.06 1.48 6.06-1.9s-5.55-4.43-6.59-1.21zM166.58 38.65a2.71 2.71 0 0 0 2.65-4.45 2.67 2.67 0 1 0-2.65 4.45zM168.08 43.8a2.11 2.11 0 0 0 .93 1.12 2.89 2.89 0 0 0 4.12-1.7c.57-2.33-1.87-3.68-3.83-2.77a2.71 2.71 0 0 0-1.22 3.35z"/></g><g class="cls-2"><path class="cls-3" d="M118 104.16a7.29 7.29 0 0 0 7 5 8 8 0 0 0 7.14-5.24 7.28 7.28 0 0 0-2.48-8.13 8.26 8.26 0 0 0-6.22-1.28c-4.22.6-6.63 5.8-5.44 9.65zM113.21 90.94a4.17 4.17 0 0 0 3.72 3.06c4 .24 5.85-5.44 2.15-7.32-2.58-1.28-6.55 1.23-5.87 4.26zM124 87.13a3.12 3.12 0 0 0 .53 3.11c2.09 2.16 6.06 1.48 6.06-1.9S125.08 84 124 87.13zM133.38 94.82a2.71 2.71 0 0 0 2.62-4.45 2.67 2.67 0 1 0-2.65 4.45zM134.89 100a2.11 2.11 0 0 0 .93 1.12 2.89 2.89 0 0 0 4.12-1.7c.57-2.33-1.87-3.68-3.83-2.77a2.71 2.71 0 0 0-1.22 3.35z"/></g><g class="cls-2"><path class="cls-3" d="M151.24 160.34a7.29 7.29 0 0 0 7 5 8 8 0 0 0 7.14-5.24 7.28 7.28 0 0 0-2.48-8.13 8.26 8.26 0 0 0-6.22-1.28c-4.26.6-6.68 5.8-5.44 9.65zM146.4 147.12a4.17 4.17 0 0 0 3.72 3.09c4 .24 5.85-5.44 2.15-7.32-2.57-1.32-6.54 1.2-5.87 4.23zM157.24 143.31a3.12 3.12 0 0 0 .53 3.11c2.09 2.16 6.06 1.48 6.06-1.9s-5.55-4.38-6.59-1.21zM166.58 151a2.71 2.71 0 0 0 2.65-4.45 2.67 2.67 0 1 0-2.65 4.45zM168.08 156.16a2.11 2.11 0 0 0 .93 1.12 2.89 2.89 0 0 0 4.12-1.7c.57-2.33-1.87-3.68-3.83-2.77a2.71 2.71 0 0 0-1.22 3.35z"/></g><g class="cls-2"><path class="cls-3" d="M118 216.52a7.29 7.29 0 0 0 7 5 8 8 0 0 0 7.14-5.24 7.28 7.28 0 0 0-2.48-8.13 8.26 8.26 0 0 0-6.22-1.28c-4.22.6-6.63 5.8-5.44 9.65zM113.21 203.3a4.17 4.17 0 0 0 3.72 3.09c4 .24 5.85-5.44 2.15-7.32-2.58-1.32-6.55 1.2-5.87 4.23zM124 199.49a3.12 3.12 0 0 0 .53 3.11c2.09 2.16 6.06 1.48 6.06-1.9s-5.51-4.38-6.59-1.21zM133.38 207.18a2.71 2.71 0 0 0 2.65-4.45 2.67 2.67 0 1 0-2.65 4.45zM134.89 212.34a2.11 2.11 0 0 0 .93 1.12 2.89 2.89 0 0 0 4.12-1.7c.57-2.33-1.87-3.68-3.83-2.77a2.71 2.71 0 0 0-1.22 3.35z"/></g><g class="cls-2"><path class="cls-3" d="M84.21 48a7.29 7.29 0 0 0 7 5 8 8 0 0 0 7.14-5.24 7.28 7.28 0 0 0-2.48-8.13 8.26 8.26 0 0 0-6.22-1.28c-4.26.58-6.65 5.78-5.44 9.65zM79.37 34.76a4.17 4.17 0 0 0 3.72 3.09c4 .24 5.85-5.44 2.15-7.32-2.57-1.31-6.55 1.2-5.87 4.23zM90.21 31a3.12 3.12 0 0 0 .53 3.11c2.09 2.16 6.06 1.48 6.06-1.9s-5.56-4.43-6.59-1.21zM99.55 38.65a2.71 2.71 0 0 0 2.65-4.45 2.67 2.67 0 1 0-2.65 4.45zM101.05 43.8a2.11 2.11 0 0 0 .93 1.12 2.89 2.89 0 0 0 4.12-1.7c.57-2.33-1.87-3.68-3.83-2.77a2.71 2.71 0 0 0-1.22 3.35z"/></g><g class="cls-2"><path class="cls-3" d="M51 104.16a7.29 7.29 0 0 0 7 5 8 8 0 0 0 7.19-5.16 7.28 7.28 0 0 0-2.48-8.13 8.26 8.26 0 0 0-6.22-1.28c-4.3.52-6.72 5.72-5.49 9.57zM46.17 90.94A4.17 4.17 0 0 0 49.9 94c4 .24 5.85-5.44 2.15-7.32-2.58-1.28-6.55 1.23-5.88 4.26zM57 87.13a3.12 3.12 0 0 0 .53 3.11c2.09 2.16 6.06 1.48 6.06-1.9S58 84 57 87.13zM66.35 94.82A2.71 2.71 0 0 0 69 90.37a2.67 2.67 0 1 0-2.65 4.45zM67.85 100a2.11 2.11 0 0 0 .93 1.12 2.89 2.89 0 0 0 4.12-1.7c.57-2.33-1.87-3.68-3.83-2.77a2.71 2.71 0 0 0-1.22 3.35z"/></g><g class="cls-2"><path class="cls-3" d="M84.21 160.34a7.29 7.29 0 0 0 7 5 8 8 0 0 0 7.14-5.24 7.28 7.28 0 0 0-2.44-8.1 8.26 8.26 0 0 0-6.22-1.28c-4.3.57-6.69 5.77-5.48 9.62zM79.37 147.12a4.17 4.17 0 0 0 3.72 3.09c4 .24 5.85-5.44 2.15-7.32-2.57-1.32-6.55 1.2-5.87 4.23zM90.21 143.31a3.12 3.12 0 0 0 .53 3.11c2.09 2.16 6.06 1.48 6.06-1.9s-5.56-4.38-6.59-1.21zM99.55 151a2.71 2.71 0 0 0 2.65-4.45 2.67 2.67 0 1 0-2.65 4.45zM101.05 156.16a2.11 2.11 0 0 0 .93 1.12 2.89 2.89 0 0 0 4.12-1.7c.57-2.33-1.87-3.68-3.83-2.77a2.71 2.71 0 0 0-1.22 3.35z"/></g><g class="cls-2"><path class="cls-3" d="M51 216.52a7.29 7.29 0 0 0 7 5 8 8 0 0 0 7.14-5.24 7.28 7.28 0 0 0-2.48-8.13 8.26 8.26 0 0 0-6.22-1.28c-4.25.6-6.67 5.8-5.44 9.65zM46.17 203.3a4.17 4.17 0 0 0 3.72 3.09c4 .24 5.85-5.44 2.15-7.32-2.57-1.32-6.54 1.2-5.87 4.23zM57 199.49a3.12 3.12 0 0 0 .53 3.11c2.09 2.16 6.06 1.48 6.06-1.9S58 196.32 57 199.49zM66.35 207.18a2.71 2.71 0 0 0 2.65-4.45 2.67 2.67 0 1 0-2.65 4.45zM67.85 212.34a2.11 2.11 0 0 0 .93 1.12 2.89 2.89 0 0 0 4.12-1.7c.57-2.33-1.87-3.68-3.83-2.77a2.71 2.71 0 0 0-1.22 3.35z"/></g><g class="cls-2"><path class="cls-3" d="M15.9 48a7.29 7.29 0 0 0 7 5 8 8 0 0 0 7.14-5.24 7.28 7.28 0 0 0-2.48-8.13 8.26 8.26 0 0 0-6.22-1.28c-4.26.58-6.68 5.78-5.44 9.65zM11.06 34.76a4.17 4.17 0 0 0 3.72 3.09c4 .24 5.85-5.44 2.15-7.32-2.57-1.31-6.54 1.2-5.87 4.23zM21.9 31a3.12 3.12 0 0 0 .53 3.11c2.09 2.16 6.06 1.48 6.06-1.9S22.94 27.78 21.9 31zM31.24 38.65a2.71 2.71 0 0 0 2.65-4.45 2.67 2.67 0 1 0-2.65 4.45zM32.74 43.8a2.11 2.11 0 0 0 .93 1.12 2.89 2.89 0 0 0 4.12-1.7c.57-2.33-1.87-3.68-3.83-2.77a2.71 2.71 0 0 0-1.22 3.35z"/></g><g class="cls-2"><path class="cls-3" d="M15.9 160.34a7.29 7.29 0 0 0 7 5 8 8 0 0 0 7.14-5.24 7.28 7.28 0 0 0-2.44-8.1 8.26 8.26 0 0 0-6.22-1.28c-4.3.57-6.72 5.77-5.48 9.62zM11.06 147.12a4.17 4.17 0 0 0 3.72 3.09c4 .24 5.85-5.44 2.15-7.32-2.57-1.32-6.54 1.2-5.87 4.23zM21.9 143.31a3.12 3.12 0 0 0 .53 3.11c2.09 2.16 6.06 1.48 6.06-1.9s-5.55-4.38-6.59-1.21zM31.24 151a2.71 2.71 0 0 0 2.65-4.45 2.67 2.67 0 1 0-2.65 4.45zM32.74 156.16a2.11 2.11 0 0 0 .93 1.12 2.89 2.89 0 0 0 4.12-1.7c.57-2.33-1.87-3.68-3.83-2.77a2.71 2.71 0 0 0-1.22 3.35z"/></g><path class="cls-4" d="M73.06 36.56L80.81 49h.05V36.56h3.82v18.56H80.6l-7.72-12.43h-.05v12.43H69V36.56zM87.85 45.49a6.15 6.15 0 0 1 3.59-3.67 7.68 7.68 0 0 1 2.86-.51 7.78 7.78 0 0 1 2.87.51 6.12 6.12 0 0 1 3.6 3.67 8.28 8.28 0 0 1 .49 2.92 8.17 8.17 0 0 1-.49 2.91 6.32 6.32 0 0 1-1.4 2.22 6.12 6.12 0 0 1-2.2 1.46 8 8 0 0 1-2.87.49 7.86 7.86 0 0 1-2.86-.49 6.13 6.13 0 0 1-2.18-1.42 6.28 6.28 0 0 1-1.4-2.22 8.13 8.13 0 0 1-.49-2.91 8.23 8.23 0 0 1 .48-2.96zM91.21 50a4.16 4.16 0 0 0 .53 1.38 2.83 2.83 0 0 0 1 1 3.05 3.05 0 0 0 1.56.36 3.12 3.12 0 0 0 1.57-.36 2.81 2.81 0 0 0 1-1 4.23 4.23 0 0 0 .55-1.38 7.84 7.84 0 0 0 .16-1.57 8 8 0 0 0-.16-1.59 4.08 4.08 0 0 0-.53-1.38 3 3 0 0 0-1-1 3 3 0 0 0-1.57-.38 2.84 2.84 0 0 0-2.56 1.35 4 4 0 0 0-.53 1.38 8.1 8.1 0 0 0-.16 1.59 7.92 7.92 0 0 0 .14 1.6zM119.6 36.56a7.73 7.73 0 0 1 3 .51 5.55 5.55 0 0 1 2 1.34 5.17 5.17 0 0 1 1.12 1.9 7.08 7.08 0 0 1 0 4.41 5.15 5.15 0 0 1-1.12 1.91 5.55 5.55 0 0 1-2 1.34 7.73 7.73 0 0 1-3 .51h-4.29v6.66h-4.08V36.56zm-1.12 8.74a8.55 8.55 0 0 0 1.35-.1 3.15 3.15 0 0 0 1.14-.4 2.19 2.19 0 0 0 .79-.84 3.56 3.56 0 0 0 0-2.86 2.19 2.19 0 0 0-.79-.84 3.15 3.15 0 0 0-1.14-.4 8.55 8.55 0 0 0-1.35-.1h-3.17v5.56zM131.64 36.56v7h.08a4.28 4.28 0 0 1 1.79-1.7 4.85 4.85 0 0 1 2.13-.53 6.27 6.27 0 0 1 2.43.4 3.61 3.61 0 0 1 1.5 1.12 4.32 4.32 0 0 1 .77 1.74 10.83 10.83 0 0 1 .22 2.28v8.27h-3.69v-7.61a4.72 4.72 0 0 0-.52-2.48 2 2 0 0 0-1.85-.82 2.56 2.56 0 0 0-2.18.9 5 5 0 0 0-.68 3v7h-3.69V36.56zM143.37 45.49a6.15 6.15 0 0 1 3.63-3.67 7.68 7.68 0 0 1 2.86-.51 7.78 7.78 0 0 1 2.87.51 6.12 6.12 0 0 1 3.6 3.67 8.26 8.26 0 0 1 .49 2.92 8.15 8.15 0 0 1-.49 2.91 6.3 6.3 0 0 1-1.4 2.22 6.11 6.11 0 0 1-2.2 1.42 8 8 0 0 1-2.87.49A7.86 7.86 0 0 1 147 55a6.13 6.13 0 0 1-2.18-1.42 6.3 6.3 0 0 1-1.4-2.22 8.13 8.13 0 0 1-.49-2.91 8.23 8.23 0 0 1 .44-2.96zm3.35 4.5a4.2 4.2 0 0 0 .53 1.38 2.84 2.84 0 0 0 1 1 3 3 0 0 0 1.56.36 3.13 3.13 0 0 0 1.57-.36 2.81 2.81 0 0 0 1-1 4.2 4.2 0 0 0 .53-1.38 7.92 7.92 0 0 0 .16-1.57 8.1 8.1 0 0 0-.16-1.59 4.06 4.06 0 0 0-.53-1.38 3 3 0 0 0-1-1 3 3 0 0 0-1.57-.38 3 3 0 0 0-1.56.38 3 3 0 0 0-1 1 4.06 4.06 0 0 0-.53 1.38 8.1 8.1 0 0 0-.16 1.59 7.92 7.92 0 0 0 .16 1.58zM166.35 41.68v2.47h-2.7v6.65a1.25 1.25 0 0 0 1.56 1.56h.6a4.89 4.89 0 0 0 .55-.08v2.86a8.71 8.71 0 0 1-1 .1h-1.12a10.76 10.76 0 0 1-1.62-.12 3.82 3.82 0 0 1-1.35-.46 2.4 2.4 0 0 1-.92-1 3.44 3.44 0 0 1-.34-1.64v-7.87h-2.24v-2.47H160v-4h3.69v4zM168 45.49a6.15 6.15 0 0 1 3.59-3.67 7.68 7.68 0 0 1 2.86-.51 7.78 7.78 0 0 1 2.87.51 6.12 6.12 0 0 1 3.6 3.67 8.28 8.28 0 0 1 .49 2.92 8.17 8.17 0 0 1-.49 2.91 6.32 6.32 0 0 1-1.4 2.22 6.12 6.12 0 0 1-2.2 1.42 8 8 0 0 1-2.87.49 7.86 7.86 0 0 1-2.86-.49 6.13 6.13 0 0 1-2.18-1.42 6.28 6.28 0 0 1-1.4-2.22 8.13 8.13 0 0 1-.49-2.91 8.23 8.23 0 0 1 .48-2.92zm3.35 4.5a4.16 4.16 0 0 0 .53 1.38 2.83 2.83 0 0 0 1 1 3.05 3.05 0 0 0 1.56.36 3.12 3.12 0 0 0 1.57-.36 2.81 2.81 0 0 0 1-1 4.23 4.23 0 0 0 .53-1.38 7.84 7.84 0 0 0 .16-1.57 8 8 0 0 0-.16-1.59 4.08 4.08 0 0 0-.53-1.38 3 3 0 0 0-1-1 3 3 0 0 0-1.57-.38 2.84 2.84 0 0 0-2.56 1.35 4 4 0 0 0-.53 1.38 8.1 8.1 0 0 0-.16 1.59 7.92 7.92 0 0 0 .16 1.61z"/><path class="cls-5" d="M152.23 84.18c-13.46 0-20.28 6.37-27 19.11-6.73-12.74-13.46-19.11-27-19.11-14.89 0-27 11.41-27 25.48 0 25.47 27 50.94 54 76.42 27-25.48 54-51 54-76.42.01-14.07-12.11-25.48-27-25.48z"/></svg>