<svg width="34" height="35" viewBox="0 0 34 35" fill="none" xmlns="http://www.w3.org/2000/svg">
<path fill-rule="evenodd" clip-rule="evenodd" d="M18.2536 20.3629C16.4894 20.9975 15.4953 22.7747 16.3593 25.1602C17.2126 27.5146 19.1394 28.3121 20.9036 27.6775C22.6366 27.0541 23.6507 25.2342 22.7867 22.8483C21.9334 20.4939 19.9862 19.7395 18.2536 20.3629ZM14.3239 15.7087C20.4539 12.6642 26.6676 13.8111 28.5475 19.1943L31.9202 28.7944C32.0512 29.1554 31.8636 29.5539 31.5013 29.6844L26.6388 31.4334C26.2765 31.5635 25.8761 31.3765 25.7456 31.0155L25.7432 31.009C25.5379 30.442 24.7724 30.3958 24.4719 30.9183C23.7807 32.117 22.5823 33.1408 20.8636 33.7592C16.6738 35.2666 11.7022 33.6106 9.66627 27.9909C7.63035 22.3721 10.3366 17.6891 14.3239 15.7087Z" fill="#F9665E"/>
<path fill-rule="evenodd" clip-rule="evenodd" d="M2.32254 14.5196C4.30063 13.8035 6.62158 15.2156 7.50702 17.6744C8.39246 20.1323 7.50609 22.7056 5.52799 23.4217C3.54943 24.1378 1.22801 22.7253 0.34304 20.2674C-0.541933 17.809 0.344443 15.2353 2.32254 14.5196Z" fill="#F9665E"/>
<path fill-rule="evenodd" clip-rule="evenodd" d="M7.13132 3.29934C9.43949 2.4554 12.1975 4.25843 13.2915 7.32574C14.385 10.3926 13.4011 13.5633 11.0925 14.4068C8.7843 15.2503 6.02625 13.4477 4.93227 10.3804C3.83876 7.3131 4.82315 4.14282 7.13132 3.29934Z" fill="#F9665E"/>
<path fill-rule="evenodd" clip-rule="evenodd" d="M17.2247 0.207626C19.5329 -0.635845 22.291 1.16671 23.3846 4.23448C24.4786 7.30131 23.4942 10.472 21.1855 11.3151C18.8772 12.159 16.1191 10.3564 15.0255 7.28914C13.932 4.22137 14.9164 1.05157 17.2247 0.207626Z" fill="#F9665E"/>
<path fill-rule="evenodd" clip-rule="evenodd" d="M27.5554 6.088C29.5334 5.37238 31.8548 6.78439 32.7402 9.2431C33.6256 11.7013 32.7393 14.2745 30.7612 14.9901C28.7827 15.7066 26.4614 14.2942 25.5765 11.8359C24.6911 9.37769 25.5774 6.80409 27.5554 6.088Z" fill="#F9665E"/>
</svg>
