<svg width="70" height="70" viewBox="0 0 70 70" fill="none" xmlns="http://www.w3.org/2000/svg">
<path fill-rule="evenodd" clip-rule="evenodd" d="M35 70C54.33 70 70 54.33 70 35C70 15.67 54.33 0 35 0C15.67 0 0 15.67 0 35C0 54.33 15.67 70 35 70Z" fill="#00BFDA"/>
<path d="M34.2614 39.2087C31.1172 36.6287 29.0178 33.4451 27.9141 31.6336L27.0908 30.0848C27.3787 29.7765 29.5739 27.4308 30.5252 26.158C31.7207 24.5598 29.9874 23.1164 29.9874 23.1164C29.9874 23.1164 25.1103 18.2487 23.9988 17.2832C22.8873 16.3163 21.6078 16.8533 21.6078 16.8533C19.2717 18.3596 16.8499 19.6692 16.7046 25.9674C16.6992 31.8641 21.1848 37.946 26.0355 42.6545C30.894 47.972 37.5648 53.3016 44.014 53.2955C50.3247 53.1519 51.6367 50.7351 53.1461 48.4042C53.1461 48.4042 53.6846 47.1284 52.7167 46.0179C51.7481 44.9083 46.8696 40.0404 46.8696 40.0404C46.8696 40.0404 45.4242 38.3104 43.8223 39.5044C42.6288 40.3949 40.4847 42.3757 39.9683 42.8559C39.9693 42.8576 36.3832 40.9495 34.2614 39.2087Z" fill="white"/>
</svg>
