<svg width="54" height="53" viewBox="0 0 54 53" fill="none" xmlns="http://www.w3.org/2000/svg">
<path d="M39.2719 40.0828C38.3483 39.6402 37.398 38.134 36.9362 36.9048C36.4744 35.6755 36.3487 34.1031 36.3492 31.6402H44.4129C45.6292 31.6402 46.6152 30.6618 46.6152 29.3993V18.2409C46.6152 17.0033 45.6172 16 44.4188 16H31.1876C29.9746 16 28.9912 17.0098 28.9912 18.2185V29.435C28.9912 33.1721 30.0193 36.2429 32.001 38.6814C33.9828 41.1199 36.6859 42.2217 39.2719 42.8118V40.0828Z" fill="white"/>
<path d="M17.2719 40.0828C16.3483 39.6402 15.398 38.134 14.9362 36.9048C14.4744 35.6755 14.3487 34.1031 14.3492 31.6402H22.4129C23.6292 31.6402 24.6152 30.6618 24.6152 29.3993V18.2409C24.6152 17.0033 23.6172 16 22.4188 16H9.18765C7.97458 16 6.99119 17.0098 6.99119 18.2185V29.435C6.99119 33.1721 8.01925 36.2429 10.001 38.6814C11.9828 41.1199 14.6859 42.2217 17.2719 42.8118V40.0828Z" fill="white"/>
</svg>
