<svg width="63" height="47" viewBox="0 0 63 47" fill="none" xmlns="http://www.w3.org/2000/svg">
<path fill-rule="evenodd" clip-rule="evenodd" d="M50.5 20.8C45.1 15.4 35.2 7.30001 23.5 11.8C11.8 16.3 14.5 27.1 19 30.7C23.5 34.3 28.9 41.5 31.6 41.5C34.3 41.5 55.9 26.2 50.5 20.8Z" fill="white"/>
<path fill-rule="evenodd" clip-rule="evenodd" d="M24.625 26.6644C24.625 26.6644 23.1625 31.6144 11.575 31.6144C-0.0124903 31.6144 -3.38749 12.3769 11.575 7.31441C15.175 6.41441 19.1125 6.18941 22.15 8.32691C22.15 8.32691 32.6125 -2.69809 46.1125 3.71441C46.1125 3.71441 47.125 13.3894 27.2125 12.6019" fill="white"/>
<path d="M24.625 26.6644C24.625 26.6644 23.1625 31.6144 11.575 31.6144C-0.0124903 31.6144 -3.38749 12.3769 11.575 7.31441C15.175 6.41441 19.1125 6.18941 22.15 8.32691C22.15 8.32691 32.6125 -2.69809 46.1125 3.71441C46.1125 3.71441 47.125 13.3894 27.2125 12.6019" stroke="#00BFDA" stroke-width="2" stroke-linecap="round" stroke-linejoin="round"/>
<path fill-rule="evenodd" clip-rule="evenodd" d="M37.4068 11.8495C37.4068 11.8495 51.5125 13.6135 53.0875 22.501C54.6625 31.3885 50.6125 44.8885 25.4125 45.226C25.4125 45.226 22.0375 35.101 41.5 33.6385C41.5 33.6385 28.1125 35.4385 30.25 23.5135C30.475 21.4885 33.9625 11.926 44.9875 19.126" fill="white"/>
<path d="M37.4068 11.8495C37.4068 11.8495 51.5125 13.6135 53.0875 22.501C54.6625 31.3885 50.6125 44.8885 25.4125 45.226C25.4125 45.226 22.0375 35.101 41.5 33.6385C41.5 33.6385 28.1125 35.4385 30.25 23.5135C30.475 21.4885 33.9625 11.926 44.9875 19.126" stroke="#00BFDA" stroke-width="2" stroke-linecap="round" stroke-linejoin="round"/>
<path fill-rule="evenodd" clip-rule="evenodd" d="M19.441 30.5632C19.441 30.5632 21.5758 34.8805 28.1629 37.6912L19.441 30.5632Z" fill="#D8D8D8"/>
<path d="M19.441 30.5632C19.441 30.5632 21.5758 34.8805 28.1629 37.6912" stroke="#00BFDA" stroke-width="2" stroke-linecap="round" stroke-linejoin="round"/>
<path fill-rule="evenodd" clip-rule="evenodd" d="M39.2869 43.2343C39.2869 43.2343 48.025 47.7667 50.1625 43.2343C51.625 39.9394 47.9269 38.4589 47.9269 38.4589" fill="white"/>
<path d="M39.2869 43.2343C39.2869 43.2343 48.025 47.7667 50.1625 43.2343C51.625 39.9394 47.9269 38.4589 47.9269 38.4589" stroke="#00BFDA" stroke-width="2" stroke-linecap="round" stroke-linejoin="round"/>
<path fill-rule="evenodd" clip-rule="evenodd" d="M2.56781 20.7577C4.52531 20.7577 6.11201 21.6037 6.11201 22.2562C6.11201 22.9087 4.52531 24.3937 2.56781 24.3937" fill="white"/>
<path d="M2.56781 20.7577C4.52531 20.7577 6.11201 21.6037 6.11201 22.2562C6.11201 22.9087 4.52531 24.3937 2.56781 24.3937" stroke="#00BFDA" stroke-width="2" stroke-linecap="round" stroke-linejoin="round"/>
<path d="M7.453 30.6883C7.453 30.6883 11.5192 30.4894 12.5875 25.9327" stroke="#00BFDA" stroke-width="2" stroke-linecap="round" stroke-linejoin="round"/>
<path fill-rule="evenodd" clip-rule="evenodd" d="M15.2308 18.0019C15.4794 18.0019 15.6808 17.4019 15.6808 16.6618C15.6808 15.9217 15.4794 15.3217 15.2308 15.3217C14.9823 15.3217 14.7808 15.9217 14.7808 16.6618C14.7808 17.4019 14.9823 18.0019 15.2308 18.0019Z" fill="white" stroke="#00BFDA" stroke-width="2" stroke-linecap="round" stroke-linejoin="round"/>
<path fill-rule="evenodd" clip-rule="evenodd" d="M53.1604 30.3184C53.6797 30.9439 54.4636 31.3426 55.3411 31.3426C56.9062 31.3426 58.1743 30.0745 58.1743 28.5094C58.1743 28.4743 58.1653 28.4428 58.1644 28.4077C60.229 27.9406 61.7743 26.1028 61.7743 23.8969C61.7743 21.3382 59.6998 19.2637 57.1411 19.2637C57.0772 19.2637 57.0178 19.2799 56.9539 19.2826C56.5525 18.2107 55.5283 17.4439 54.316 17.4439C53.2378 17.4439 52.3009 18.0478 51.8248 18.9352" fill="white"/>
<path d="M53.1604 30.3184C53.6797 30.9439 54.4636 31.3426 55.3411 31.3426C56.9062 31.3426 58.1743 30.0745 58.1743 28.5094C58.1743 28.4743 58.1653 28.4428 58.1644 28.4077C60.229 27.9406 61.7743 26.1028 61.7743 23.8969C61.7743 21.3382 59.6998 19.2637 57.1411 19.2637C57.0772 19.2637 57.0178 19.2799 56.9539 19.2826C56.5525 18.2107 55.5283 17.4439 54.316 17.4439C53.2378 17.4439 52.3009 18.0478 51.8248 18.9352" stroke="#00BFDA" stroke-width="2" stroke-linecap="round" stroke-linejoin="round"/>
<path d="M26.3503 9.77502C26.3503 9.77502 37.9 10.1503 41.95 5.27502" stroke="#00BFDA" stroke-linecap="round" stroke-linejoin="round"/>
</svg>
