<svg width="78" height="45" viewBox="0 0 78 45" fill="none" xmlns="http://www.w3.org/2000/svg">
<path d="M33.8526 6.83371C35.5218 5.08496 37.4504 3.6244 39.6186 2.50032C42.7117 0.894842 46.2668 0 50.1716 0C57.0324 0 63.2465 2.77131 67.7421 7.25616C72.2377 11.741 75.0157 17.9337 75.0157 24.7846C75.0157 25.2742 74.9648 25.9856 74.8712 26.8133C76.5068 28.6284 77.1429 30.6563 77.1429 32.6327C77.1429 35.5039 75.7215 38.52 73.7116 40.5397C72.5003 41.7555 71.1536 42.5005 70.0457 42.5005H66.3872C65.6338 42.9541 64.8533 43.3544 64.0409 43.6925C61.9835 44.5473 59.7644 45 57.4862 45H45.5685C43.8032 45 42.605 44.0978 41.9378 42.5079H8.7155C6.31997 42.5079 4.13371 41.5295 2.55885 39.9568C0.983982 38.3832 0 36.2039 0 33.8132C0 31.4243 0.98152 29.2449 2.55802 27.6713C3.34669 26.8846 4.2765 26.2525 5.30316 25.8145C5.22684 22.9564 5.80213 20.1532 7.06432 17.5849L7.02903 7.51487C6.78447 4.95151 9.15374 4.19176 10.9338 5.39525L16.8877 9.30701C19.2668 8.65533 21.7485 8.62995 24.1441 9.21532L29.9626 5.39689C31.8214 4.26954 33.5498 5.0211 33.8395 6.85172L33.8477 6.83535L33.8526 6.83371Z" fill="#00BFDA"/>
<path d="M52.7174 3.26235C52.7617 3.42116 52.7863 3.59056 52.7863 3.7681V10.9619C52.7863 11.9954 51.9298 12.844 50.8905 12.844C49.853 12.844 48.9965 11.9954 48.9965 10.9619V3.76729C48.9965 3.57427 49.0293 3.38858 49.0809 3.21429C48.6752 3.23791 48.2769 3.28108 47.8794 3.33239V6.43371C47.8794 7.4664 47.0237 8.31666 45.9845 8.31666C44.9453 8.31666 44.0896 7.4664 44.0896 6.43371V4.16391C43.0832 4.49212 42.1275 4.89526 41.2129 5.366C38.4468 6.79368 36.1134 8.84684 34.3029 11.3585L34.2857 17.2085C34.9873 18.4179 35.5471 19.7455 35.9265 21.1503C36.333 22.6285 36.5527 24.1743 36.5527 25.7608V25.7697V25.9367V25.9448V25.9522V25.9603V25.9693V25.9766V25.9856V25.9945L36.5879 29.4729V35.7342C36.5879 36.6675 37.078 37.2482 37.6952 37.4991C38.2173 37.7002 38.8664 37.7214 39.386 37.4991C40.0122 37.2466 40.4933 36.6675 40.4933 35.7342V27.2536C40.5637 25.9009 41.2727 25.5784 42.5234 25.5889H68.4723C69.2108 25.5889 69.7845 26.2258 69.7845 26.9425C69.6935 32.514 67.974 36.9086 62.4344 39.1939C61.0141 39.7843 59.4733 40.0922 57.9021 40.0922H45.9993C44.1404 40.0922 44.1494 42.8572 45.9993 42.8572H57.9005C59.8372 42.8572 61.7321 42.4793 63.472 41.7544C70.4139 38.8901 72.8571 32.2672 72.8571 25.2754C72.8571 19.1648 70.3615 13.6275 66.3373 9.62625C64.0367 7.34016 61.2387 5.55739 58.116 4.44163V7.139C58.116 8.17169 57.262 9.02195 56.222 9.02195C55.1819 9.02195 54.3271 8.17169 54.3271 7.139V3.45781C53.7935 3.36578 53.2526 3.29818 52.7035 3.24687L52.7125 3.25502L52.7174 3.26235Z" fill="white"/>
<path d="M21.6521 20.0607C21.9146 19.999 22.186 19.9652 22.4649 19.9652H25.0384C26.0972 19.9652 27.0609 20.4081 27.7539 21.1265C28.4657 21.8601 28.8807 22.8786 28.8807 23.925C28.8807 24.5538 28.7364 25.1446 28.483 25.6779H33.2143C33.1979 24.291 33.0191 22.9733 32.6886 21.7257C32.3326 20.392 31.8078 19.1276 31.132 17.9747C31.132 17.9747 30.9524 17.5031 30.9524 17.3028C30.9606 14.0309 30.9688 10.7701 30.977 7.5L24.7489 11.7311C24.443 11.9492 24.0469 12.0354 23.6655 11.9247C19.9495 10.8166 19.4083 12.0303 16.7248 12.0193C16.3779 12.1343 15.9801 12.0895 15.6496 11.863L9.22555 7.50338L9.25999 18.1344C9.2764 18.3626 9.22555 18.5883 9.12467 18.8072C8.59159 19.862 8.17743 21.0065 7.90678 22.1923C7.64434 23.3088 7.5082 24.4862 7.5 25.7143C7.78786 25.6898 8.08475 25.6686 8.38082 25.6686H11.8491C11.5785 25.1311 11.4268 24.52 11.4268 23.8717C11.4268 22.7806 11.8565 21.7959 12.5536 21.0817C13.2737 20.3379 14.2456 19.9111 15.2699 19.9111H17.8426C18.0214 19.9111 18.1887 19.9204 18.3683 19.9474C19.0999 18.5866 21.0059 18.6745 21.6529 20.0624V20.0607H21.6521Z" fill="white"/>
<path d="M27.5423 17.1745H28.7159C28.7159 17.1745 28.9442 17.2596 28.9277 17.3812C28.7076 18.4705 27.5744 19.2857 26.2491 19.2857C25.0327 19.2857 23.9687 18.5982 23.639 17.6195C23.6151 17.5501 23.5714 17.4142 23.5714 17.3441C23.5714 17.0467 24.6601 17.1669 24.956 17.1669C25.1167 17.1669 25.1448 17.2672 25.1843 17.3661C25.359 17.7315 25.7761 17.9828 26.2491 17.9828C27.2777 17.9849 27.2291 17.1758 27.5414 17.1758V17.1745H27.5423Z" fill="#00BFDA"/>
<path d="M15.7566 17.1742H16.9294C16.9294 17.1742 17.1577 17.2586 17.1421 17.3807C16.9212 18.4701 15.7896 19.2857 14.4643 19.2857C13.247 19.2857 12.1838 18.599 11.8541 17.6208C11.8302 17.5481 11.7857 17.4143 11.7857 17.3436C11.7857 17.0473 12.8745 17.1666 13.1712 17.1666C13.3311 17.1666 13.3591 17.2668 13.3995 17.3642C13.5742 17.7292 13.9904 17.9803 14.4643 17.9803C15.4929 17.9837 15.441 17.1742 15.7566 17.1742Z" fill="#00BFDA"/>
<path d="M25.4744 22.5H23.084C22.0432 22.5 22.0925 23.2722 21.4286 23.5573C21.9634 23.7884 21.9322 24.2069 22.4303 24.4818C22.6172 24.5869 22.8517 24.6429 23.0918 24.6429H25.5448C26.2313 24.6429 26.7857 24.1617 26.7857 23.5721C26.7857 22.9178 26.2079 22.5013 25.4721 22.5013L25.4744 22.5Z" fill="white"/>
<path d="M19.2857 23.5852C18.6319 23.2934 18.6813 22.5 17.6282 22.5H15.172C14.4845 22.5 13.9286 22.9799 13.9286 23.5724C13.9286 24.1643 14.4876 24.6429 15.172 24.6429H17.6282C17.8717 24.6429 18.0964 24.5876 18.282 24.4919C18.7862 24.2195 18.7165 23.8239 19.2826 23.5873L19.2857 23.5852Z" fill="white"/>
<path d="M69.6429 40.7143H70.0991C72.4754 40.7143 75 35.2628 75 33.0547C75 32.3956 74.8977 31.7314 74.6709 31.0714C73.9244 35.0405 72.6378 37.8214 69.6429 40.7143Z" fill="white"/>
<path d="M41.4262 40.7143C41.8849 38.8869 43.3236 37.7775 45.1792 37.7775H57.0957C58.3423 37.7775 59.543 37.5211 60.6624 37.0476C61.7892 36.5605 62.8118 35.8476 63.694 34.9306C65.7753 32.7682 66.3121 30.8126 66.4286 27.8571H42.2067V35.8545C42.2067 38.0878 41.0216 39.5151 39.4959 40.1596C38.333 40.639 37.0683 40.639 35.9054 40.1596C34.3904 39.5237 33.1954 38.0878 33.1954 35.8545V27.8571H8.31532C6.62223 27.8571 5.07112 28.5802 3.95579 29.7426C2.83637 30.9084 2.14288 32.5186 2.14288 34.2836C2.14288 36.0468 2.83719 37.6613 3.95579 38.8245C5.07194 39.9861 6.62223 40.7126 8.31532 40.7126H41.4295H41.4262V40.7143Z" fill="white"/>
</svg>
