<svg width="60" height="82" viewBox="0 0 60 82" fill="none" xmlns="http://www.w3.org/2000/svg">
<path fill-rule="evenodd" clip-rule="evenodd" d="M47.1687 73.1752C47.2139 73.1642 47.2591 73.155 47.3044 73.1439C47.6127 73.0702 47.9321 72.9947 48.3345 72.838L49.3176 72.4483C50.3265 72.0429 52.6619 71.2745 54.2893 71.2745C54.8164 71.2745 55.1155 71.3583 55.2742 71.4265C55.6564 71.5961 55.9185 71.8338 56.1078 72.2023C55.9453 72.3202 55.6711 72.4824 55.3444 72.6169C53.8444 73.2379 51.5699 73.6562 49.6878 73.6562C48.1111 73.6553 47.4068 73.3632 47.1687 73.1752ZM55.4496 75.4215C54.0973 75.9798 52.3518 76.2995 50.6616 76.2995C47.5084 76.3023 45.1351 75.2354 44.3118 73.4489C44.2841 73.3862 44.2545 73.3171 44.2268 73.2471L43.5244 70.3181C43.1884 68.2626 42.9078 65.4617 42.5736 62.167C41.1447 47.9589 38.7678 24.4166 27.2588 23.3368C27.3068 23.1589 27.3401 22.994 27.3595 22.853C40.2631 24.0923 42.6493 47.7295 44.0875 62.0232C44.3644 64.756 44.6228 67.3348 44.9127 69.3424C44.9127 69.3452 44.9145 69.3452 44.9145 69.348V69.3535L45.5376 73.2784C45.557 73.3826 45.5967 73.4775 45.6493 73.5613C45.6641 73.611 45.6715 73.6626 45.6927 73.7069C46.1404 74.6807 47.4853 75.1718 49.6878 75.1718C51.7527 75.1718 54.2625 74.7093 55.9278 74.0183C56.7355 73.6838 58.0342 72.9726 57.6511 71.9425C57.3142 71.035 56.7373 70.4103 55.8899 70.0362C55.4588 69.8455 54.9355 69.7534 54.2902 69.7534C51.9668 69.7534 48.8801 70.988 48.7555 71.0377L47.777 71.4219C47.4576 71.5481 47.2019 71.608 46.9573 71.6661C46.9139 71.6762 46.8705 71.6864 46.8271 71.6974L46.5105 69.7174C46.8253 69.5921 47.1373 69.4696 47.453 69.3443L48.4084 68.9675C50.7401 68.0268 53.6348 67.8535 55.4413 68.6487C56.6496 69.1821 57.5367 70.1385 58.0139 71.4155C58.6084 73.0122 57.6493 74.5084 55.4496 75.4215ZM41.3219 73.6608C37.6711 75.345 36.893 75.7274 36.7435 76.4387C36.6964 76.6552 36.749 76.88 36.8838 77.0578C37.8031 78.251 42.8598 78.6407 44.4973 78.6407C44.7816 78.6407 45.0493 78.6352 45.3382 78.6195C45.7453 78.6195 46.0804 78.9392 46.0988 79.3446C46.1173 79.7629 45.7942 80.1185 45.3724 80.1388C45.3253 80.1425 45.0927 80.1499 44.7299 80.1499C43.301 80.1499 38.5111 79.9822 37.0019 77.8041C36.6041 77.2283 36.4988 76.5806 36.6991 75.9236C37.1127 74.5693 38.9478 73.131 42.2561 71.5491L42.6179 73.061L41.3219 73.6608ZM36.7951 67.5993C36.4831 67.8038 35.6016 67.9945 34.6407 68.0912C34.5013 62.8893 34.1967 56.1893 33.8515 49.5556C33.8718 49.5417 33.893 49.5399 33.9124 49.5242C35.2518 48.3974 37.6776 47.992 39.1028 48.6563C39.2524 48.7245 39.3604 48.8028 39.461 48.8784C39.5856 49.7002 39.7028 50.5184 39.8145 51.3365C39.3742 55.9755 37.4293 65.986 36.7951 67.5993ZM29.9764 73.612C28.7893 73.612 28.3508 73.3098 28.3287 73.2775C28.3361 73.2047 28.3388 73.1283 28.3342 73.0555C28.2798 71.9968 27.0068 47.0808 26.5102 43.8874C26.3801 43.0591 25.5982 42.4824 24.7739 42.6215C23.9431 42.7514 23.3755 43.5263 23.5047 44.3555C23.8213 46.3824 24.5385 58.8851 25.0333 68.1548H18.2791C18.6124 58.9312 19.0961 46.5446 19.2982 44.7351C19.3915 43.904 18.7887 43.1522 17.9542 43.0591C17.1262 42.9624 16.3665 43.5668 16.2751 44.4015C15.9604 47.2264 15.0964 72.0254 15.0613 73.1605C15.0419 73.4277 14.4881 73.6129 13.7145 73.6129C12.8921 73.6129 12.3558 73.4028 12.3179 73.1319C12.3179 70.7521 12.3041 67.5513 12.2884 63.9691C12.2745 60.4837 12.2588 56.6057 12.2515 52.7554C13.7367 50.1176 13.8336 45.2952 13.9361 39.6787C13.9536 38.6901 13.9564 37.6517 13.9591 36.6005C13.9748 31.6897 13.9951 24.9666 16.0148 24.9666C16.1801 24.9666 16.3324 24.9279 16.4671 24.8597C16.5235 24.9252 16.5567 24.9906 16.6185 25.056C17.6884 26.1727 19.2936 26.7402 21.389 26.7402C23.5785 26.7402 25.2253 26.1782 26.2831 25.067C26.3635 24.9832 26.4271 24.8966 26.4964 24.8109C28.013 24.8238 29.357 25.3057 30.5616 26.1478C30.0401 27.7537 29.6561 29.495 29.8139 32.1126C30.5099 43.5843 31.6795 64.1672 31.6407 73.2342C31.5825 73.2923 31.229 73.612 29.9764 73.612ZM8.79269 49.7408C8.70961 50.2715 8.62653 50.6381 8.54807 50.8832C8.35699 50.57 8.12807 50.0255 7.90745 49.3096C8.22499 49.4321 8.52684 49.574 8.79269 49.7408ZM8.67638 53.3764C5.83238 53.3764 3.99453 49.1695 3.99453 42.6547C3.99453 37.7439 5.02007 32.7603 6.80899 28.9809C9.03915 24.2747 11.2121 22.4172 14.7216 22.2947C10.8613 24.1623 8.44838 29.0731 8.18438 29.6296C6.51269 33.1602 5.51484 38.0286 5.51484 42.6547C5.51484 47.4816 6.72407 52.6946 8.67453 52.6946C9.83484 52.6946 10.6711 51.765 10.8936 39.6216C10.9047 38.9499 10.8964 38.2064 10.8844 37.4196C10.8318 33.4135 10.7607 28.149 13.6739 25.0274C12.4656 27.3391 12.4518 31.873 12.4379 36.5931C12.4351 37.6361 12.4315 38.6661 12.4139 39.6474C12.2598 48.1597 11.9958 53.3764 8.67638 53.3764ZM7.48838 67.4168C6.99453 66.2264 3.04376 53.3681 3.04376 50.1471C3.04376 49.9112 3.10007 49.6707 3.31607 49.4487C4.32315 52.9056 6.19053 54.8957 8.6773 54.8957C8.86838 54.8957 9.0373 54.8699 9.21453 54.8478C9.22284 58.0016 9.23484 61.1249 9.24592 63.9811C9.25145 65.3972 9.25884 66.7525 9.26345 68.0203C8.38745 67.8793 7.65084 67.6444 7.48838 67.4168ZM24.3235 22.5693C24.2893 22.6706 24.2228 22.8226 24.0798 22.9719C23.6311 23.4427 22.6767 23.7016 21.3899 23.7016C19.3591 23.7016 18.7121 23.0088 18.5118 22.5094C19.5013 22.3841 20.4936 22.0837 21.3401 21.4793C22.2096 22.1399 23.2647 22.4569 24.3235 22.5693ZM18.8533 3.1924C19.5908 3.09842 20.3376 3.03577 21.101 3.03577C30.1398 3.03577 37.6351 9.75608 38.8333 18.4564L35.7225 17.0237C35.7761 16.1244 35.8102 15.146 35.8102 14.0634C35.8102 13.2268 35.1299 12.5468 34.2899 12.5468C33.4508 12.5468 32.7696 13.2268 32.7696 14.0634C32.7696 18.1459 32.3127 20.64 31.7579 22.5674C30.8773 22.1178 29.933 21.7824 28.9305 21.5632C29.1631 21.202 29.2582 20.7579 29.1235 20.3129C28.8807 19.5132 28.0333 19.0635 27.2265 19.2985C27.1924 19.3086 23.6801 20.2742 22.7247 18.5246C22.6407 18.3707 22.5253 18.2417 22.3979 18.1293C22.4681 18.0639 22.5355 17.9957 22.5936 17.9201L24.8801 14.8557C25.2253 14.3951 25.2779 13.7805 25.0195 13.2683C24.7619 12.756 24.2358 12.4317 23.6607 12.4317H19.0065C18.4268 12.4317 17.8979 12.7615 17.6413 13.2784C17.3847 13.799 17.4484 14.419 17.8019 14.876L20.1687 17.9404C20.2259 18.0141 20.2924 18.074 20.3607 18.1339C20.2628 18.2251 20.1733 18.3274 20.1004 18.4444C18.9881 20.2198 15.5699 19.3022 15.5413 19.2939C14.7345 19.0589 13.889 19.5187 13.6527 20.3221C13.5991 20.5055 13.5918 20.6906 13.6056 20.8712C12.3816 21.0334 11.2942 21.4001 10.3038 22.0165C9.9493 20.5626 9.66499 18.7245 9.56715 16.1097C14.0828 15.3183 20.8204 11.971 18.8533 3.1924ZM13.037 8.23401C13.8696 8.23401 14.5435 8.90568 14.5435 9.73765C14.5435 10.5669 13.8696 11.2385 13.037 11.2385C12.2071 11.2385 11.5324 10.5669 11.5324 9.73765C11.5324 8.9066 12.2071 8.23401 13.037 8.23401Z" fill="white"/>
<path fill-rule="evenodd" clip-rule="evenodd" d="M29 7.66742C30.1045 7.66742 31 8.56293 31 9.66742C31 10.7719 30.1045 11.6674 29 11.6674C27.8964 11.6674 27 10.7719 27 9.66742C27 8.56293 27.8964 7.66742 29 7.66742Z" fill="#00BFDA"/>
<mask id="mask0" mask-type="alpha" maskUnits="userSpaceOnUse" x="0" y="0" width="60" height="82">
<path fill-rule="evenodd" clip-rule="evenodd" d="M0 0H59.6963V81.6673H0V0Z" fill="white"/>
</mask>
<g mask="url(#mask0)">
<path fill-rule="evenodd" clip-rule="evenodd" d="M47.1687 73.1752C47.2139 73.1641 47.2591 73.1549 47.3044 73.1439C47.6127 73.0702 47.9321 72.9946 48.3345 72.838L49.3176 72.4483C50.3265 72.0429 52.6619 71.2745 54.2893 71.2745C54.8164 71.2745 55.1155 71.3583 55.2742 71.4265C55.6564 71.596 55.9185 71.8337 56.1078 72.2023C55.9453 72.3202 55.6711 72.4823 55.3444 72.6169C53.8444 73.2379 51.5699 73.6561 49.6878 73.6561C48.1111 73.6552 47.4068 73.3632 47.1687 73.1752ZM55.4496 75.4214C54.0973 75.9798 52.3518 76.2995 50.6616 76.2995C47.5084 76.3023 45.1351 75.2353 44.3118 73.4488C44.2841 73.3862 44.2545 73.3171 44.2268 73.2471L43.5244 70.3181C43.1884 68.2626 42.9078 65.4617 42.5736 62.1669C41.1447 47.9588 38.7678 24.4165 27.2588 23.3367C27.3068 23.1589 27.3401 22.994 27.3594 22.853C40.2631 24.0922 42.6493 47.7294 44.0874 62.0232C44.3644 64.7559 44.6228 67.3348 44.9127 69.3424C44.9127 69.3452 44.9145 69.3452 44.9145 69.3479V69.3535L45.5376 73.2784C45.557 73.3825 45.5967 73.4774 45.6493 73.5612C45.6641 73.611 45.6714 73.6626 45.6927 73.7068C46.1404 74.6807 47.4853 75.1718 49.6878 75.1718C51.7527 75.1718 54.2625 74.7093 55.9278 74.0182C56.7355 73.6838 58.0342 72.9725 57.6511 71.9424C57.3142 71.0349 56.7373 70.4102 55.8899 70.0362C55.4588 69.8455 54.9355 69.7533 54.2902 69.7533C51.9668 69.7533 48.8801 70.9879 48.7554 71.0377L47.777 71.4219C47.4576 71.5481 47.2019 71.608 46.9573 71.666C46.9139 71.6762 46.8705 71.6863 46.8271 71.6974L46.5105 69.7174C46.8253 69.5921 47.1373 69.4695 47.453 69.3442L48.4084 68.9674C50.7401 68.0267 53.6348 67.8535 55.4413 68.6486C56.6496 69.1821 57.5367 70.1384 58.0139 71.4154C58.6084 73.0121 57.6493 74.5084 55.4496 75.4214ZM41.3219 73.6608C37.6711 75.345 36.893 75.7273 36.7435 76.4386C36.6964 76.6551 36.749 76.8799 36.8838 77.0578C37.8031 78.2509 42.8598 78.6406 44.4973 78.6406C44.7816 78.6406 45.0493 78.6351 45.3382 78.6195C45.7453 78.6195 46.0804 78.9392 46.0988 79.3446C46.1173 79.7628 45.7942 80.1185 45.3724 80.1388C45.3253 80.1424 45.0927 80.1498 44.7299 80.1498C43.301 80.1498 38.5111 79.9821 37.0019 77.8041C36.6041 77.2282 36.4988 76.5805 36.6991 75.9236C37.1127 74.5692 38.9478 73.131 42.2561 71.549L42.6179 73.061L41.3219 73.6608ZM36.7951 67.5992C36.4831 67.8037 35.6016 67.9945 34.6407 68.0912C34.5013 62.8893 34.1967 56.1892 33.8515 49.5555C33.8718 49.5417 33.893 49.5399 33.9124 49.5242C35.2518 48.3974 37.6776 47.992 39.1028 48.6563C39.2524 48.7245 39.3604 48.8028 39.461 48.8783C39.5856 49.7002 39.7028 50.5183 39.8145 51.3365C39.3742 55.9755 37.4293 65.9859 36.7951 67.5992ZM32.8518 31.9255C32.7705 30.5767 32.8536 29.5484 33.0419 28.6206C35.8979 32.4756 37.6859 38.8034 38.8942 45.4795C37.2188 45.1653 35.3053 45.3901 33.6715 46.141C33.3853 40.8866 33.0918 35.8661 32.8518 31.9255ZM29.9764 73.6119C28.7893 73.6119 28.3508 73.3097 28.3287 73.2775C28.3361 73.2047 28.3388 73.1282 28.3342 73.0554C28.2798 71.9968 27.0068 47.0808 26.5102 43.8874C26.3801 43.0591 25.5982 42.4823 24.7739 42.6215C23.9431 42.7514 23.3755 43.5262 23.5047 44.3554C23.8213 46.3824 24.5385 58.8851 25.0333 68.1548H18.2791C18.6124 58.9312 19.0961 46.5446 19.2982 44.735C19.3915 43.904 18.7887 43.1521 17.9542 43.0591C17.1262 42.9623 16.3665 43.5668 16.2751 44.4015C15.9604 47.2263 15.0964 72.0254 15.0613 73.1605C15.0419 73.4277 14.4881 73.6128 13.7145 73.6128C12.8921 73.6128 12.3558 73.4028 12.3179 73.1319C12.3179 70.7521 12.3041 67.5513 12.2884 63.9691C12.2745 60.4836 12.2588 56.6057 12.2515 52.7554C13.7367 50.1175 13.8336 45.2952 13.9361 39.6787C13.9536 38.6901 13.9564 37.6517 13.9591 36.6004C13.9748 31.6897 13.9951 24.9666 16.0148 24.9666C16.1801 24.9666 16.3324 24.9279 16.4671 24.8597C16.5235 24.9251 16.5567 24.9905 16.6185 25.0559C17.6884 26.1726 19.2936 26.7402 21.389 26.7402C23.5785 26.7402 25.2253 26.1781 26.2831 25.067C26.3635 24.9832 26.4271 24.8966 26.4964 24.8109C28.013 24.8238 29.357 25.3056 30.5616 26.1477C30.0401 27.7537 29.6561 29.495 29.8139 32.1126C30.5099 43.5843 31.6795 64.1672 31.6407 73.2342C31.5825 73.2922 31.229 73.6119 29.9764 73.6119ZM8.79268 49.7407C8.7096 50.2714 8.62653 50.6381 8.54807 50.8832C8.35699 50.5699 8.12807 50.0254 7.90745 49.3095C8.22499 49.4321 8.52684 49.5739 8.79268 49.7407ZM7.2373 45.9973C7.11637 45.0031 7.03699 43.8975 7.03699 42.6546C7.03699 38.3372 7.94345 33.8244 9.46284 30.5057C9.47853 30.9341 9.47668 31.4003 9.44345 31.9255C9.29668 34.3652 9.23391 39.1802 9.21453 44.7682C9.18407 45.4104 9.14991 45.9945 9.11484 46.5197C8.51668 46.2792 7.88068 46.1143 7.2373 45.9973ZM8.67637 53.3764C5.83237 53.3764 3.99453 49.1695 3.99453 42.6546C3.99453 37.7438 5.02007 32.7603 6.80899 28.9809C9.03914 24.2746 11.2121 22.4172 14.7216 22.2947C10.8613 24.1622 8.44837 29.073 8.18437 29.6295C6.51268 33.1601 5.51484 38.0285 5.51484 42.6546C5.51484 47.4816 6.72407 52.6945 8.67453 52.6945C9.83484 52.6945 10.6711 51.7649 10.8936 39.6215C10.9047 38.9499 10.8964 38.2063 10.8844 37.4195C10.8318 33.4135 10.7607 28.1489 13.6739 25.0274C12.4656 27.339 12.4518 31.873 12.4379 36.5931C12.4351 37.636 12.4315 38.6661 12.4139 39.6473C12.2598 48.1597 11.9958 53.3764 8.67637 53.3764ZM7.48837 67.4168C6.99453 66.2264 3.04376 53.3681 3.04376 50.147C3.04376 49.9112 3.10007 49.6707 3.31607 49.4486C4.32314 52.9055 6.19053 54.8957 8.6773 54.8957C8.86837 54.8957 9.0373 54.8699 9.21453 54.8477C9.22284 58.0015 9.23484 61.1249 9.24591 63.9811C9.25145 65.3972 9.25883 66.7525 9.26345 68.0203C8.38745 67.8793 7.65084 67.6443 7.48837 67.4168ZM24.3235 22.5692C24.2893 22.6706 24.2228 22.8226 24.0798 22.9719C23.6311 23.4427 22.6767 23.7016 21.3899 23.7016C19.3591 23.7016 18.7121 23.0087 18.5118 22.5093C19.5013 22.384 20.4936 22.0837 21.3401 21.4793C22.2096 22.1399 23.2647 22.4568 24.3235 22.5692ZM18.8533 3.19235C19.5908 3.09837 20.3376 3.03572 21.101 3.03572C30.1398 3.03572 37.6351 9.75603 38.8333 18.4563L35.7225 17.0236C35.7761 16.1244 35.8102 15.1459 35.8102 14.0633C35.8102 13.2268 35.1299 12.5468 34.2899 12.5468C33.4508 12.5468 32.7696 13.2268 32.7696 14.0633C32.7696 18.1458 32.3127 20.6399 31.7579 22.5674C30.8773 22.1178 29.933 21.7824 28.9305 21.5631C29.1631 21.2019 29.2582 20.7579 29.1235 20.3128C28.8807 19.5131 28.0333 19.0635 27.2265 19.2984C27.1924 19.3086 23.6801 20.2741 22.7247 18.5245C22.6407 18.3706 22.5253 18.2417 22.3979 18.1292C22.4681 18.0638 22.5355 17.9957 22.5936 17.9201L24.8801 14.8557C25.2253 14.395 25.2779 13.7805 25.0195 13.2682C24.7619 12.7559 24.2358 12.4316 23.6607 12.4316H19.0065C18.4268 12.4316 17.8979 12.7615 17.6413 13.2783C17.3847 13.7989 17.4484 14.419 17.8019 14.876L20.1687 17.9404C20.2259 18.0141 20.2924 18.074 20.3607 18.1339C20.2628 18.2251 20.1733 18.3273 20.1004 18.4443C18.9881 20.2198 15.5699 19.3021 15.5413 19.2938C14.7345 19.0589 13.889 19.5186 13.6527 20.3221C13.5991 20.5054 13.5918 20.6906 13.6056 20.8712C12.3816 21.0333 11.2942 21.4 10.3038 22.0164C9.9493 20.5625 9.66499 18.7244 9.56714 16.1097C14.0828 15.3182 20.8204 11.971 18.8533 3.19235ZM13.037 8.23397C13.8696 8.23397 14.5435 8.90563 14.5435 9.73761C14.5435 10.5668 13.8696 11.2385 13.037 11.2385C12.2071 11.2385 11.5324 10.5668 11.5324 9.73761C11.5324 8.90655 12.2071 8.23397 13.037 8.23397ZM59.4391 70.8875C58.8179 69.2162 57.6474 67.9631 56.0551 67.2592C55.0767 66.8308 53.9367 66.6115 52.6628 66.6115C51.0918 66.6115 49.3342 66.9561 47.8453 67.5577L46.8982 67.9309C46.6933 68.011 46.4911 68.0912 46.2871 68.1695C46.0545 66.3545 45.833 64.1653 45.6022 61.8647C44.3994 49.9056 42.5515 31.6058 34.3822 24.3732C34.7524 23.239 35.1161 21.9234 35.3828 20.2106L39.8847 22.2818C40.3554 22.4992 40.9047 22.4596 41.3422 22.1823C41.7788 21.9031 42.0428 21.4212 42.0428 20.9034C42.0428 9.37644 32.6487 -0.00012207 21.101 -0.00012207C9.5533 -0.00012207 0.15822 9.37644 0.15822 20.9034C0.15822 21.3844 0.388066 21.8395 0.777605 22.1251C1.04253 22.3214 1.35914 22.42 1.67945 22.42C1.83084 22.42 1.98222 22.3997 2.12991 22.3518L6.96314 20.8509C7.19668 22.2652 7.49114 23.3874 7.79945 24.3493C6.9733 25.4079 6.19791 26.7208 5.43453 28.3323C3.55237 32.3042 2.4733 37.5264 2.4733 42.6537C2.4733 43.9639 2.54899 45.18 2.68745 46.3068C2.63299 46.328 2.57207 46.3409 2.52037 46.3649C0.918835 47.0918 -0.000549316 48.4711 -0.000549316 50.1461C-0.000549316 54.0158 4.16714 67.3504 4.67576 68.5768C5.39945 70.3236 7.6333 70.9013 9.26991 71.092C9.27268 71.819 9.2736 72.5026 9.2736 73.1236C9.27268 73.341 9.31699 74.4706 10.2761 75.4307C11.0801 76.2359 12.2367 76.6459 13.7108 76.6459C15.2505 76.6459 16.4302 76.2166 17.2167 75.3754C18.0336 74.4992 18.1056 73.506 18.1001 73.1337C18.1213 72.5247 18.1434 71.8706 18.1684 71.1888H25.1902C25.2262 71.8733 25.2604 72.5275 25.2918 73.142C25.2853 73.5318 25.3628 74.4494 26.1207 75.2832C26.9441 76.1889 28.2391 76.6459 29.9745 76.6459C31.7367 76.6459 33.0548 76.1834 33.8856 75.2731C34.6804 74.4052 34.7311 73.4488 34.7201 73.095C34.7201 72.4943 34.7136 71.8356 34.7016 71.139C36.3096 71.0165 38.5001 70.601 39.3548 69.2595C39.7831 68.586 40.4468 65.8523 41.0856 62.6092C41.3782 65.4967 41.6376 68.0332 41.933 70.0095C37.889 71.8973 35.8176 73.5972 35.2407 75.4804C34.9065 76.5787 35.0856 77.711 35.7493 78.6655C37.6278 81.3743 42.6539 81.6673 44.7281 81.6673C45.1342 81.6673 45.3982 81.6571 45.4462 81.6544C46.6998 81.5917 47.6764 80.5248 47.6164 79.269C47.5591 78.0565 46.5604 77.1038 45.2311 77.1038H45.2265C44.9958 77.114 44.7502 77.1223 44.4954 77.1223C42.4139 77.1223 40.1782 76.785 38.9588 76.4635C39.6918 76.0839 40.8031 75.5689 41.957 75.0382L43.1385 74.4881C44.3561 76.6118 47.0653 77.817 50.6588 77.817C52.541 77.817 54.497 77.4539 56.0284 76.821C59.6228 75.3348 60.113 72.6961 59.4391 70.8875Z" fill="#00BFDA"/>
</g>
</svg>
