<svg viewBox="0 0 210 259" version="1.1" xmlns="http://www.w3.org/2000/svg" xmlns:xlink="http://www.w3.org/1999/xlink">
    <path d="M108.6,0 C37.9,0 0.3,45.5 0.3,95.1 C0.3,118.1 13.1,146.8 33.6,155.9 C36.7,157.3 38.4,156.7 39.1,153.8 C39.7,151.6 42.4,141 43.7,136 C44.1,134.4 43.9,133 42.6,131.5 C35.8,123.6 30.4,109.2 30.4,95.7 C30.4,61.1 57.8,27.5 104.4,27.5 C144.7,27.5 172.9,53.8 172.9,91.4 C172.9,133.9 150.5,163.3 121.4,163.3 C105.3,163.3 93.3,150.6 97.1,134.9 C101.7,116.2 110.7,96.1 110.7,82.6 C110.7,70.5 103.9,60.5 90,60.5 C73.6,60.5 60.3,76.8 60.3,98.7 C60.3,112.6 65.2,122 65.2,122 C65.2,122 49,187.8 46,200.1 C40.9,220.9 46.7,254.6 47.2,257.5 C47.5,259.1 49.3,259.6 50.3,258.3 C51.9,256.2 71.5,228.1 77,207.8 C79,200.4 87.2,170.4 87.2,170.4 C92.6,180.2 108.2,188.4 124.8,188.4 C174.2,188.4 209.9,144.8 209.9,90.7 C209.7,38.8 165.5,0 108.6,0" ></path>
    <image src="../images/pinterest.gif" xlink:href="" />
</svg>
