<svg width="24" height="21" viewBox="0 0 24 21" fill="none" xmlns="http://www.w3.org/2000/svg">
<path d="M4.22279 16.4719C5.07185 19.1497 7.61904 21.1091 10.4275 20.9785C13.1706 20.9132 15.7831 18.8885 16.6975 16.276C17.6119 13.6635 16.6975 10.6591 14.5422 8.96095C12.9747 7.72001 10.95 7.58938 9.05592 7.78532C5.20248 8.30782 3.11247 13.0103 4.22279 16.4719Z" fill="#00BFDA"/>
<path d="M0.173386 5.1728C0.499949 6.74031 1.93683 7.91593 3.43902 8.04656C6.9659 8.2425 8.59871 3.01749 5.33308 1.31936C3.11245 0.0784215 -0.414427 2.36436 0.173386 5.1728Z" fill="#00BFDA"/>
<path d="M9.31709 1.71124C8.99053 2.56031 9.05584 3.67062 9.77428 4.32375C11.6683 6.1525 15.2605 5.56469 15.2605 2.69093C15.2605 -0.0521977 10.2315 -1.03189 9.31709 1.71124Z" fill="#00BFDA"/>
<path d="M16.9588 8.50374C19.1794 9.15687 20.9428 6.15249 19.31 4.51968C18.8528 4.06249 18.1344 3.86655 17.416 3.93186C16.6975 3.99718 15.9791 4.38905 15.5872 5.04218C14.8035 6.41374 15.4566 8.04656 16.9588 8.50374Z" fill="#00BFDA"/>
<path d="M18.5916 13.4675C18.7222 13.8594 18.9834 14.2512 19.3753 14.5125C20.6816 15.2962 22.6409 14.5125 22.9675 12.945C23.49 10.7897 21.3347 9.54874 19.6366 10.3978C18.5916 10.855 18.1997 12.3572 18.5916 13.4675Z" fill="#00BFDA"/>
</svg>
