<svg width="23" height="21" viewBox="0 0 23 21" fill="none" xmlns="http://www.w3.org/2000/svg">
<path d="M7.63637 12.4091C10.2815 12.4091 12.4091 10.2751 12.4091 7.65094C12.4091 5.02674 10.2815 2.86394 7.66513 2.86394C5.02 2.8351 2.86365 4.96906 2.86365 7.59326C2.86365 10.2463 4.99125 12.3803 7.63637 12.4091Z" fill="#00BFDA"/>
<path d="M20.5288 1.30264C20.1766 0.429915 19.1521 -0.11554 18.0637 0.0208237C16.9432 0.157187 16.1108 0.948096 16.1108 1.90264C16.1108 4.08446 16.1108 6.26628 16.1108 8.4481C16.1108 8.72082 16.0468 8.99355 15.9187 9.26628C15.3424 10.5481 14.7662 11.8026 14.2539 13.0845C14.1899 13.4117 13.8057 13.6299 13.4216 13.5754C10.6043 13.5754 7.75503 13.5754 4.90575 13.5754C2.5687 13.5754 1 14.939 1 16.9299C1 17.9663 1 19.0026 1 20.0117C1 20.6936 1.25611 20.8845 2.02446 20.8845H16.3989C17.1993 20.8845 17.4554 20.6663 17.4554 20.0117C17.4554 19.0572 17.4554 18.1299 17.4554 17.1754C17.4554 16.9845 17.4874 16.7936 17.5514 16.6299C18.5119 14.4754 19.4723 12.3208 20.4327 10.1663C20.5928 9.83901 20.6568 9.45719 20.6568 9.10264V2.20264C20.6568 1.90264 20.6248 1.60264 20.5288 1.30264Z" fill="#00BFDA"/>
</svg>
